<svg width="61" height="80" viewBox="0 0 61 80" fill="none" xmlns="http://www.w3.org/2000/svg">
<path d="M57.3431 11.6633C55.5491 9.01047 53.0575 6.95531 50.1219 5.69562C50.0377 5.60328 49.9428 5.51875 49.8344 5.44656L42.0625 0.262656C41.6983 0.0198437 41.2489 -0.0590625 40.8242 0.0446875C40.7625 0.0598438 40.7027 0.0795313 40.6439 0.101719C40.6544 0.0676563 40.6634 0.0357812 40.6752 0H18.8084C18.8084 0.000625 18.8083 0.00109375 18.8081 0.00171875C18.5025 0.001875 18.2003 0.09 17.9416 0.262656L10.1698 5.44656C10.0111 5.55234 9.87891 5.68328 9.77266 5.82984C6.96984 7.09906 4.58938 9.10312 2.85781 11.6633C0.988126 14.4275 0 17.6527 0 20.9897V57.0341C0 57.8969 0.699688 58.5966 1.5625 58.5966H10.2213C11.0841 58.5966 11.7838 57.8969 11.7838 57.0341V36.9717L13.2253 41.2684V48.7192V48.7194V78.4375C13.2253 79.3003 13.925 80 14.7878 80H45.4128C46.2756 80 46.9753 79.3003 46.9753 78.4375V48.7195V41.4711L48.417 37.1091V57.0341C48.417 57.8969 49.1167 58.5966 49.9795 58.5966H58.6383C59.5011 58.5966 60.2008 57.8969 60.2008 57.0341V20.9897C60.2008 17.6527 59.2125 14.4275 57.3431 11.6633ZM41.7445 3.80687L46.8798 7.23219L35.0073 27.7191L31.7986 21.8966L41.7445 3.80687ZM38.5533 3.125L30.0136 18.6573L21.4536 3.125H38.5533ZM11.7027 26.9053C11.4589 26.1792 10.7255 25.7358 9.96953 25.8603C9.21375 25.9837 8.65875 26.6366 8.65875 27.4023V55.4716H3.12484V20.9897C3.12484 15.8561 5.97094 11.2619 10.4713 8.96125L15.8684 18.7778C16.2842 19.5341 17.2342 19.8097 17.9905 19.3941C18.7466 18.9783 19.0225 18.0283 18.6067 17.272L13.0967 7.25031L18.2606 3.80594L28.5217 22.4255C28.5516 22.5138 28.5866 22.6006 28.6327 22.6838L33.603 31.6458L38.018 39.657H30.9141L23.9253 26.9458C23.5097 26.1895 22.5595 25.9139 21.8033 26.3295C21.0472 26.7453 20.7712 27.6953 21.187 28.4516L27.348 39.657H15.9806L11.7027 26.9053ZM30.307 76.875H16.3505V50.282H30.307V76.875ZM43.8503 76.875H33.4319V50.282H37.6003V66.257C37.6003 67.1198 38.3 67.8195 39.1628 67.8195C40.0256 67.8195 40.7253 67.1198 40.7253 66.257V50.282H43.8503V76.875ZM43.8503 47.1569L16.3503 47.1567V42.7819H29.757C29.8375 42.7947 29.9189 42.8031 30.0019 42.8031H40.675C40.7575 42.8031 40.8388 42.7945 40.9189 42.7819H43.8503V47.1569ZM57.0758 55.4716H51.542V27.4023C51.542 26.6353 50.9853 25.9816 50.2278 25.8597C49.4708 25.738 48.7367 26.1838 48.4959 26.912L44.2838 39.6569H41.5863L36.7678 30.9134L49.5447 8.86609C54.1523 11.1342 57.0758 15.7858 57.0758 20.9895V55.4716Z" fill="white"/>
<path d="M20.9543 21.6734C20.6637 21.3828 20.2605 21.2156 19.8496 21.2156C19.4387 21.2156 19.0355 21.3826 18.7451 21.6734C18.4545 21.9639 18.2871 22.367 18.2871 22.7781C18.2871 23.189 18.4543 23.5921 18.7451 23.8826C19.0355 24.1734 19.4388 24.3406 19.8496 24.3406C20.2605 24.3406 20.6637 24.1734 20.9543 23.8826C21.2465 23.5921 21.4137 23.189 21.4137 22.7781C21.4137 22.367 21.2465 21.9639 20.9543 21.6734Z" fill="white"/>
<path d="M40.2686 70.783C39.9781 70.4922 39.575 70.3252 39.1641 70.3252C38.7514 70.3252 38.35 70.4922 38.0594 70.783C37.7687 71.0738 37.6016 71.4768 37.6016 71.8893C37.6016 72.3002 37.7686 72.7018 38.0594 72.9939C38.35 73.2844 38.7531 73.4502 39.1641 73.4502C39.575 73.4502 39.9781 73.2844 40.2686 72.9939C40.5592 72.7018 40.7266 72.3002 40.7266 71.8893C40.7264 71.4768 40.5592 71.0752 40.2686 70.783Z" fill="white"/>
</svg>
