<svg width="81" height="80" viewBox="0 0 81 80" fill="none" xmlns="http://www.w3.org/2000/svg">
<path d="M79.545 30.4576L77.5026 28.4153V11.9384C77.5026 5.35549 72.1471 0 65.5642 0C62.8557 0 60.3562 0.907999 58.3508 2.43367C49.512 -1.906 38.5082 -0.405794 31.1668 6.93539C23.3048 14.7975 22.1431 26.8596 27.6783 35.9651L18.7261 44.9173H14.9444C14.0816 44.9173 13.3819 45.6168 13.3819 46.4798V49.3465H10.515C9.65219 49.3465 8.95248 50.046 8.95248 50.909V53.7757H6.08598C5.22314 53.7757 4.52343 54.4752 4.52343 55.3382V58.2049H1.65693C1.24254 58.2049 0.845184 58.3696 0.55205 58.6626L0.457671 58.757C0.164693 59.0496 0 59.4471 0 59.8615V70.0003C0 70.8633 0.699711 71.5628 1.56255 71.5628H11.8902C12.3046 71.5628 12.702 71.3982 12.9951 71.1052L30.2315 53.8688C30.8417 53.2586 30.8417 52.2692 30.2315 51.6589C29.6211 51.0487 28.632 51.0487 28.0216 51.6589L11.2429 68.4379H3.1251V61.3295H6.08614C6.94898 61.3295 7.64869 60.63 7.64869 59.767V56.9003H10.5153C11.3782 56.9003 12.0779 56.2008 12.0779 55.3378V52.4711H14.9447C15.8076 52.4711 16.5073 51.7716 16.5073 50.9086V48.0419H19.3739C19.7883 48.0419 20.1857 47.8772 20.4788 47.5842L29.5049 38.5583C30.0213 39.1955 30.5752 39.8123 31.1678 40.4048C35.3954 44.6324 40.9412 47.0623 46.8781 47.3136V73.4374C46.8781 77.056 49.8221 80 53.4407 80H73.4409C77.0594 80 80.0034 77.056 80.0034 73.4374V31.5623C80.0027 31.1481 79.838 30.7507 79.545 30.4576ZM65.564 3.12495C70.4237 3.12495 74.3775 7.07852 74.3775 11.9382V25.2901L71.5677 22.4803C71.5539 22.4665 71.5391 22.4548 71.525 22.4417C71.2342 16.797 68.9387 11.2371 64.6368 6.93492C63.6093 5.90754 62.5097 4.99517 61.3548 4.19655C62.6065 3.51371 64.0406 3.12495 65.564 3.12495ZM56.7505 16.3766V12.9273C57.1574 13.1103 57.54 13.3645 57.8736 13.6983C58.5891 14.4138 58.9834 15.3649 58.9834 16.3766C58.9834 17.3884 58.5893 18.3397 57.8736 19.0552C56.397 20.5321 53.994 20.5322 52.5171 19.0552C51.0401 17.5782 51.0401 15.1752 52.5171 13.6984C52.8468 13.3687 53.2241 13.1168 53.6255 12.9343V16.3768C53.6255 17.2398 54.3252 17.9393 55.1881 17.9393C56.0509 17.9393 56.7505 17.2395 56.7505 16.3766ZM47.9016 44.2021C42.642 44.2016 37.3806 42.1992 33.3764 38.1952C25.3676 30.1862 25.3676 17.1542 33.3766 9.14499C37.2564 5.26517 42.415 3.12839 47.9019 3.12839C50.7365 3.12839 53.4827 3.70012 56.0111 4.78625C54.9614 6.18474 54.2121 7.82057 53.8574 9.59704C52.5556 9.85189 51.3136 10.4821 50.3073 11.4883C47.612 14.1838 47.612 18.5692 50.3073 21.2646C51.6552 22.6123 53.4251 23.2861 55.1954 23.2861C56.9653 23.2861 58.7359 22.6122 60.0834 21.2646C61.3891 19.9589 62.1083 18.2228 62.1083 16.3765C62.1083 14.53 61.3891 12.794 60.0834 11.4883C59.2071 10.6121 58.1519 10.0227 57.0345 9.71626C57.3703 8.42809 57.9918 7.25477 58.8257 6.26583C60.115 7.07852 61.3228 8.04105 62.4268 9.14515C66.3066 13.025 68.4434 18.1834 68.4434 23.6703C68.4434 29.1572 66.3066 34.3157 62.4268 38.1955C58.4218 42.2005 53.1625 44.2026 47.9016 44.2021ZM76.8775 73.4379C76.8775 75.3334 75.3355 76.8755 73.4401 76.8755H53.4399C51.5444 76.8755 50.0023 75.3334 50.0023 73.4379V47.2439C55.5312 46.7608 60.6654 44.3763 64.6368 40.4051C68.4812 36.5607 70.7224 31.7118 71.3636 26.6957L76.8775 32.2095V73.4379Z" fill="white"/>
<path d="M39.9449 15.7145C40.5554 15.1043 40.5554 14.1149 39.9451 13.5048C39.3347 12.8946 38.3456 12.8946 37.7351 13.5048C32.13 19.1101 32.13 28.2306 37.7351 33.8357C38.0403 34.1409 38.4402 34.2934 38.84 34.2934C39.2399 34.2934 39.6397 34.1407 39.9449 33.8357C40.5551 33.2256 40.5551 32.2362 39.9449 31.626C35.5582 27.2391 35.5582 20.1012 39.9449 15.7145Z" fill="white"/>
<path d="M44.9139 34.5329C44.9094 34.5317 44.8916 34.5267 44.887 34.5254C44.0565 34.2959 43.1989 34.7845 42.969 35.6156C42.7388 36.4461 43.2279 37.3071 44.0581 37.5386C44.2008 37.5791 44.3442 37.5983 44.4855 37.5983C45.1655 37.5983 45.791 37.151 45.9871 36.4647C46.2243 35.6348 45.7438 34.77 44.9139 34.5329Z" fill="white"/>
<path d="M70.0803 68.438H56.7989C55.936 68.438 55.2363 69.1375 55.2363 70.0005C55.2363 70.8635 55.936 71.5631 56.7989 71.5631H70.0803C70.9431 71.5631 71.6428 70.8635 71.6428 70.0005C71.6428 69.1375 70.9431 68.438 70.0803 68.438Z" fill="white"/>
<path d="M34.2374 47.6522C33.947 47.3615 33.5438 47.1943 33.1329 47.1943C32.7219 47.1943 32.3188 47.3615 32.0281 47.6522C31.7375 47.9428 31.5703 48.3459 31.5703 48.7569C31.5703 49.1678 31.7374 49.571 32.0281 49.8616C32.3189 50.1522 32.7219 50.3194 33.1329 50.3194C33.5454 50.3194 33.947 50.1522 34.2374 49.8616C34.5296 49.571 34.6954 49.1678 34.6954 48.7569C34.6954 48.3459 34.5296 47.9428 34.2374 47.6522Z" fill="white"/>
</svg>
