<svg width="80" height="80" viewBox="0 0 80 80" fill="none" xmlns="http://www.w3.org/2000/svg">
<path d="M31.2499 47.074C28.0071 47.074 25.3691 49.7119 25.3691 52.9547C25.3691 56.1969 28.0071 58.8354 31.2499 58.8354C34.4927 58.8354 37.1306 56.1969 37.1306 52.9547C37.1306 49.7119 34.4927 47.074 31.2499 47.074ZM31.2499 55.7104C29.7301 55.7104 28.4941 54.4739 28.4941 52.9541C28.4941 51.4349 29.7301 50.1984 31.2499 50.1984C32.769 50.1984 34.0056 51.4349 34.0056 52.9541C34.0056 54.4739 32.769 55.7104 31.2499 55.7104Z" fill="white"/>
<path d="M79.4073 20.9192C78.3167 20.0555 77.2577 19.5093 76.2921 19.1718C77.7228 17.1564 78.5065 13.9801 77.193 9.29993C77.0459 8.77502 76.6357 8.36487 76.1108 8.21716C71.4294 6.90369 68.2532 7.68738 66.2384 9.11865C65.9015 8.15186 65.3546 7.09412 64.4916 6.00281C64.0161 5.40222 63.175 5.23499 62.5055 5.60852C59.0295 7.54639 57.8162 10.2179 57.5952 12.4017C57.2998 12.345 56.9781 12.2943 56.626 12.2516C55.8643 12.1588 55.1465 12.6331 54.9347 13.371C54.599 14.5416 54.3933 15.6293 54.3121 16.6357C51.7065 19.043 48.3435 20.3644 44.7754 20.3644H44.4269C43.5638 20.3644 42.8644 21.0638 42.8644 21.9269C42.8644 22.7893 43.5638 23.4894 44.4269 23.4894H44.7754C46.5491 23.4894 48.2812 23.2214 49.9268 22.7069L50.1941 22.9742C51.4948 24.2749 52.2528 25.9735 52.3566 27.796C50.8478 28.1488 49.527 28.9954 48.576 30.1575C47.4371 28.7646 45.7666 27.8235 43.8763 27.6447C42.6398 24.0619 40.0922 21.1121 36.7383 19.3677V1.5625C36.7383 0.699463 36.0382 0 35.1758 0H27.3242C26.4618 0 25.7617 0.699463 25.7617 1.5625V19.3683C20.9003 21.8982 17.8125 26.9342 17.8125 32.4725V33.1445H1.5625C0.699463 33.1445 0 33.8446 0 34.707V57.3022C0 62.547 3.87512 66.9025 8.91174 67.6587L8.91968 76.875H6.47461C5.61218 76.875 4.91211 77.5745 4.91211 78.4375C4.91211 79.2999 5.61218 80 6.47461 80H14.4922C15.3552 80 16.0547 79.2999 16.0547 78.4375C16.0547 77.5745 15.3552 76.875 14.4922 76.875H12.0447L12.0367 67.6581C14.2694 67.3224 16.2732 66.2787 17.8125 64.7644V78.4375C17.8125 79.2999 18.512 80 19.375 80H43.125C43.9874 80 44.6875 79.2999 44.6875 78.4375V49.5306C45.5048 50.0885 46.4471 50.4749 47.4628 50.6396C47.1735 51.4014 47.0135 52.2266 47.0135 53.0884C47.0135 56.9037 50.1172 60.0067 53.9325 60.0067C57.7472 60.0067 60.8502 56.9037 60.8502 53.0884C60.8502 52.2266 60.6909 51.4014 60.4016 50.6396C63.6884 50.1056 66.2067 47.2479 66.2067 43.8123C66.2067 42.9486 66.0461 42.1222 65.7556 41.3593C69.0436 40.8258 71.5625 37.9675 71.5625 34.5312C71.5625 33.1799 71.1713 31.9189 70.4987 30.8521C70.9961 30.752 71.5106 30.6274 72.0392 30.4755C72.7771 30.2637 73.252 29.5471 73.1586 28.7848C73.1158 28.4326 73.0652 28.1104 73.0084 27.8156C75.1923 27.594 77.8638 26.3806 79.8016 22.9053C80.1752 22.2357 80.0079 21.3947 79.4073 20.9192ZM54.7107 20.3326C54.9658 21.0565 55.3278 21.7078 55.8057 22.2784C56.6772 23.3191 57.7832 23.9209 58.8416 24.2682C57.7655 25.0671 56.5668 25.6866 55.2808 26.1023C54.9292 24.3738 54.1479 22.7667 52.9926 21.4069C53.584 21.0846 54.1577 20.7263 54.7107 20.3326ZM59.2883 30.1575C58.7866 29.5441 58.1818 29.0186 57.5006 28.6066C58.7958 28.0609 60.0061 27.3425 61.106 26.4685C61.2054 26.7847 61.3257 27.1057 61.4758 27.4255C61.6016 27.6929 61.7444 27.9431 61.8964 28.1836C60.8765 28.6267 59.9835 29.3079 59.2883 30.1575ZM20.9467 41.5625H41.5625V64.3463H20.9375L20.9467 41.5625ZM53.9325 30.7379C56.0242 30.7379 57.7252 32.4396 57.7252 34.5312C57.7252 36.6229 56.0236 38.3246 53.9325 38.3246C51.8408 38.3246 50.1385 36.6229 50.1385 34.5312C50.1385 32.4396 51.8408 30.7379 53.9325 30.7379ZM47.0135 34.5312C47.0135 36.6229 45.3119 38.3246 43.2208 38.3246C41.1292 38.3246 39.4269 36.6229 39.4269 34.5312C39.4269 32.4396 41.1292 30.7379 43.2208 30.7379C45.3119 30.7379 47.0135 32.4396 47.0135 34.5312ZM33.6133 3.125V13.2147H28.8867V3.125H33.6133ZM27.9468 21.7865C28.5175 21.5387 28.8867 20.976 28.8867 20.3534V16.3397H33.6133V20.3534C33.6133 20.9753 33.9825 21.5387 34.5532 21.7865C37.373 23.0115 39.5636 25.2734 40.7043 28.0884C38.1305 29.0973 36.3019 31.604 36.3019 34.5312C36.3019 35.9796 36.7505 37.3248 37.514 38.4375H20.9467V34.707C20.9467 34.6515 20.943 34.5966 20.9375 34.5422V32.4725C20.9375 27.8302 23.689 23.6359 27.9468 21.7865ZM17.8125 36.2695L17.8217 45.7001H3.125V36.2695H17.8125ZM10.473 64.6503C6.42151 64.6503 3.125 61.3538 3.125 57.3022V48.8257H17.8217V56.0461C17.8156 56.1005 17.8125 56.1554 17.8125 56.2109V57.6514C17.63 61.5411 14.408 64.6503 10.473 64.6503ZM20.9375 76.875V67.4713H41.5625V71.4062H33.2812C32.4182 71.4062 31.7188 72.1057 31.7188 72.9688C31.7188 73.8312 32.4182 74.5312 33.2812 74.5312H41.5625V76.875H20.9375ZM44.7827 43.8123C44.7827 41.7206 46.4844 40.0189 48.576 40.0189C50.6677 40.0189 52.3694 41.7206 52.3694 43.8123C52.3694 45.9039 50.6677 47.6056 48.576 47.6056C46.4844 47.6056 44.7827 45.9039 44.7827 43.8123ZM53.9325 56.8817C51.8408 56.8817 50.1385 55.1801 50.1385 53.0884C50.1385 50.9973 51.8408 49.295 53.9325 49.295C56.0236 49.295 57.7252 50.9973 57.7252 53.0884C57.7252 55.1801 56.0242 56.8817 53.9325 56.8817ZM59.2877 47.6056C57.196 47.6056 55.495 45.9039 55.495 43.8123C55.495 41.7206 57.1967 40.0189 59.2877 40.0189C61.3794 40.0189 63.0817 41.7206 63.0817 43.8123C63.0817 45.9039 61.38 47.6056 59.2877 47.6056ZM64.6442 38.3246C62.5525 38.3246 60.8508 36.6229 60.8508 34.5312C60.8508 32.4402 62.5525 30.7379 64.6442 30.7379C66.7358 30.7379 68.4375 32.4396 68.4375 34.5312C68.4375 36.6229 66.7358 38.3246 64.6442 38.3246ZM71.1816 24.5782C70.4675 24.314 69.6832 24.61 69.303 25.271C68.9545 25.8759 69.0674 26.6357 69.5404 27.132C69.5776 27.1942 69.6844 27.3944 69.8004 27.807C69.6387 27.8381 69.4794 27.8662 69.3243 27.8906C68.1927 28.0676 67.2321 28.0542 66.4508 27.8534C66.4166 27.8442 66.3824 27.8345 66.3477 27.8253C66.106 27.757 65.8801 27.6709 65.6744 27.5647C65.0696 27.251 64.621 26.7706 64.3042 26.0962C63.6945 24.7992 63.8257 23.3069 63.8257 23.3002C63.8745 22.832 63.7134 22.3663 63.3807 22.0337C63.0859 21.7389 62.6904 21.5753 62.2791 21.5753C62.226 21.5753 62.1722 21.5784 62.1185 21.5839C62.0923 21.5869 59.4769 21.8109 58.1927 20.2612C57.2455 19.1187 57.2809 17.2821 57.605 15.6104C58.0182 15.7269 58.2178 15.8337 58.2788 15.8704C58.7695 16.3361 59.5142 16.4374 60.1178 16.0999C60.7788 15.7294 61.0791 14.9377 60.8295 14.2224C60.827 14.2145 60.5707 13.3765 60.7697 12.2955C60.9912 11.0876 61.6821 10.0262 62.829 9.1272C63.9453 11.1816 63.5406 12.7448 63.5193 12.8223C63.2941 13.6469 63.7738 14.5001 64.5959 14.7357C65.4181 14.9719 66.2769 14.5026 66.5234 13.6835C66.6571 13.2391 67.9749 9.53796 74.4043 11.0065C75.8716 17.4341 72.171 18.7537 71.7267 18.8873C70.9076 19.1339 70.4388 19.9927 70.675 20.8148C70.9113 21.637 71.7645 22.1161 72.5891 21.8909C72.666 21.8701 74.2279 21.4648 76.2823 22.5806C74.0906 25.3668 71.5405 24.6912 71.1816 24.5782Z" fill="white"/>
<path d="M27.5 71.4062C27.0892 71.4062 26.6858 71.5729 26.3953 71.864C26.1047 72.1545 25.9375 72.5574 25.9375 72.9688C25.9375 73.3795 26.1047 73.7823 26.3953 74.0729C26.6858 74.364 27.0892 74.5312 27.5 74.5312C27.9108 74.5312 28.3142 74.364 28.6047 74.0729C28.8953 73.7823 29.0625 73.3795 29.0625 72.9688C29.0625 72.5574 28.8953 72.1545 28.6047 71.864C28.3142 71.5735 27.9108 71.4062 27.5 71.4062Z" fill="white"/>
</svg>
