<svg width="22" height="30" viewBox="0 0 22 30" fill="none" xmlns="http://www.w3.org/2000/svg">
<path d="M11 0C4.92486 0 0 4.83605 0 10.8016C0 16.9215 6.92057 25.9548 9.78371 29.4283C10.4123 30.1906 11.5877 30.1906 12.2163 29.4283C15.0794 25.9548 22 16.9215 22 10.8016C22 4.83605 17.0751 0 11 0ZM11 14.6594C8.82986 14.6594 7.07143 12.9326 7.07143 10.8016C7.07143 8.67063 8.82986 6.94391 11 6.94391C13.1701 6.94391 14.9286 8.67063 14.9286 10.8016C14.9286 12.9326 13.1701 14.6594 11 14.6594Z" fill="white"/>
</svg>
