<svg width="80" height="72" viewBox="0 0 80 72" fill="none" xmlns="http://www.w3.org/2000/svg">
<path d="M14.6983 68.8953C14.4078 68.6045 14.0047 68.4375 13.5938 68.4375C13.1828 68.4375 12.7797 68.6045 12.4891 68.8953C12.1984 69.1861 12.0312 69.5891 12.0312 70C12.0312 70.4109 12.1983 70.8141 12.4891 71.1045C12.7797 71.3953 13.1828 71.5625 13.5938 71.5625C14.0047 71.5625 14.4078 71.3953 14.6983 71.1045C14.9891 70.8141 15.1562 70.4109 15.1562 70C15.1562 69.5891 14.9891 69.1859 14.6983 68.8953Z" fill="white"/>
<path d="M78.4375 6.25H71.5625V5.3125C71.5625 2.38313 69.1794 0 66.25 0C63.3206 0 60.9375 2.38313 60.9375 5.3125V6.25H54.0625V5.3125C54.0625 2.38313 51.6794 0 48.75 0C45.8206 0 43.4375 2.38313 43.4375 5.3125V6.25H36.5625V5.3125C36.5625 2.38313 34.1794 0 31.25 0C28.3206 0 25.9375 2.38313 25.9375 5.3125V6.25H19.0625V5.3125C19.0625 2.38313 16.6794 0 13.75 0C10.8206 0 8.4375 2.38313 8.4375 5.3125V6.25H1.5625C0.699688 6.25 0 6.94969 0 7.8125V70C0 70.8628 0.699688 71.5625 1.5625 71.5625H7.96875C8.83156 71.5625 9.53125 70.8628 9.53125 70C9.53125 69.1372 8.83156 68.4375 7.96875 68.4375H3.125V21.5625H65.3125C66.1753 21.5625 66.875 20.8628 66.875 20C66.875 19.1372 66.1753 18.4375 65.3125 18.4375H3.125V9.375H8.4375V10.495C8.4375 13.4244 10.8206 15.8075 13.75 15.8075C14.6128 15.8075 15.3125 15.1078 15.3125 14.245C15.3125 13.3822 14.6128 12.6825 13.75 12.6825C12.5437 12.6825 11.5625 11.7013 11.5625 10.495V9.375H25.9375V10.495C25.9375 13.4244 28.3206 15.8075 31.25 15.8075C32.1128 15.8075 32.8125 15.1078 32.8125 14.245C32.8125 13.3822 32.1128 12.6825 31.25 12.6825C30.0438 12.6825 29.0625 11.7013 29.0625 10.495V9.375H43.4375V10.495C43.4375 13.4244 45.8206 15.8075 48.75 15.8075C49.6128 15.8075 50.3125 15.1078 50.3125 14.245C50.3125 13.3822 49.6128 12.6825 48.75 12.6825C47.5438 12.6825 46.5625 11.7013 46.5625 10.495V9.375H60.9375V10.495C60.9375 13.4244 63.3206 15.8075 66.25 15.8075C67.1128 15.8075 67.8125 15.1078 67.8125 14.245C67.8125 13.3822 67.1128 12.6825 66.25 12.6825C65.0437 12.6825 64.0625 11.7013 64.0625 10.495V9.375H76.875V68.4375H19.9978C19.135 68.4375 18.4353 69.1372 18.4353 70C18.4353 70.8628 19.135 71.5625 19.9978 71.5625H78.4375C79.3003 71.5625 80 70.8628 80 70V7.8125C80 6.94969 79.3003 6.25 78.4375 6.25ZM15.9375 6.25H11.5625V5.3125C11.5625 4.10625 12.5437 3.125 13.75 3.125C14.9563 3.125 15.9375 4.10625 15.9375 5.3125V6.25ZM33.4375 6.25H29.0625V5.3125C29.0625 4.10625 30.0438 3.125 31.25 3.125C32.4562 3.125 33.4375 4.10625 33.4375 5.3125V6.25ZM50.9375 6.25H46.5625V5.3125C46.5625 4.10625 47.5438 3.125 48.75 3.125C49.9562 3.125 50.9375 4.10625 50.9375 5.3125V6.25ZM68.4375 6.25H64.0625V5.3125C64.0625 4.10625 65.0437 3.125 66.25 3.125C67.4563 3.125 68.4375 4.10625 68.4375 5.3125V6.25Z" fill="white"/>
<path d="M15.002 46.25C11.3834 46.25 8.43945 49.1939 8.43945 52.8125C8.43945 56.4311 11.3834 59.375 15.002 59.375C18.6205 59.375 21.5645 56.4311 21.5645 52.8125C21.5645 49.1939 18.6205 46.25 15.002 46.25ZM15.002 56.25C13.1065 56.25 11.5645 54.708 11.5645 52.8125C11.5645 50.917 13.1065 49.375 15.002 49.375C16.8974 49.375 18.4395 50.917 18.4395 52.8125C18.4395 54.708 16.8974 56.25 15.002 56.25Z" fill="white"/>
<path d="M65 46.25C61.3814 46.25 58.4375 49.1939 58.4375 52.8125C58.4375 56.4311 61.3814 59.375 65 59.375C68.6186 59.375 71.5625 56.4311 71.5625 52.8125C71.5625 49.1939 68.6186 46.25 65 46.25ZM65 56.25C63.1045 56.25 61.5625 54.708 61.5625 52.8125C61.5625 50.917 63.1045 49.375 65 49.375C66.8955 49.375 68.4375 50.917 68.4375 52.8125C68.4375 54.708 66.8955 56.25 65 56.25Z" fill="white"/>
<path d="M48.332 46.25C44.7134 46.25 41.7695 49.1939 41.7695 52.8125C41.7695 56.4311 44.7134 59.375 48.332 59.375C51.9506 59.375 54.8945 56.4311 54.8945 52.8125C54.8945 49.1939 51.9506 46.25 48.332 46.25ZM48.332 56.25C46.4366 56.25 44.8945 54.708 44.8945 52.8125C44.8945 50.917 46.4366 49.375 48.332 49.375C50.2275 49.375 51.7695 50.917 51.7695 52.8125C51.7695 54.708 50.2275 56.25 48.332 56.25Z" fill="white"/>
<path d="M31.666 46.25C28.0474 46.25 25.1035 49.1939 25.1035 52.8125C25.1035 56.4311 28.0474 59.375 31.666 59.375C35.2846 59.375 38.2285 56.4311 38.2285 52.8125C38.2285 49.1939 35.2846 46.25 31.666 46.25ZM31.666 56.25C29.7705 56.25 28.2285 54.708 28.2285 52.8125C28.2285 50.917 29.7705 49.375 31.666 49.375C33.5615 49.375 35.1035 50.917 35.1035 52.8125C35.1035 54.708 33.5615 56.25 31.666 56.25Z" fill="white"/>
<path d="M15.002 28.4375C11.3834 28.4375 8.43945 31.3814 8.43945 35C8.43945 38.6186 11.3834 41.5625 15.002 41.5625C18.6205 41.5625 21.5645 38.6186 21.5645 35C21.5645 31.3814 18.6205 28.4375 15.002 28.4375ZM15.002 38.4375C13.1065 38.4375 11.5645 36.8955 11.5645 35C11.5645 33.1045 13.1065 31.5625 15.002 31.5625C16.8974 31.5625 18.4395 33.1045 18.4395 35C18.4395 36.8955 16.8974 38.4375 15.002 38.4375Z" fill="white"/>
<path d="M65 28.4375C61.3814 28.4375 58.4375 31.3814 58.4375 35C58.4375 38.6186 61.3814 41.5625 65 41.5625C68.6186 41.5625 71.5625 38.6186 71.5625 35C71.5625 31.3814 68.6186 28.4375 65 28.4375ZM65 38.4375C63.1045 38.4375 61.5625 36.8955 61.5625 35C61.5625 33.1045 63.1045 31.5625 65 31.5625C66.8955 31.5625 68.4375 33.1045 68.4375 35C68.4375 36.8955 66.8955 38.4375 65 38.4375Z" fill="white"/>
<path d="M48.332 28.4375C44.7134 28.4375 41.7695 31.3814 41.7695 35C41.7695 38.6186 44.7134 41.5625 48.332 41.5625C51.9506 41.5625 54.8945 38.6186 54.8945 35C54.8945 31.3814 51.9506 28.4375 48.332 28.4375ZM48.332 38.4375C46.4366 38.4375 44.8945 36.8955 44.8945 35C44.8945 33.1045 46.4366 31.5625 48.332 31.5625C50.2275 31.5625 51.7695 33.1045 51.7695 35C51.7695 36.8955 50.2275 38.4375 48.332 38.4375Z" fill="white"/>
<path d="M31.666 28.5938C28.0474 28.5938 25.1035 31.5377 25.1035 35.1562C25.1035 38.7748 28.0474 41.7188 31.666 41.7188C35.2846 41.7188 38.2285 38.7748 38.2285 35.1562C38.2285 31.5377 35.2846 28.5938 31.666 28.5938ZM31.666 38.5938C29.7705 38.5938 28.2285 37.0517 28.2285 35.1562C28.2285 33.2608 29.7705 31.7188 31.666 31.7188C33.5615 31.7188 35.1035 33.2608 35.1035 35.1562C35.1035 37.0517 33.5615 38.5938 31.666 38.5938Z" fill="white"/>
<path d="M72.5108 18.8953C72.2203 18.6047 71.8172 18.4375 71.4062 18.4375C70.9953 18.4375 70.5922 18.6045 70.3016 18.8953C70.0109 19.1861 69.8438 19.5891 69.8438 20C69.8438 20.4109 70.0108 20.8141 70.3016 21.1045C70.5922 21.3952 70.9953 21.5625 71.4062 21.5625C71.8172 21.5625 72.2203 21.3953 72.5108 21.1045C72.8016 20.8141 72.9688 20.4109 72.9688 20C72.9688 19.5891 72.8016 19.1859 72.5108 18.8953Z" fill="white"/>
</svg>
