<svg width="34" height="80" viewBox="0 0 34 80" fill="none" xmlns="http://www.w3.org/2000/svg">
<path d="M31.5815 36.5112C31.1708 36.5112 30.7692 36.6766 30.4774 36.969C30.1869 37.2595 30.019 37.6611 30.019 38.0737C30.019 38.4845 30.1863 38.8873 30.4774 39.1779C30.7679 39.469 31.1708 39.6362 31.5815 39.6362C31.9948 39.6362 32.3958 39.469 32.6863 39.1779C32.9786 38.8873 33.144 38.4845 33.144 38.0737C33.144 37.6611 32.9786 37.2595 32.6863 36.969C32.3958 36.6766 31.9941 36.5112 31.5815 36.5112Z" fill="white"/>
<path d="M33.1445 16.5723C33.1445 7.43408 25.7104 0 16.5723 0C7.43408 0 0 7.43408 0 16.5723V63.4277C0 72.5659 7.43408 80 16.5723 80C25.7104 80 33.1445 72.5659 33.1445 63.4277V43.9062C33.1445 43.0432 32.4451 42.3438 31.582 42.3438C30.7196 42.3438 30.0195 43.0432 30.0195 43.9062V63.4277C30.0195 70.8429 23.9874 76.875 16.5723 76.875C9.15771 76.875 3.125 70.8429 3.125 63.4277V16.5723C3.125 9.15771 9.15771 3.125 16.5723 3.125C23.9874 3.125 30.0195 9.15771 30.0195 16.5723V31.4062C30.0195 32.2693 30.7196 32.9688 31.582 32.9688C32.4451 32.9688 33.1445 32.2693 33.1445 31.4062V16.5723Z" fill="white"/>
<path d="M16.5723 71.7981C20.8801 71.7981 24.3848 68.2935 24.3848 63.9856C24.3848 61.521 23.2074 59.2029 21.2598 57.738V11.0938C21.2598 8.50891 19.1571 6.40625 16.5723 6.40625C13.9874 6.40625 11.8848 8.50891 11.8848 11.0938V57.7374C9.93713 59.2029 8.75977 61.5204 8.75977 63.9856C8.75977 68.2935 12.2644 71.7981 16.5723 71.7981ZM16.5723 9.53125C17.4341 9.53125 18.1348 10.2319 18.1348 11.0938V32.1356H15.0098V11.0938C15.0098 10.2319 15.7111 9.53125 16.5723 9.53125ZM14.2297 59.9261C14.7125 59.6466 15.0098 59.1315 15.0098 58.5736V35.2606H18.1348V58.5736C18.1348 59.1315 18.432 59.6466 18.9148 59.9261C20.3613 60.7635 21.2598 62.3187 21.2598 63.9856C21.2598 66.5704 19.1571 68.6731 16.5723 68.6731C13.9874 68.6731 11.8848 66.5704 11.8848 63.9856C11.8848 62.3187 12.7832 60.7635 14.2297 59.9261Z" fill="white"/>
<path d="M26.5723 54.0106C27.4353 54.0106 28.1348 53.3105 28.1348 52.4481C28.1348 51.5851 27.4353 50.8856 26.5723 50.8856H24.541C23.678 50.8856 22.9785 51.5851 22.9785 52.4481C22.9785 53.3105 23.678 54.0106 24.541 54.0106H26.5723Z" fill="white"/>
<path d="M26.5723 41.5106H24.541C23.678 41.5106 22.9785 42.2101 22.9785 43.0731C22.9785 43.9355 23.678 44.6356 24.541 44.6356H26.5723C27.4353 44.6356 28.1348 43.9355 28.1348 43.0731C28.1348 42.2101 27.4353 41.5106 26.5723 41.5106Z" fill="white"/>
<path d="M26.5723 32.1356H24.541C23.678 32.1356 22.9785 32.8351 22.9785 33.6981C22.9785 34.5612 23.678 35.2606 24.541 35.2606H26.5723C27.4353 35.2606 28.1348 34.5612 28.1348 33.6981C28.1348 32.8351 27.4353 32.1356 26.5723 32.1356Z" fill="white"/>
<path d="M26.5723 22.7606H24.541C23.678 22.7606 22.9785 23.4601 22.9785 24.3231C22.9785 25.1862 23.678 25.8856 24.541 25.8856H26.5723C27.4353 25.8856 28.1348 25.1862 28.1348 24.3231C28.1348 23.4601 27.4353 22.7606 26.5723 22.7606Z" fill="white"/>
<path d="M26.5723 13.3856H24.541C23.678 13.3856 22.9785 14.0851 22.9785 14.9481C22.9785 15.8112 23.678 16.5106 24.541 16.5106H26.5723C27.4353 16.5106 28.1348 15.8112 28.1348 14.9481C28.1348 14.0851 27.4353 13.3856 26.5723 13.3856Z" fill="white"/>
<path d="M6.57227 54.0106H8.60352C9.46655 54.0106 10.166 53.3105 10.166 52.4481C10.166 51.5851 9.46655 50.8856 8.60352 50.8856H6.57227C5.70923 50.8856 5.00977 51.5851 5.00977 52.4481C5.00977 53.3105 5.70923 54.0106 6.57227 54.0106Z" fill="white"/>
<path d="M6.57227 44.6356H8.60352C9.46655 44.6356 10.166 43.9355 10.166 43.0731C10.166 42.2101 9.46655 41.5106 8.60352 41.5106H6.57227C5.70923 41.5106 5.00977 42.2101 5.00977 43.0731C5.00977 43.9355 5.70923 44.6356 6.57227 44.6356Z" fill="white"/>
<path d="M6.57227 35.2606H8.60352C9.46655 35.2606 10.166 34.5612 10.166 33.6981C10.166 32.8351 9.46655 32.1356 8.60352 32.1356H6.57227C5.70923 32.1356 5.00977 32.8351 5.00977 33.6981C5.00977 34.5612 5.70923 35.2606 6.57227 35.2606Z" fill="white"/>
<path d="M6.57227 25.8856H8.60352C9.46655 25.8856 10.166 25.1862 10.166 24.3231C10.166 23.4601 9.46655 22.7606 8.60352 22.7606H6.57227C5.70923 22.7606 5.00977 23.4601 5.00977 24.3231C5.00977 25.1862 5.70923 25.8856 6.57227 25.8856Z" fill="white"/>
<path d="M6.57227 16.5106H8.60352C9.46655 16.5106 10.166 15.8112 10.166 14.9481C10.166 14.0851 9.46655 13.3856 8.60352 13.3856H6.57227C5.70923 13.3856 5.00977 14.0851 5.00977 14.9481C5.00977 15.8112 5.70923 16.5106 6.57227 16.5106Z" fill="white"/>
</svg>
