<svg width="15" height="15" viewBox="0 0 15 15" fill="none" xmlns="http://www.w3.org/2000/svg">
<path d="M14.8221 13.9662L1.03432 0.178445C0.797725 -0.0581795 0.414063 -0.0581795 0.177468 0.178445C-0.0591561 0.41504 -0.0591561 0.798672 0.177468 1.0353L13.9653 14.8231C14.0836 14.9414 14.2386 15.0006 14.3937 15.0006C14.5488 15.0006 14.7039 14.9414 14.8221 14.8231C15.0587 14.5865 15.0587 14.2028 14.8221 13.9662Z" fill="#D0965A"/>
<path d="M14.8221 0.177468C14.5855 -0.0591561 14.2019 -0.0591561 13.9653 0.177468L0.177468 13.9652C-0.0591561 14.2019 -0.0591561 14.5855 0.177468 14.8221C0.295766 14.9405 0.450859 14.9996 0.605923 14.9996C0.760988 14.9996 0.916052 14.9404 1.03438 14.8221L14.8221 1.03432C15.0587 0.797725 15.0587 0.414093 14.8221 0.177468Z" fill="#D0965A"/>
</svg>
