<svg width="80" height="80" viewBox="0 0 80 80" fill="none" xmlns="http://www.w3.org/2000/svg">
<path d="M79.325 45.1239C75.4114 42.4243 70.7928 41.1676 66.2189 41.3727V38.089H67.2943C68.8751 38.089 70.3516 37.3071 71.2451 35.9973C72.146 34.6771 72.3352 32.9999 71.7517 31.5112L69.1132 24.7772C68.3875 22.9242 66.6376 21.7267 64.6564 21.7267C62.6746 21.7267 60.9247 22.9242 60.199 24.7772L58.1592 29.9829L57.3749 27.9816C56.6492 26.1285 54.8993 24.931 52.9181 24.931C50.9363 24.931 49.187 26.1285 48.4607 27.9816L45.8228 34.7156C45.2393 36.2048 45.4285 37.8815 46.3293 39.2017C47.2223 40.5115 48.6993 41.2933 50.2795 41.2933H51.3556V47.3108L45.7233 50.7159L38.6224 46.4673C34.5966 44.0582 29.812 43.0322 25.1514 43.5791C23.2275 43.8049 21.3385 44.2938 19.5361 45.0336C18.7134 45.3705 17.9132 45.7574 17.157 46.1829L14.1406 47.8815V42.8497C14.5001 42.923 14.8688 42.962 15.2441 42.962C15.3674 42.962 15.4913 42.9584 15.6158 42.9498C18.2928 42.7747 20.4803 40.6281 20.7043 37.9565C20.8679 36.0077 19.9744 34.1052 18.3722 32.9913C17.9614 32.7057 17.7228 32.1991 17.7496 31.6687C17.7551 31.5619 17.757 31.4545 17.7557 31.344C17.7228 28.49 15.3705 26.1993 12.5177 26.2274C9.69604 26.2598 7.40051 28.5828 7.40051 31.405C7.40051 31.4783 7.40173 31.5509 7.40479 31.6223C7.42859 32.193 7.19666 32.7051 6.78345 32.9919C5.18188 34.1058 4.28833 36.0083 4.4519 37.9565C4.6759 40.6281 6.86401 42.7747 9.54041 42.9498C10.0433 42.9828 10.5377 42.9462 11.0156 42.8479V49.6405L0.795898 55.3943C0.303955 55.6714 0 56.1914 0 56.756V78.4375C0 79.3005 0.699463 80 1.5625 80H25.5347H78.4375C79.3005 80 80 79.3005 80 78.4375V46.4099C80 45.896 79.7473 45.4156 79.325 45.1239ZM9.74487 39.8315C8.59863 39.7559 7.66174 38.8379 7.56592 37.6947C7.49451 36.842 7.86865 36.0431 8.5675 35.5573C9.86267 34.6564 10.5957 33.1366 10.5273 31.4911C10.5261 31.4624 10.5255 31.4331 10.5255 31.4044C10.5255 30.285 11.4349 29.3646 12.5537 29.3518C12.561 29.3518 12.569 29.3512 12.5763 29.3512C13.6798 29.3512 14.6179 30.2753 14.6307 31.377C14.6313 31.4221 14.6307 31.4661 14.6283 31.51V31.5106C14.5465 33.1342 15.2789 34.6466 16.5881 35.5566C17.2876 36.0431 17.6617 36.842 17.5903 37.6947C17.4945 38.8379 16.5576 39.7559 15.4114 39.8315C14.9597 39.8602 14.5251 39.7626 14.1406 39.5551V37.1143C14.1406 36.2518 13.4412 35.5518 12.5781 35.5518C11.7151 35.5518 11.0156 36.2518 11.0156 37.1143V39.5557C10.6323 39.7626 10.1978 39.8608 9.74487 39.8315ZM60.4706 32.6514L63.1085 25.9174C63.4961 24.9286 64.3909 24.8517 64.6564 24.8517C64.9213 24.8517 65.8167 24.9286 66.2036 25.9174L68.8422 32.6514C69.0515 33.1854 68.9862 33.7634 68.6633 34.2365C68.3478 34.6985 67.8491 34.964 67.2943 34.964H66.2189V31.3898C66.2189 30.5267 65.5188 29.8273 64.6564 29.8273C63.7933 29.8273 63.0939 30.5267 63.0939 31.3898V34.964H62.0178C61.463 34.964 60.9644 34.6985 60.6488 34.2365C60.3259 33.7634 60.2612 33.1854 60.4706 32.6514ZM50.2795 38.1683C49.7247 38.1683 49.2261 37.9028 48.9105 37.4402C48.5876 36.9678 48.5229 36.3898 48.7323 35.8557L51.3702 29.1211C51.7578 28.1329 52.6526 28.056 52.9181 28.056C53.183 28.056 54.0784 28.1329 54.4653 29.1211L57.1039 35.8551C57.3132 36.3898 57.2479 36.9672 56.925 37.4402C56.6095 37.9028 56.1108 38.1683 55.556 38.1683H54.48V34.5941C54.48 33.7311 53.7805 33.0316 52.9175 33.0316C52.0551 33.0316 51.355 33.7311 51.355 34.5941V38.1683H50.2795ZM54.4806 41.2933H55.556C57.1368 41.2933 58.6133 40.5115 59.5068 39.2017C59.8193 38.7433 60.0446 38.241 60.1831 37.7197C60.7568 37.959 61.3788 38.089 62.0178 38.089H63.0939V41.7456C60.6714 42.2162 58.3099 43.1067 56.1267 44.4263L54.4806 45.4218V41.2933ZM57.7435 47.1008C63.6444 43.5327 71.0669 43.6151 76.875 47.2522V69.3573L71.5106 66.1475C71.51 66.1469 71.5094 66.1462 71.5088 66.1462L59.8529 59.1711L48.7585 52.5323L57.7435 47.1008ZM25.5286 58.7372C24.6655 58.7372 23.9661 59.4366 23.9661 60.2997V66.5906C21.1438 65.8899 19.046 63.3356 19.046 60.2997C19.046 56.7255 21.9537 53.8171 25.5286 53.8171C29.1028 53.8171 32.0111 56.7255 32.0111 60.2997C32.0111 63.3356 29.9127 65.8899 27.0911 66.5906V60.2997C27.0911 59.4366 26.391 58.7372 25.5286 58.7372ZM37.937 76.875L43.1824 73.6829C43.9197 73.2343 44.1541 72.2729 43.7054 71.5356C43.6774 71.4899 43.6469 71.4459 43.6151 71.4038C43.4894 71.2378 43.335 71.1029 43.1635 71.0022C43.1427 70.99 43.1207 70.979 43.0994 70.968C43.0737 70.9546 43.0481 70.9399 43.0219 70.9277C42.5659 70.719 42.0184 70.733 41.5582 71.0132L31.9257 76.875H27.0911V69.7784C31.6479 69.0295 35.1361 65.0653 35.1361 60.3003C35.1361 55.0024 30.8258 50.6927 25.5286 50.6927C20.2307 50.6927 15.921 55.0024 15.921 60.3003C15.921 65.0653 19.4092 69.0295 23.9661 69.7784V76.875H17.1326L19.2603 74.7473C19.8706 74.1376 19.8706 73.1482 19.2603 72.5378C18.6499 71.9275 17.6611 71.9275 17.0502 72.5378L14.8456 74.7424L12.7704 72.6666C12.16 72.0569 11.1707 72.0569 10.5603 72.6666C9.94995 73.277 9.94995 74.2664 10.5603 74.8767L12.5586 76.875H3.125V57.6691L13.3209 51.9287C13.3228 51.9275 13.3246 51.9263 13.3264 51.9257L18.6902 48.9056C19.3341 48.5431 20.0177 48.2129 20.722 47.9242C22.2614 47.2925 23.8739 46.875 25.5157 46.6821C29.4952 46.2158 33.5803 47.0911 37.0178 49.1479L60.3619 63.1171C58.2886 63.1335 56.2146 63.4528 54.2334 64.0637C53.4088 64.3182 52.9462 65.1929 53.2007 66.0175C53.4546 66.842 54.3298 67.3041 55.1544 67.0502C56.3892 66.6693 57.652 66.424 58.9203 66.3123C59.3951 66.2701 59.8712 66.2469 60.3479 66.2421C63.6804 66.2091 66.9958 67.0868 69.906 68.8281C69.9066 68.8287 69.9066 68.8287 69.9072 68.8287L76.875 72.9987V76.875H37.937Z" fill="white"/>
<path d="M47.4321 11.0449C48.2952 11.0449 48.9946 10.3455 48.9946 9.48242C48.9946 7.38525 50.7012 5.67871 52.7983 5.67871C53.5326 5.67871 54.2461 5.88928 54.8607 6.28723C55.5687 6.74561 56.5129 6.55945 56.9939 5.86609C58.1841 4.14978 60.1384 3.125 62.2216 3.125C65.1879 3.125 67.6866 5.16785 68.3849 7.91992H56.4232C55.5608 7.91992 54.8607 8.61938 54.8607 9.48242C54.8607 10.3455 55.5608 11.0449 56.4232 11.0449H70.1415C71.0045 11.0449 71.704 10.3455 71.704 9.48242C71.704 4.25415 67.4504 0 62.2216 0C59.5751 0 57.069 1.10779 55.288 3.01636C54.4982 2.71179 53.6565 2.55432 52.7983 2.55432C48.9781 2.55432 45.8696 5.66223 45.8696 9.48303C45.8696 10.3455 46.5691 11.0449 47.4321 11.0449Z" fill="white"/>
<path d="M10.3615 18.4955H18.6C19.463 18.4955 20.1625 17.796 20.1625 16.933C20.1625 16.0706 19.463 15.3705 18.6 15.3705H12.1077C12.8132 12.4304 15.4628 10.2386 18.6146 10.2386C21.2385 10.2386 23.6323 11.7859 24.7145 14.1797C24.9452 14.6906 25.4329 15.0391 25.9913 15.0916C26.5492 15.1434 27.0942 14.8932 27.4165 14.4342C28.1477 13.3936 29.3409 12.7722 30.6086 12.7722C32.6851 12.7722 34.5063 14.7168 34.5063 16.933C34.5063 17.796 35.2064 18.4955 36.0688 18.4955H40.0807C40.9431 18.4955 41.6432 17.796 41.6432 16.933C41.6432 16.0699 40.9431 15.3705 40.0807 15.3705H37.4617C36.75 12.1423 33.9003 9.64722 30.6086 9.64722C29.0944 9.64722 27.6393 10.1392 26.4473 11.0156C24.615 8.59497 21.725 7.11365 18.6146 7.11365C13.202 7.11365 8.79834 11.5186 8.79834 16.933C8.79895 17.796 9.49841 18.4955 10.3615 18.4955Z" fill="white"/>
<path d="M49.9298 68.0286C49.6778 67.4231 49.0589 67.03 48.4027 67.0654C47.7539 67.1008 47.1814 67.5507 46.9922 68.172C46.8024 68.7952 47.0319 69.4953 47.5574 69.881C48.0707 70.2582 48.7696 70.2869 49.3122 69.9524C49.9536 69.5575 50.2192 68.7232 49.9298 68.0286Z" fill="white"/>
</svg>
