<svg width="30" height="30" viewBox="0 0 30 30" fill="none" xmlns="http://www.w3.org/2000/svg">
<path d="M4.98451 26.6561C4.87558 26.547 4.72441 26.4844 4.57031 26.4844C4.41621 26.4844 4.26504 26.547 4.15605 26.6561C4.04707 26.7651 3.98438 26.9162 3.98438 27.0703C3.98438 27.2244 4.04701 27.3756 4.15605 27.4845C4.26504 27.5935 4.41621 27.6562 4.57031 27.6562C4.72441 27.6562 4.87558 27.5936 4.98451 27.4845C5.09349 27.3756 5.15625 27.2244 5.15625 27.0703C5.15625 26.9162 5.09355 26.765 4.98451 26.6561Z" fill="white"/>
<path d="M27.51 10.719C27.401 10.61 27.2504 10.5474 27.0957 10.5474C26.9416 10.5474 26.7904 10.61 26.6814 10.719C26.5725 10.828 26.5098 10.9792 26.5098 11.1333C26.5098 11.2874 26.5725 11.4386 26.6814 11.5475C26.7904 11.6565 26.9416 11.7192 27.0957 11.7192C27.2504 11.7192 27.401 11.6565 27.51 11.5475C27.6195 11.4386 27.6822 11.2874 27.6822 11.1333C27.6822 10.9792 27.6195 10.828 27.51 10.719Z" fill="white"/>
<path d="M29.8276 0.171621C29.7176 0.0617577 29.5686 0 29.4131 0L14.9994 0.000761717C14.6759 0.000761717 14.4136 0.263144 14.4136 0.586698V2.2623L8.85953 3.75052C8.54694 3.83431 8.36143 4.15558 8.44522 4.46812L11.3237 15.2108L8.83358 17.701C8.51664 17.2382 7.9845 16.9339 7.38256 16.9339H1.75775C0.788495 16.9339 0 17.7224 0 18.6916V28.2421C0 29.2114 0.788495 29.9999 1.75775 29.9999H7.38262C8.20604 29.9999 8.89873 29.4306 9.08858 28.6652L9.78525 29.2727C10.3231 29.7417 11.0121 30 11.7258 30H29.4132C29.7368 30 29.9992 29.7376 29.9992 29.4141V0.585936C29.9991 0.430546 29.9374 0.281484 29.8276 0.171621ZM7.96844 28.2422C7.96844 28.5652 7.70559 28.8281 7.3825 28.8281H1.75769C1.43461 28.8281 1.17176 28.5653 1.17176 28.2422V18.6917C1.17176 18.3686 1.43461 18.1057 1.75769 18.1057H3.98419V24.8554C3.98419 25.179 4.24657 25.4414 4.57013 25.4414C4.89368 25.4414 5.15606 25.179 5.15606 24.8554V18.1057H7.38256C7.70565 18.1057 7.9685 18.3686 7.9685 18.6917V28.2422H7.96844ZM9.72877 4.73079L14.4136 3.47548V5.64667L14.0209 5.7519C13.8707 5.79216 13.7428 5.8903 13.6651 6.02489C13.5874 6.15948 13.5663 6.31938 13.6066 6.4695C13.8317 7.30979 13.3313 8.17657 12.491 8.40174C12.3407 8.44205 12.2126 8.54037 12.1349 8.67526C12.0573 8.81008 12.0364 8.97028 12.077 9.12051L14.3609 17.5778H13.1849L12.5789 15.2069C12.5596 15.1314 12.5259 15.0618 12.4807 15.0014L9.72877 4.73079ZM14.4136 8.33371V13.2779L13.3449 9.32078C13.7913 9.09028 14.1566 8.74539 14.4136 8.33371ZM22.8314 28.8281H11.7256C11.2953 28.8281 10.8797 28.6723 10.5553 28.3895L9.14031 27.1555V19.0515L11.6984 16.4935L12.1623 18.3087C12.2287 18.5681 12.4623 18.7495 12.73 18.7495L24.2497 18.7502C24.7021 18.7502 25.07 19.1182 25.07 19.5705C25.07 20.0229 24.7021 20.3908 24.2497 20.3908H18.347C18.0235 20.3908 17.7611 20.6532 17.7611 20.9768C17.7611 21.3003 18.0235 21.5627 18.347 21.5627H26.0837C26.5361 21.5627 26.904 21.9307 26.904 22.383C26.904 22.8353 26.5361 23.2033 26.0837 23.2033H18.347C18.0235 23.2033 17.7611 23.4657 17.7611 23.7893C17.7611 24.1128 18.0235 24.3752 18.347 24.3752H24.83C25.2823 24.3752 25.6503 24.7432 25.6503 25.1955C25.6503 25.6478 25.2823 26.0158 24.83 26.0158H18.347C18.0235 26.0158 17.7611 26.2782 17.7611 26.6017C17.7611 26.9253 18.0235 27.1877 18.347 27.1877H22.8314C23.2837 27.1877 23.6517 27.5557 23.6517 28.008C23.6516 28.4601 23.2836 28.8281 22.8314 28.8281ZM28.8273 28.8281H28.8273H24.6461C24.7597 28.5777 24.8235 28.3001 24.8235 28.0078C24.8235 27.7154 24.7597 27.4378 24.6461 27.1874H24.83C25.9284 27.1874 26.8221 26.2938 26.8221 25.1953C26.8221 24.8749 26.7457 24.5722 26.6107 24.3037C27.4542 24.072 28.0758 23.2989 28.0758 22.3829C28.0758 21.9385 27.9294 21.5277 27.6826 21.1961V13.7699C27.6826 13.4464 27.4202 13.184 27.0966 13.184C26.7731 13.184 26.5107 13.4464 26.5107 13.7699V20.4374C26.373 20.4072 26.2302 20.3908 26.0836 20.3908H26.0644C26.178 20.1404 26.2418 19.8629 26.2418 19.5705C26.2418 18.472 25.3481 17.5784 24.2497 17.5784H23.3078C24.3079 17.1495 25.0103 16.1554 25.0103 15C25.0103 13.4537 23.7525 12.1958 22.2062 12.1958C20.6601 12.1958 19.4021 13.4537 19.4021 15C19.4021 16.1554 20.1046 17.1495 21.1047 17.5784H17.9018V6.43727C18.9485 6.20917 19.7744 5.38329 20.0025 4.33652H24.4099C24.638 5.38329 25.4639 6.20917 26.5106 6.43727V8.25895C26.5106 8.5825 26.773 8.84489 27.0966 8.84489C27.4201 8.84489 27.6825 8.5825 27.6825 8.25895V5.91415C27.6825 5.59059 27.4201 5.32821 27.0966 5.32821C26.2266 5.32821 25.519 4.62046 25.519 3.75058C25.519 3.42702 25.2566 3.16464 24.9331 3.16464H19.4794C19.1558 3.16464 18.8935 3.42702 18.8935 3.75058C18.8935 4.62052 18.1858 5.32821 17.3159 5.32821C16.9923 5.32821 16.7299 5.59059 16.7299 5.91415V17.5783H15.5855V1.17252L28.8273 1.17187V28.8281ZM22.2063 16.6323C21.3063 16.6323 20.5741 15.9 20.5741 15C20.5741 14.1 21.3063 13.3677 22.2063 13.3677C23.1063 13.3677 23.8386 14.1 23.8386 15C23.8386 15.9 23.1064 16.6323 22.2063 16.6323Z" fill="white"/>
</svg>
