<svg width="74" height="80" viewBox="0 0 74 80" fill="none" xmlns="http://www.w3.org/2000/svg">
<path d="M64.834 70.6152H61.2317V64.5575C69.1901 57.5494 73.75 47.4823 73.75 36.875C73.75 27.0251 69.9146 17.7649 62.9498 10.8002C55.9851 3.83545 46.7249 0 36.875 0C27.0251 0 17.7649 3.83545 10.8002 10.8002C3.83545 17.7649 0 27.0251 0 36.875C0 47.4774 4.56055 57.5513 12.5183 64.5581V70.6152H8.91602C4.60266 70.6152 1.09375 74.1241 1.09375 78.4375C1.09375 79.3005 1.79321 80 2.65625 80H71.0938C71.9568 80 72.6562 79.3005 72.6562 78.4375C72.6562 74.1241 69.1473 70.6152 64.834 70.6152ZM19.2633 56.7651C19.2438 56.7468 19.2261 56.7273 19.2059 56.709C13.5541 51.6699 10.3125 44.4409 10.3125 36.875C10.3125 34.5538 10.6128 32.3016 11.1749 30.1544C11.1884 30.1544 11.2012 30.1562 11.2146 30.1562H25.0354C25.8978 30.1562 26.5979 29.4568 26.5979 28.5938C26.5979 27.7307 25.8978 27.0312 25.0354 27.0312H12.2046C12.8967 25.3027 13.7653 23.6633 14.7882 22.1356H19.8792C20.7416 22.1356 21.4417 21.4362 21.4417 20.5731C21.4417 19.7101 20.7416 19.0106 19.8792 19.0106H17.2339C22.0959 13.6694 29.101 10.3125 36.875 10.3125C45.6775 10.3125 53.4924 14.6179 58.3282 21.2317H49.8438C48.9807 21.2317 48.2812 21.9312 48.2812 22.7942C48.2812 23.6572 48.9807 24.3567 49.8438 24.3567H60.2966C62.2998 28.089 63.4375 32.3511 63.4375 36.875C63.4375 37.4042 63.4198 37.9321 63.3887 38.4576H51.875C51.012 38.4576 50.3125 39.1571 50.3125 40.0201C50.3125 40.8826 51.012 41.5826 51.875 41.5826H63.0139C61.969 47.37 59.0198 52.7081 54.5709 56.6852C54.5422 56.7108 54.516 56.7377 54.4904 56.7651C52.522 57.0331 50.8582 58.2678 49.9945 59.975C46.015 62.2394 41.4832 63.4375 36.875 63.4375C32.3291 63.4375 27.8436 62.2699 23.9044 60.061C23.858 60.0354 23.8116 60.0122 23.7646 59.9915C22.9034 58.277 21.2366 57.0349 19.2633 56.7651ZM56.7224 14.8175C51.8219 10.4028 45.448 7.59399 38.4375 7.22839V3.16223C46.5674 3.53455 53.9563 6.79565 59.5978 11.9421L56.7224 14.8175ZM35.3125 7.22839C28.302 7.59399 21.9281 10.4028 17.0276 14.8175L14.1522 11.9421C19.7937 6.79565 27.1826 3.53455 35.3125 3.16223V7.22839ZM35.3125 66.5179V70.5884C31.5442 70.4181 27.8809 69.6307 24.3933 68.2404V63.8135C27.8143 65.3973 31.5289 66.3184 35.3125 66.5179ZM49.3567 68.241C45.8698 69.6307 42.2076 70.4181 38.4375 70.5878V66.5173C42.2241 66.3184 45.9344 65.3986 49.3567 63.8135V68.241ZM52.4817 69.2847C52.4817 69.2761 52.4817 69.2676 52.4817 69.2584V62.6465C52.4817 61.0956 53.7433 59.834 55.2942 59.834C56.8451 59.834 58.1067 61.0956 58.1067 62.6465V70.6152H52.4817V69.2847ZM60.8704 60.6067C60.3851 59.2841 59.4415 58.1824 58.2336 57.4908C63.1897 52.3517 66.1432 45.5762 66.521 38.4375H70.5865C70.2002 46.7883 66.7346 54.6771 60.8704 60.6067ZM70.5878 35.3125H66.5216C66.156 28.302 63.3472 21.9281 58.9325 17.0276L61.8079 14.1522C66.9543 19.7937 70.2155 27.1826 70.5878 35.3125ZM11.9421 14.1522L14.8175 17.0276C10.4028 21.9281 7.59399 28.302 7.22839 35.3125H3.16223C3.53455 27.1826 6.79565 19.7937 11.9421 14.1522ZM3.16345 38.4375H7.229C7.6062 45.5774 10.5591 52.3517 15.5157 57.4908C14.3085 58.1824 13.3649 59.2841 12.8796 60.6061C7.01721 54.6765 3.5498 46.7847 3.16345 38.4375ZM15.6433 62.6465C15.6433 61.0956 16.9049 59.834 18.4558 59.834C20.0067 59.834 21.2683 61.0956 21.2683 62.6465V70.6152H15.6433V62.6465ZM4.48608 76.875C5.13123 75.0507 6.87317 73.7402 8.91602 73.7402H64.834C66.8768 73.7402 68.6188 75.0507 69.2639 76.875H4.48608Z" fill="white"/>
<path d="M25.1349 46.145L32.1875 45.3259V52.6666C32.1875 53.5297 32.887 54.2291 33.75 54.2291H40C40.863 54.2291 41.5625 53.5297 41.5625 52.6666V44.6173C41.5625 44.5099 41.5515 44.4043 41.5308 44.303C42.1893 43.3728 42.5781 42.2388 42.5781 41.0156C42.5781 37.8705 40.0195 35.3125 36.875 35.3125C35.3967 35.3125 34.0485 35.8777 33.0347 36.803L25.1349 35.8856C23.6731 35.7159 22.204 36.1798 21.1047 37.1588C20.0055 38.1378 19.375 39.5435 19.375 41.0156C19.375 42.4878 20.0055 43.8934 21.1047 44.8724C22.0544 45.7184 23.2806 46.1798 24.5404 46.1798C24.7382 46.1798 24.9365 46.1682 25.1349 46.145ZM35.3125 51.1041V46.4996C35.8093 46.6412 36.333 46.7188 36.875 46.7188C37.417 46.7188 37.9407 46.6412 38.4375 46.4996V51.1041H35.3125ZM39.4531 41.0156C39.4531 42.4371 38.2965 43.5938 36.875 43.5938C35.4535 43.5938 34.2969 42.4371 34.2969 41.0156C34.2969 39.5941 35.4535 38.4375 36.875 38.4375C38.2965 38.4375 39.4531 39.5941 39.4531 41.0156ZM22.5 41.0156C22.5 40.426 22.7423 39.8853 23.183 39.4928C23.6237 39.1003 24.1882 38.9221 24.7742 38.9899L31.3153 39.7498C31.2225 40.1575 31.1719 40.5804 31.1719 41.0156C31.1719 41.4508 31.2225 41.8744 31.3153 42.2815L24.7742 43.0414C24.1882 43.1091 23.6237 42.9309 23.183 42.5385C22.7423 42.146 22.5 41.6052 22.5 41.0156Z" fill="white"/>
<path d="M41.0156 33.1134H55.1953C56.0583 33.1134 56.7578 32.4133 56.7578 31.5509C56.7578 30.6879 56.0583 29.9884 55.1953 29.9884H41.0156C40.1526 29.9884 39.4531 30.6879 39.4531 31.5509C39.4531 32.4133 40.1526 33.1134 41.0156 33.1134Z" fill="white"/>
<path d="M43.3403 24.3561C43.7517 24.3561 44.1545 24.1888 44.4451 23.8983C44.7356 23.6078 44.9028 23.205 44.9028 22.7936C44.9028 22.3828 44.7356 21.98 44.4451 21.6888C44.1545 21.3983 43.7517 21.2311 43.3403 21.2311C42.9296 21.2311 42.5267 21.3983 42.2356 21.6888C41.9451 21.98 41.7778 22.3828 41.7778 22.7936C41.7778 23.205 41.9451 23.6078 42.2356 23.8983C42.5267 24.1888 42.9296 24.3561 43.3403 24.3561Z" fill="white"/>
</svg>
