<svg width="25" height="15" viewBox="0 0 25 15" fill="none" xmlns="http://www.w3.org/2000/svg">
<path d="M24.8674 12.8816C24.8371 12.8164 24.8089 12.7622 24.7827 12.7189C24.349 11.9377 23.5201 10.9788 22.2966 9.84203L22.2707 9.81599L22.2578 9.80323L22.2447 9.79014H22.2316C21.6763 9.26079 21.3246 8.90487 21.1774 8.72264C20.9079 8.37551 20.8476 8.02415 20.9948 7.66813C21.0989 7.39915 21.4897 6.83109 22.1663 5.96318C22.5222 5.50322 22.8041 5.13457 23.0123 4.85684C24.5136 2.86088 25.1645 1.58544 24.9648 1.03001L24.8873 0.900214C24.8352 0.822072 24.7007 0.750586 24.484 0.685391C24.2668 0.620333 23.9892 0.609574 23.6507 0.652931L19.9021 0.678826C19.8413 0.657307 19.7546 0.659313 19.6416 0.685391C19.5288 0.711469 19.4724 0.724554 19.4724 0.724554L19.4071 0.757151L19.3553 0.796313C19.3119 0.822208 19.2642 0.867754 19.2121 0.932857C19.1602 0.997732 19.1169 1.07387 19.0822 1.16063C18.6741 2.21062 18.2101 3.18685 17.6893 4.08927C17.3682 4.62738 17.0733 5.09372 16.804 5.48858C16.5351 5.88331 16.3095 6.17413 16.1274 6.36055C15.945 6.54715 15.7804 6.69664 15.6326 6.80957C15.4851 6.92254 15.3724 6.97028 15.2944 6.95282C15.2162 6.93535 15.1426 6.91803 15.0729 6.90071C14.9515 6.82256 14.8538 6.71629 14.7802 6.5818C14.7062 6.44731 14.6565 6.27803 14.6304 6.0741C14.6045 5.87004 14.5892 5.69452 14.5848 5.54694C14.5808 5.39955 14.5826 5.19106 14.5914 4.92208C14.6005 4.65295 14.6045 4.47087 14.6045 4.3754C14.6045 4.0456 14.611 3.68767 14.6239 3.30151C14.637 2.91536 14.6476 2.6094 14.6565 2.384C14.6653 2.15838 14.6694 1.91966 14.6694 1.668C14.6694 1.41634 14.6541 1.21898 14.6239 1.07574C14.5939 0.932674 14.548 0.793806 14.4875 0.659177C14.4267 0.524684 14.3376 0.420647 14.2207 0.34679C14.1036 0.273025 13.958 0.214486 13.7847 0.170993C13.3247 0.0669097 12.739 0.0106054 12.0273 0.00185206C10.4133 -0.0154723 9.37629 0.0887475 8.91637 0.314375C8.73415 0.409705 8.56925 0.539957 8.42181 0.704721C8.26557 0.8957 8.24378 0.999921 8.35657 1.01706C8.8773 1.09507 9.24595 1.28167 9.46291 1.57669L9.5411 1.73302C9.60192 1.84581 9.66264 2.04549 9.72342 2.3318C9.7841 2.61811 9.82326 2.93483 9.84049 3.28177C9.8838 3.91534 9.8838 4.45769 9.84049 4.90885C9.79705 5.3602 9.75601 5.71157 9.71685 5.96323C9.67769 6.21489 9.61915 6.41881 9.5411 6.57496C9.46291 6.73115 9.41089 6.82662 9.38482 6.86127C9.35878 6.89592 9.33708 6.91776 9.31985 6.92633C9.20706 6.96955 9.08975 6.99157 8.96835 6.99157C8.84676 6.99157 8.69932 6.93075 8.5258 6.80921C8.35233 6.68766 8.17229 6.52071 7.98569 6.30807C7.79908 6.09539 7.58864 5.79819 7.35426 5.41641C7.12006 5.03464 6.87706 4.58343 6.6254 4.06279L6.41719 3.6852C6.28703 3.4423 6.10923 3.08861 5.8836 2.62445C5.65783 2.16011 5.45828 1.71095 5.28481 1.27707C5.21547 1.09484 5.11129 0.956108 4.97247 0.860642L4.90732 0.821479C4.86401 0.78683 4.79449 0.750038 4.69911 0.710831C4.6036 0.671668 4.50394 0.643584 4.39972 0.626305L0.833213 0.652201C0.468762 0.652201 0.221479 0.734766 0.0912723 0.899667L0.0391623 0.977672C0.0131301 1.02112 0 1.09051 0 1.18602C0 1.28149 0.0260322 1.39866 0.0781422 1.53739C0.598786 2.76104 1.16498 3.94115 1.77671 5.0779C2.38844 6.21466 2.92003 7.13034 3.37115 7.82414C3.82236 8.51844 4.28228 9.17371 4.7509 9.78964C5.21953 10.4058 5.52972 10.8007 5.68149 10.9741C5.83345 11.1479 5.9528 11.2779 6.03956 11.3646L6.36503 11.677C6.57329 11.8853 6.87911 12.1347 7.28264 12.4254C7.68625 12.7162 8.13308 13.0025 8.62336 13.2847C9.11373 13.5665 9.68421 13.7965 10.3351 13.9744C10.9859 14.1524 11.6193 14.2238 12.2355 14.1894H13.7324C14.036 14.1631 14.266 14.0677 14.4223 13.9029L14.4741 13.8377C14.509 13.7859 14.5416 13.7054 14.5717 13.5971C14.6021 13.4887 14.6172 13.3692 14.6172 13.2392C14.6084 12.8661 14.6368 12.5299 14.7017 12.2306C14.7666 11.9313 14.8405 11.7057 14.9232 11.5537C15.0059 11.4019 15.0991 11.2738 15.2029 11.1699C15.307 11.0659 15.3811 11.0028 15.4246 10.9811C15.4678 10.9593 15.5023 10.9445 15.5284 10.9356C15.7366 10.8662 15.9817 10.9334 16.264 11.1375C16.5461 11.3414 16.8106 11.5932 17.0581 11.8925C17.3054 12.192 17.6026 12.528 17.9496 12.9011C18.2969 13.2743 18.6005 13.5517 18.8608 13.7342L19.121 13.8904C19.2948 13.9946 19.5204 14.0901 19.7982 14.1769C20.0754 14.2636 20.3183 14.2853 20.5269 14.2419L23.8589 14.19C24.1885 14.19 24.445 14.1354 24.6269 14.0271C24.8091 13.9186 24.9174 13.7991 24.9523 13.6692C24.9872 13.5391 24.989 13.3914 24.959 13.2264C24.9281 13.0618 24.8977 12.9467 24.8674 12.8816Z" fill="#D99A61"/>
</svg>
