<svg width="10" height="20" viewBox="0 0 10 20" fill="none" xmlns="http://www.w3.org/2000/svg">
<path d="M9.01448 7.00002H6.71077V5.00003C6.71077 3.96803 6.7913 3.31803 8.20918 3.31803H9.04132C9.57051 3.31803 10 2.87003 10 2.31803V1.06404C10 0.541036 9.61557 0.0940373 9.11514 0.0590374C8.53609 0.0180374 7.95609 -0.000962529 7.37513 3.74687e-05C4.77423 3.74687e-05 2.87604 1.65703 2.87604 4.69903V7.00002H0.958681C0.429489 7.00002 0 7.44802 0 8.00002V10C0 10.552 0.429489 11 0.958681 11L2.87604 10.999V19C2.87604 19.552 3.30553 20 3.83472 20H5.75209C6.28128 20 6.71077 19.552 6.71077 19V10.997L8.79494 10.996C9.28195 10.996 9.69131 10.615 9.74691 10.11L9.96645 8.11402C10.0326 7.52102 9.58777 7.00002 9.01448 7.00002Z" fill="white"/>
</svg>
