<svg width="25" height="25" viewBox="0 0 25 25" fill="none" xmlns="http://www.w3.org/2000/svg">
<path d="M18.7227 16.1833C18.2814 15.9246 17.739 15.93 17.2999 16.1909L15.076 17.5159C14.5781 17.8126 13.9564 17.7778 13.4999 17.4213C12.7108 16.805 11.4401 15.7681 10.3347 14.6626C9.22928 13.5572 8.19233 12.2866 7.57603 11.4974C7.21951 11.0409 7.18473 10.4192 7.48147 9.92137L8.80646 7.69747C9.06841 7.25834 9.07059 6.71161 8.81189 6.27031L5.54887 0.696443C5.23257 0.157317 4.60432 -0.107898 3.99671 0.0410138C3.4065 0.184491 2.6402 0.534488 1.83695 1.33883C-0.678247 3.85403 -2.01411 8.09638 7.44451 17.555C16.9031 27.0136 21.1444 25.6788 23.6607 23.1626C24.4661 22.3571 24.815 21.5897 24.9596 20.9984C25.1063 20.3919 24.8455 19.768 24.3074 19.4528C22.964 18.6669 20.0661 16.9702 18.7227 16.1833Z" fill="white"/>
</svg>
