<svg width="30" height="30" viewBox="0 0 30 30" fill="none" xmlns="http://www.w3.org/2000/svg">
<path d="M25.6066 4.39342C22.7735 1.56023 19.0066 0 15 0C10.9934 0 7.22654 1.56023 4.39336 4.39342C1.56029 7.22654 0 10.9934 0 15C0 19.0066 1.56029 22.7735 4.39336 25.6066C7.22654 28.4398 10.9934 30 15 30C19.0066 30 22.7735 28.4398 25.6066 25.6066C28.4397 22.7735 30 19.0066 30 15C30 10.9934 28.4397 7.22654 25.6066 4.39342ZM15 28.8281C7.37514 28.8281 1.17188 22.6249 1.17188 15C1.17188 7.37514 7.37514 1.17188 15 1.17188C22.6249 1.17188 28.8281 7.37514 28.8281 15C28.8281 22.6249 22.6249 28.8281 15 28.8281Z" fill="white"/>
<path d="M27.4266 12.595C26.6368 8.49077 23.8695 5.04628 20.024 3.38092C19.7271 3.25231 19.3821 3.38883 19.2535 3.68573C19.1249 3.98268 19.2614 4.32768 19.5583 4.45624C23.0481 5.96755 25.5593 9.09282 26.2759 12.8164C26.3298 13.0968 26.5753 13.2917 26.8507 13.2917C26.8873 13.2917 26.9246 13.2882 26.9619 13.281C27.2797 13.2199 27.4878 12.9127 27.4266 12.595Z" fill="white"/>
<path d="M17.7209 2.63698L17.7055 2.63364C17.3893 2.56544 17.0774 2.76665 17.0094 3.08306C16.9412 3.3994 17.1424 3.71106 17.4588 3.77921L17.4656 3.78073C17.5086 3.79034 17.5515 3.79491 17.5938 3.79491C17.8622 3.79491 18.1043 3.60929 18.1651 3.33647C18.2356 3.02059 18.0367 2.70747 17.7209 2.63698Z" fill="white"/>
<path d="M10.572 25.6003C7.01026 24.1109 4.44954 20.9645 3.72198 17.1838C3.66087 16.866 3.35407 16.6577 3.03591 16.7191C2.7181 16.7802 2.51009 17.0874 2.5712 17.4052C2.9656 19.4543 3.87597 21.3944 5.20411 23.0155C6.5169 24.6179 8.21677 25.8855 10.1199 26.6814C10.1937 26.7123 10.2704 26.7269 10.3457 26.7269C10.5749 26.7269 10.7925 26.5916 10.8865 26.3669C11.0113 26.0683 10.8705 25.7251 10.572 25.6003Z" fill="white"/>
<path d="M12.5423 26.2211L12.5061 26.2132C12.1905 26.143 11.8772 26.3421 11.807 26.658C11.7369 26.9739 11.936 27.2869 12.2519 27.3571L12.293 27.3661C12.335 27.3752 12.3769 27.3796 12.4182 27.3796C12.6878 27.3796 12.9305 27.1924 12.9902 26.9183C13.059 26.6021 12.8585 26.29 12.5423 26.2211Z" fill="white"/>
<path d="M26.917 17.0093C26.6012 16.9403 26.2887 17.1409 26.2198 17.4571C25.2414 21.9468 21.6941 25.409 17.1824 26.2771C16.8646 26.3382 16.6566 26.6455 16.7177 26.9632C16.7717 27.2436 17.0172 27.4385 17.2925 27.4385C17.3292 27.4385 17.3665 27.4351 17.4038 27.4279C19.8356 26.9599 22.0621 25.793 23.8427 24.0534C25.6206 22.3164 26.8385 20.1217 27.3648 17.7065C27.4336 17.3903 27.2332 17.0782 26.917 17.0093Z" fill="white"/>
<path d="M13.2817 3.0368C13.2205 2.71905 12.9134 2.51069 12.5956 2.57215C10.1638 3.04008 7.93725 4.20698 6.15665 5.94662C4.37879 7.68364 3.16086 9.87832 2.63463 12.2935C2.56579 12.6097 2.76624 12.9218 3.08241 12.9907C3.12442 12.9998 3.16643 13.0042 3.20774 13.0042C3.47733 13.0042 3.71997 12.8171 3.77967 12.5429C4.75801 8.05313 8.3054 4.59106 12.817 3.72287C13.1348 3.66176 13.3428 3.35455 13.2817 3.0368Z" fill="white"/>
<path d="M15 13.0078C13.9015 13.0078 13.0078 13.9015 13.0078 15C13.0078 16.0985 13.9015 16.9922 15 16.9922C16.0985 16.9922 16.9922 16.0985 16.9922 15C16.9922 13.9015 16.0985 13.0078 15 13.0078ZM15 15.8203C14.5477 15.8203 14.1797 15.4523 14.1797 15C14.1797 14.5477 14.5477 14.1797 15 14.1797C15.4523 14.1797 15.8203 14.5477 15.8203 15C15.8203 15.4523 15.4523 15.8203 15 15.8203Z" fill="white"/>
<path d="M15.0059 2.34375C14.6823 2.34375 14.4199 2.60607 14.4199 2.92969V4.24266C14.4199 4.56627 14.6823 4.82859 15.0059 4.82859C15.3295 4.82859 15.5918 4.56627 15.5918 4.24266V2.92969C15.5918 2.60607 15.3294 2.34375 15.0059 2.34375Z" fill="white"/>
<path d="M14.9941 24.7538C14.6706 24.7538 14.4082 25.0161 14.4082 25.3397V27.0703C14.4082 27.394 14.6706 27.6563 14.9941 27.6563C15.3177 27.6563 15.5801 27.394 15.5801 27.0703V25.3397C15.5801 25.0161 15.3177 24.7538 14.9941 24.7538Z" fill="white"/>
<path d="M27.0723 14.423H25.4902C25.1667 14.423 24.9043 14.6853 24.9043 15.0089C24.9043 15.3325 25.1667 15.5948 25.4902 15.5948H27.0723C27.3958 15.5948 27.6582 15.3325 27.6582 15.0089C27.6582 14.6853 27.3958 14.423 27.0723 14.423Z" fill="white"/>
<path d="M4.62891 14.4052H2.92969C2.60613 14.4052 2.34375 14.6675 2.34375 14.9911C2.34375 15.3147 2.60613 15.577 2.92969 15.577H4.62891C4.95246 15.577 5.21484 15.3147 5.21484 14.9911C5.21484 14.6675 4.95246 14.4052 4.62891 14.4052Z" fill="white"/>
<path d="M13.5938 14.4141H10.918C10.5944 14.4141 10.332 14.6764 10.332 15C10.332 15.3236 10.5944 15.5859 10.918 15.5859H13.5938C13.9173 15.5859 14.1797 15.3236 14.1797 15C14.1797 14.6764 13.9173 14.4141 13.5938 14.4141Z" fill="white"/>
<path d="M15 7.51941C14.6764 7.51941 14.4141 7.78173 14.4141 8.10535V13.5936C14.4141 13.9173 14.6764 14.1796 15 14.1796C15.3236 14.1796 15.5859 13.9173 15.5859 13.5936V8.10535C15.5859 7.78173 15.3236 7.51941 15 7.51941Z" fill="white"/>
</svg>
