<svg width="80" height="80" viewBox="0 0 80 80" fill="none" xmlns="http://www.w3.org/2000/svg">
<path d="M75.299 55.0042C77.8832 55.0042 79.9858 52.9022 79.9858 50.318V39.0698C79.9858 36.4856 77.8832 34.3829 75.299 34.3829H58.2397C58.8097 33.3008 59.1845 32.2717 59.4225 31.3269C59.713 31.5894 60.0298 31.8457 60.3759 32.0923C63.8659 34.5764 68.6718 34.9841 74.6605 33.3026C75.1854 33.1555 75.595 32.7454 75.7427 32.2211C77.4236 26.2317 77.0159 21.4258 74.5317 17.9358C74.2858 17.5904 74.0288 17.2736 73.7664 16.9831C75.4363 16.5619 77.3705 15.7154 79.392 14.115C79.9925 13.6396 80.1598 12.7985 79.7869 12.1296C77.061 7.24188 73.5216 5.67083 71.0326 5.21368C70.3576 5.08978 69.7246 5.03851 69.1515 5.03241C69.3169 4.3836 69.4646 3.60846 69.5775 2.68378C69.6703 1.92145 69.1961 1.2049 68.4581 0.993106C62.8179 -0.626765 58.5082 -0.234309 55.6493 2.15949C53.5808 3.89227 52.7422 6.30194 52.4163 8.24651C49.2864 6.38494 45.2874 6.47283 42.1929 8.66399L42.0483 8.76592C42.1288 7.29376 41.8517 5.79656 41.2011 4.4013C40.3405 2.55743 38.8134 1.15851 36.9006 0.462711C34.9877 -0.232478 32.9186 -0.142146 31.0742 0.719058C28.4979 1.92084 27.0965 4.62896 27.4249 7.30962C24.3451 6.11273 20.7092 6.75359 18.2263 9.2365C15.0531 12.4097 14.8877 17.4665 17.7264 20.8393C16.5625 21.2622 15.495 21.9379 14.5929 22.84C11.4386 25.9943 11.2555 31.0114 14.0417 34.3829H4.68688C2.10266 34.3829 0 36.4856 0 39.0698V50.318C0 52.9022 2.10266 55.0042 4.68688 55.0042H8.43627V59.3786H4.68688C2.10266 59.3786 0 61.4813 0 64.0655V75.3137C0 77.8979 2.10266 79.9999 4.68688 79.9999H75.299C77.8832 79.9999 79.9858 77.8979 79.9858 75.3137V64.0655C79.9858 61.4813 77.8832 59.3786 75.299 59.3786H71.5502V55.0042H75.299ZM34.2443 19.7889C35.6445 19.7889 37.0446 20.3217 38.1103 21.3874C40.2422 23.5193 40.2422 26.9873 38.1115 29.1193C38.1109 29.1199 38.1109 29.1199 38.1103 29.1199C38.1103 29.1205 38.1103 29.1205 38.1097 29.1211C35.9777 31.2518 32.5097 31.2518 30.3778 29.1199C28.2458 26.9885 28.2458 23.5193 30.3778 21.3874C31.444 20.3217 32.8442 19.7889 34.2443 19.7889ZM30.6103 33.3899C31.7517 33.3899 32.8387 33.7384 33.7524 34.3829H27.4682C28.3819 33.7384 29.4689 33.3899 30.6103 33.3899ZM40.3198 31.3294C41.3525 30.2966 42.7258 29.7278 44.1863 29.7278C45.6469 29.7278 47.0196 30.2966 48.0523 31.3294C48.8952 32.1723 49.4237 33.2324 49.5928 34.3829H38.7798C38.9483 33.2318 39.4769 32.1723 40.3198 31.3294ZM46.513 26.9232C46.8597 26.8573 47.1795 26.7865 47.4725 26.7114C47.4743 26.8884 47.4822 27.0728 47.4932 27.2608C47.1746 27.1277 46.8468 27.0166 46.513 26.9232ZM57.6684 4.54474C59.4829 3.03534 62.3699 2.73505 66.2627 3.64752C65.9563 5.16363 65.5816 5.72576 65.5144 5.81732C65.0121 6.30621 64.8894 7.07952 65.2373 7.70086C65.6072 8.36187 66.3933 8.66399 67.1087 8.41436C67.3363 8.33868 72.4218 6.73834 76.3304 12.4707C72.6201 14.8621 69.6587 14.1596 69.3041 14.0632C68.4795 13.8373 67.6268 14.3171 67.3906 15.1392C67.155 15.9607 67.6238 16.8195 68.4429 17.0661C69.2076 17.2956 75.6761 19.5862 72.9607 30.5213C62.025 33.2367 59.735 26.7682 59.5055 26.0034C59.2595 25.1843 58.4014 24.7156 57.5786 24.9512C56.7565 25.1868 56.2774 26.0401 56.5026 26.8646C56.5996 27.2193 57.3015 30.1807 54.9102 33.891C49.1778 29.9823 50.7781 24.8981 50.8501 24.6802C51.0998 23.9649 50.7995 23.1732 50.1385 22.8028C49.898 22.6685 49.6355 22.6038 49.3761 22.6038C48.9629 22.6038 48.557 22.7674 48.2568 23.075C48.1664 23.1415 47.6037 23.5169 46.087 23.8233C45.1745 19.9305 45.4748 17.0429 46.9842 15.2283C48.7682 13.0848 51.9097 12.8956 53.1396 12.9096L54.3438 14.1138L53.9031 21.0956C53.8488 21.9562 54.5025 22.6984 55.3637 22.7527C55.3972 22.7552 55.4308 22.7564 55.4638 22.7564C56.2816 22.7564 56.9689 22.1198 57.0214 21.2921L57.2887 17.0581L65.4119 25.1819C65.7171 25.4871 66.1168 25.6397 66.5166 25.6397C66.9164 25.6397 67.3162 25.4871 67.6214 25.1819C68.2317 24.5716 68.2317 23.5828 67.6214 22.9724L59.4976 14.8493L63.7316 14.582C64.5928 14.5276 65.2465 13.7854 65.1922 12.9242C65.1378 12.063 64.3956 11.4075 63.5351 11.4637L56.5533 11.9043L55.349 10.7001C55.335 9.46599 55.5254 6.32757 57.6684 4.54474ZM43.9983 11.214C45.5895 10.0873 47.5384 9.79436 49.3053 10.2857C47.6842 10.7465 45.9393 11.6102 44.5995 13.2099C42.2051 16.0688 41.8127 20.3778 43.4325 26.0181C43.4979 26.2445 43.6108 26.4459 43.7573 26.6138C43.4014 26.6309 43.0499 26.6724 42.7026 26.7328C43.1646 24.0698 42.3718 21.2299 40.3198 19.1779C39.129 17.9871 37.6489 17.1906 36.0388 16.85L43.9983 11.214ZM32.3956 3.55047C34.6417 2.5025 37.3217 3.47662 38.3697 5.72271C39.2962 7.70818 39.0716 10.0068 37.7978 11.7762L32.8894 15.2521C32.882 14.2664 32.7062 13.2819 32.3632 12.3456C33.3062 12.4415 34.2858 12.2937 35.2056 11.8647C35.9875 11.4997 36.3256 10.5701 35.9606 9.78826C35.5956 9.0064 34.6661 8.66826 33.8842 9.03325C32.7276 9.5728 31.3482 9.0711 30.8081 7.91448C30.0427 6.27386 30.755 4.31585 32.3956 3.55047ZM20.4358 11.4454C21.502 10.3797 22.9022 9.84685 24.3023 9.84685C25.7025 9.84685 27.1026 10.3797 28.1689 11.4454C30.3009 13.5773 30.3009 17.0465 28.1689 19.1779C26.0369 21.3098 22.5677 21.3098 20.4364 19.1779C18.3038 17.0465 18.3038 13.5773 20.4358 11.4454ZM16.8023 32.782C14.6704 30.65 14.6704 27.1808 16.8023 25.0489C17.8351 24.0161 19.2077 23.4479 20.6683 23.4479C22.1289 23.4479 23.5022 24.0161 24.5349 25.0489C26.6668 27.1808 26.6668 30.65 24.5349 32.7814C23.5046 33.8123 22.135 34.3805 20.6781 34.3829H20.6591C19.2022 34.3805 17.8326 33.8123 16.8023 32.782ZM3.12438 50.318V39.0698C3.12438 38.208 3.82507 37.5073 4.68688 37.5073H20.6591H20.6683H20.6781H55.0005C55.1092 37.5311 55.219 37.5452 55.3289 37.5452C55.4436 37.5452 55.5578 37.5324 55.6695 37.5073H75.299C76.1608 37.5073 76.8615 38.208 76.8615 39.0698V50.318C76.8615 51.1792 76.1608 51.8799 75.299 51.8799H46.502C45.6396 51.8799 44.9401 52.5793 44.9401 53.4424C44.9401 54.3048 45.6396 55.0042 46.502 55.0042H60.927V59.3786H19.0594V55.0042H32.8588C33.7219 55.0042 34.4207 54.3048 34.4207 53.4424C34.4207 52.5793 33.7219 51.8799 32.8588 51.8799H4.68688C3.82507 51.8799 3.12438 51.1792 3.12438 50.318ZM11.5606 55.0042H15.935V59.3786H11.5606V55.0042ZM76.8615 64.0655V75.3131C76.8615 76.1749 76.1608 76.8755 75.299 76.8755H4.68688C3.82507 76.8755 3.12438 76.1749 3.12438 75.3131V64.0655C3.12438 63.2037 3.82507 62.503 4.68688 62.503H75.299C76.1608 62.503 76.8615 63.2037 76.8615 64.0655ZM68.4252 59.3786H64.0514V55.0042H68.4252V59.3786Z" fill="white"/>
<path d="M66.2383 46.2567C66.649 46.2567 67.0525 46.0895 67.343 45.7989C67.6335 45.5084 67.8008 45.1056 67.8008 44.6942C67.8008 44.2822 67.6335 43.8788 67.343 43.5883C67.0525 43.2977 66.649 43.1323 66.2383 43.1323C65.8275 43.1323 65.4247 43.2977 65.1335 43.5883C64.843 43.8806 64.6758 44.2822 64.6758 44.6942C64.6758 45.1056 64.843 45.5066 65.1335 45.7989C65.4247 46.0895 65.8275 46.2567 66.2383 46.2567Z" fill="white"/>
<path d="M13.0713 46.2549C13.4821 46.2549 13.8849 46.0895 14.1754 45.7989C14.4665 45.5066 14.6332 45.1056 14.6332 44.693C14.6332 44.2822 14.4665 43.8788 14.1754 43.5883C13.8849 43.2977 13.4821 43.1323 13.0713 43.1323C12.6587 43.1323 12.2571 43.2977 11.9666 43.5883C11.6748 43.8788 11.5088 44.2822 11.5088 44.693C11.5088 45.1056 11.6748 45.5066 11.9666 45.7989C12.2571 46.0895 12.6587 46.2549 13.0713 46.2549Z" fill="white"/>
<path d="M66.2383 68.4406C65.8275 68.4406 65.4247 68.606 65.1335 68.8965C64.843 69.1888 64.6758 69.5898 64.6758 70.0024C64.6758 70.4132 64.843 70.8148 65.1335 71.1072C65.4247 71.3977 65.8275 71.5649 66.2383 71.5649C66.649 71.5649 67.0525 71.3977 67.343 71.1072C67.6335 70.8166 67.8008 70.4132 67.8008 70.0024C67.8008 69.5898 67.6335 69.1888 67.343 68.8965C67.0525 68.606 66.649 68.4406 66.2383 68.4406Z" fill="white"/>
<path d="M13.0713 68.4406C12.6587 68.4406 12.2571 68.606 11.9666 68.8965C11.6748 69.187 11.5088 69.5898 11.5088 70.0024C11.5088 70.4132 11.6748 70.8166 11.9666 71.1072C12.2571 71.3977 12.6587 71.5649 13.0713 71.5649C13.4821 71.5649 13.8849 71.3977 14.1754 71.1072C14.4665 70.8148 14.6332 70.4132 14.6332 70.0024C14.6332 69.5898 14.4665 69.1888 14.1754 68.8965C13.8849 68.606 13.4821 68.4406 13.0713 68.4406Z" fill="white"/>
<path d="M39.9932 55.0049C40.4039 55.0049 40.8068 54.8383 41.0973 54.5477C41.3878 54.2566 41.555 53.8538 41.555 53.443C41.555 53.0304 41.3878 52.6276 41.0973 52.337C40.8068 52.0465 40.4039 51.8793 39.9932 51.8793C39.5818 51.8793 39.179 52.0465 38.8884 52.337C38.5979 52.6288 38.4307 53.0304 38.4307 53.443C38.4307 53.8538 38.5979 54.2566 38.8884 54.5477C39.179 54.8383 39.5818 55.0049 39.9932 55.0049Z" fill="white"/>
</svg>
