<svg width="80" height="80" viewBox="0 0 80 80" fill="none" xmlns="http://www.w3.org/2000/svg">
<path d="M78.4367 62.6496C65.3874 62.6496 52.5798 68.0024 43.2976 77.3353C42.6884 77.9474 42.6915 78.9368 43.303 79.5447C43.6082 79.8481 44.0062 79.9994 44.4053 79.9994C44.8063 79.9994 45.2073 79.8463 45.5131 79.5392C54.2131 70.7917 66.2132 65.7746 78.4367 65.7746C79.2997 65.7746 79.9992 65.0751 79.9992 64.2121C79.9992 63.3497 79.2997 62.6496 78.4367 62.6496Z" fill="white"/>
<path d="M45.8546 61.2024C45.3712 60.4871 44.4001 60.2991 43.6854 60.7825C37.0039 65.2955 31.3612 70.9424 26.913 77.566C26.432 78.2825 26.6224 79.2536 27.339 79.7345C27.6069 79.914 27.9091 80 28.2087 80C28.7117 80 29.2061 79.7571 29.5076 79.3085C33.73 73.0201 39.0883 67.6581 45.4347 63.3716C46.1494 62.8888 46.3374 61.9178 45.8546 61.2024Z" fill="white"/>
<path d="M78.4362 50.0714C71.4508 50.0714 64.5367 51.2646 57.8863 53.6182C57.0727 53.9056 56.6467 54.7986 56.9348 55.6122C57.1612 56.2537 57.7642 56.6541 58.4076 56.6541C58.5803 56.6541 58.7561 56.6248 58.9288 56.5637C65.2435 54.3292 71.8066 53.1964 78.4362 53.1964C79.2993 53.1964 79.9987 52.4969 79.9987 51.6339C79.9987 50.7709 79.2993 50.0714 78.4362 50.0714Z" fill="white"/>
<path d="M22.3871 69.2778C32.6666 55.8751 47.547 46.5691 63.9667 43.0815C63.9697 43.0809 63.9728 43.0803 63.9752 43.0797C68.6938 42.0781 73.5382 41.5562 78.4375 41.5562C79.2999 41.5562 80 40.8562 80 39.9937C80 39.1307 79.2999 38.4312 78.4375 38.4312C73.9948 38.4312 69.5691 38.8377 65.2185 39.633V36.2602C70.8661 31.4793 73.9661 25.2147 73.9661 18.5435C73.9661 11.646 70.6525 5.18295 64.635 0.344696C64.0631 -0.114899 63.2483 -0.114899 62.6764 0.344696C56.6595 5.18295 53.3453 11.646 53.3453 18.5435C53.3453 25.2147 56.4459 31.4793 62.0929 36.2602V40.2721C59.1241 40.9477 56.1981 41.8089 53.3331 42.8459V33.6974C53.3331 33.2677 53.1598 32.8789 52.879 32.5963V32.5957L44.129 23.7938C43.8354 23.499 43.4369 23.333 43.0206 23.333H25.1562C24.7406 23.333 24.3414 23.499 24.0485 23.7938L15.2985 32.5957V32.5963C15.0177 32.8789 14.8438 33.2677 14.8438 33.698V39.6648C13.7549 39.4652 12.6611 39.2894 11.5625 39.1393V33.5692C15.8331 29.8955 18.1763 25.1042 18.1763 19.9998C18.1763 14.6672 15.6201 9.67575 10.979 5.94345C10.4071 5.48386 9.5929 5.48386 9.021 5.94345C4.37988 9.67514 1.82373 14.6672 1.82373 19.9998C1.82373 25.1036 4.16687 29.8949 8.4375 33.5686V38.7798C6.15906 38.5667 3.86536 38.4569 1.5625 38.4569C0.699463 38.4569 0 39.1563 0 40.0194C0 40.8824 0.699463 41.5819 1.5625 41.5819C14.0564 41.5819 26.2769 44.8875 37.0502 51.1589C34.469 52.9131 32.0038 54.8289 29.6698 56.8913C20.9412 52.4443 11.2427 50.0975 1.5625 50.0975C0.700073 50.0975 0 50.797 0 51.66C0 52.523 0.700073 53.2225 1.5625 53.2225C10.3705 53.2225 19.1962 55.2708 27.2144 59.1606C24.8389 61.4586 22.6184 63.9171 20.5695 66.516C14.4916 63.9671 8.10364 62.6756 1.5625 62.6756C0.700073 62.6756 0 63.3751 0 64.2381C0 65.1012 0.700073 65.8006 1.5625 65.8006C7.42188 65.8006 13.1506 66.9115 18.623 69.099C17.5433 70.5992 16.5173 72.1404 15.5524 73.7224L13.1714 77.6231C12.7216 78.3592 12.9547 79.3211 13.6908 79.7704C13.9453 79.926 14.2261 79.9998 14.5038 79.9998C15.0299 79.9998 15.5444 79.7331 15.8386 79.2509L18.2196 75.3502C19.4611 73.3159 20.8026 71.3585 22.2327 69.4792C22.2888 69.417 22.3413 69.3504 22.3871 69.2778ZM56.4709 18.5435C56.4709 12.99 59.0118 7.72934 63.656 3.60703C68.3002 7.72934 70.8411 12.99 70.8411 18.5435C70.8411 23.4373 68.866 28.1047 65.2185 31.9652V19.9998C65.2185 19.1368 64.519 18.4373 63.656 18.4373C62.793 18.4373 62.0935 19.1368 62.0935 19.9998V31.9652C58.4454 28.1047 56.4709 23.4373 56.4709 18.5435ZM4.94873 19.9998C4.94873 16.0143 6.73279 12.2289 10 9.22104C13.2672 12.2282 15.0513 16.0143 15.0513 19.9998C15.0513 23.2939 13.8312 26.4519 11.5625 29.1472V18.7498C11.5625 17.8868 10.863 17.1873 10 17.1873C9.13757 17.1873 8.4375 17.8868 8.4375 18.7498V29.1472C6.16882 26.4519 4.94873 23.2939 4.94873 19.9998ZM48.0145 32.1349H34.5563L28.913 26.458H42.3712L48.0145 32.1349ZM25.1562 27.1117L30.1501 32.1349H20.163L25.1562 27.1117ZM17.9688 35.2599H32.3438V45.1964C31.6193 44.8631 30.8905 44.5409 30.1562 44.2314V38.9836C30.1562 38.1212 29.4568 37.4211 28.5938 37.4211H21.7188C20.8563 37.4211 20.1562 38.1212 20.1562 38.9836V40.8415C19.4299 40.6523 18.7012 40.4729 17.9688 40.3056V35.2599ZM27.0312 42.9985C25.7922 42.542 24.5422 42.1184 23.2812 41.7296V40.5461H27.0312V42.9985ZM35.4688 46.7253V35.2599H50.2087V44.0587C47.5323 45.1677 44.917 46.4336 42.3816 47.8569C41.571 48.3116 40.7703 48.784 39.9786 49.2686C38.5016 48.3665 36.9977 47.5182 35.4688 46.7253Z" fill="white"/>
<path d="M63.6567 15.625C64.0675 15.625 64.4709 15.4578 64.7615 15.1666C65.052 14.8761 65.2192 14.4733 65.2192 14.0625C65.2192 13.6511 65.0526 13.2483 64.7615 12.9578C64.4709 12.6666 64.0675 12.5 63.6567 12.5C63.246 12.5 62.8425 12.6666 62.5526 12.9578C62.2615 13.2483 62.0942 13.6511 62.0942 14.0625C62.0942 14.4733 62.2615 14.8761 62.5526 15.1666C62.8425 15.4572 63.246 15.625 63.6567 15.625Z" fill="white"/>
<path d="M50.093 57.0734C49.8031 57.364 49.6353 57.7668 49.6353 58.1776C49.6353 58.5901 49.8025 58.9918 50.093 59.2823C50.3842 59.5734 50.787 59.7401 51.1978 59.7401C51.6091 59.7401 52.012 59.5734 52.3025 59.2823C52.593 58.9918 52.7603 58.5901 52.7603 58.1776C52.7603 57.7668 52.593 57.364 52.3025 57.0734C52.012 56.7823 51.6091 56.6151 51.1978 56.6151C50.787 56.6151 50.3842 56.7823 50.093 57.0734Z" fill="white"/>
</svg>
