<svg width="63" height="80" viewBox="0 0 63 80" fill="none" xmlns="http://www.w3.org/2000/svg">
<path d="M52.2401 0H37.8936C37.0322 0 36.3342 0.698078 36.3342 1.55941C36.3342 2.42073 37.0322 3.11881 37.8936 3.11881H52.2401C55.6379 3.11881 58.5228 5.34828 59.5139 8.42079H55.5337C53.7471 8.42079 52.0037 9.15176 50.7514 10.4261L49.9448 11.2466C49.2748 11.9282 48.3428 12.3193 47.3871 12.3193H43.9752C43.1139 12.3193 42.4158 13.0174 42.4158 13.8787C42.4158 14.74 43.1139 15.4381 43.9752 15.4381H47.3871C49.1737 15.4381 50.917 14.7071 52.1694 13.4328L52.9759 12.6123C53.646 11.9307 54.578 11.5396 55.5337 11.5396H59.8416C59.4499 15.3882 56.1904 18.401 52.2401 18.401H10.7599C7.42972 18.401 4.59233 16.2592 3.54826 13.2811H5.84594C7.78728 13.2811 9.61959 12.5325 11.0054 11.1723L11.776 10.4163C12.5751 9.63238 13.6314 9.20049 14.751 9.20049H22.6504C23.5117 9.20049 24.2098 8.50242 24.2098 7.64109C24.2098 6.77976 23.5117 6.08168 22.6504 6.08168H14.751C12.8097 6.08168 10.9774 6.83032 9.59157 8.19054L8.821 8.94648C8.0218 9.73045 6.96555 10.1623 5.84594 10.1623H3.1444C3.45079 6.22727 6.74809 3.11881 10.7599 3.11881H24.7946C25.6559 3.11881 26.354 2.42073 26.354 1.55941C26.354 0.698078 25.6559 0 24.7946 0H10.7599C4.82685 0 0 4.82685 0 10.7599C0 16.693 4.82685 21.5198 10.7599 21.5198H25.3738V29.9729C25.3738 32.0269 27.0447 33.6984 29.0994 33.6984H29.9406V35.5971C29.9406 36.5827 29.4143 37.5068 28.5664 38.0087L25.7521 39.6771C24.4029 40.4769 23.6244 41.9456 23.7206 43.5105C23.8163 45.076 24.7678 46.4392 26.2041 47.0685L31.0669 49.1986C31.5962 49.4307 31.6785 49.9034 31.6894 50.0953C31.7004 50.2878 31.6712 50.7666 31.1711 51.0559L28.2386 52.7536C26.9893 53.4767 26.2139 54.7699 26.1645 56.2123C26.1152 57.6548 26.7999 58.9973 27.9962 59.8044L31.6986 62.3013C32.1152 62.5827 32.1585 63.0024 32.1579 63.1693C32.1573 63.3369 32.1104 63.7566 31.6919 64.0343L28.8344 65.9306C27.7282 66.664 27.0526 67.8451 26.9802 69.17C26.9077 70.4949 27.4498 71.7424 28.4689 72.5928L29.9235 73.8062V78.2822C29.9235 79.1435 30.6216 79.8416 31.4829 79.8416C32.3437 79.8416 33.0424 79.1435 33.0424 78.2822V73.0764C33.0424 72.6141 32.8371 72.1755 32.4819 71.8795L30.4669 70.1982C30.2117 69.985 30.0758 69.6726 30.0941 69.3406C30.1124 69.0086 30.2817 68.7132 30.5589 68.5292L33.4164 66.6329C34.5762 65.863 35.2712 64.5728 35.2767 63.1809C35.2822 61.7896 34.5963 60.494 33.4419 59.7155L29.7402 57.2186C29.3083 56.9275 29.2754 56.4925 29.2815 56.3189C29.2876 56.1453 29.3497 55.7134 29.8011 55.4521L32.7335 53.7544C34.098 52.9644 34.8917 51.4951 34.8034 49.9211C34.7151 48.3465 33.763 46.9747 32.3187 46.3418L27.4553 44.2116C26.929 43.9807 26.8449 43.5111 26.8334 43.3204C26.8218 43.1291 26.848 42.6528 27.3426 42.3598L30.1568 40.692C31.9471 39.6308 33.0594 37.6785 33.0594 35.5971V33.6984H33.9006C35.9553 33.6984 37.6262 32.0269 37.6262 29.9723V21.5198H52.2401C58.1731 21.5198 63 16.693 63 10.7599C63 4.82685 58.1731 0 52.2401 0V0ZM34.5073 29.9729C34.5073 30.3073 34.2351 30.5796 33.9006 30.5796H31.6657C31.6109 30.5735 31.556 30.5704 31.5 30.5704C31.444 30.5704 31.3885 30.5735 31.3343 30.5796H29.0988C28.7643 30.5796 28.4921 30.3073 28.4921 29.9729V21.5198H34.5073V29.9729Z" fill="white"/>
<path d="M31.5 15.4381C34.0797 15.4381 36.1782 13.3396 36.1782 10.7599C36.1782 8.18016 34.0797 6.08167 31.5 6.08167C28.9203 6.08167 26.8218 8.18016 26.8218 10.7599C26.8218 13.3396 28.9203 15.4381 31.5 15.4381ZM31.5 9.20048C32.3601 9.20048 33.0594 9.89977 33.0594 10.7599C33.0594 11.62 32.3601 12.3193 31.5 12.3193C30.6399 12.3193 29.9406 11.62 29.9406 10.7599C29.9406 9.89977 30.6399 9.20048 31.5 9.20048Z" fill="white"/>
<path d="M31.5001 3.12492C31.91 3.12492 32.3127 2.95801 32.6026 2.66806C32.8926 2.37811 33.0595 1.97607 33.0595 1.56551C33.0595 1.15373 32.8926 0.752913 32.6026 0.462961C32.3127 0.17179 31.91 0.00610352 31.5001 0.00610352C31.0901 0.00610352 30.6875 0.17179 30.3975 0.462961C30.1076 0.752913 29.9407 1.15373 29.9407 1.56551C29.9407 1.97607 30.1076 2.37811 30.3975 2.66806C30.6875 2.95801 31.0901 3.12492 31.5001 3.12492Z" fill="white"/>
</svg>
