<svg width="80" height="80" viewBox="0 0 80 80" fill="none" xmlns="http://www.w3.org/2000/svg">
<path d="M71.1932 19.3201C70.3796 18.736 69.8938 17.7887 69.8938 16.7877V1.5625C69.8938 0.699463 69.1943 0 68.3313 0H60.3265C59.4635 0 58.764 0.699463 58.764 1.5625V16.7877C58.764 17.7887 58.2782 18.736 57.4646 19.3201C51.9501 23.2788 48.6578 29.6954 48.6578 36.4844V38.3417C48.3862 37.691 48.0994 37.0471 47.7936 36.4124C45.3864 31.413 44.1138 25.8374 44.1138 20.2887V3.22937C44.1132 1.44836 42.6648 0 40.8844 0H34.6356C32.8546 0 31.4062 1.44836 31.4062 3.22937V20.3027C31.4062 25.8429 30.1373 31.4105 27.7325 36.4136L27.7277 36.4233C27.4261 37.0502 27.1436 37.6862 26.875 38.3289V32.4725C26.875 26.9342 23.7872 21.8982 18.9258 19.3683V1.5625C18.9258 0.699463 18.2257 0 17.3633 0H9.51172C8.64929 0 7.94922 0.699463 7.94922 1.5625V19.3683C3.08777 21.8982 0 26.9342 0 32.4725V78.4375C0 79.3005 0.699463 80 1.5625 80H25.3125C25.7245 80 26.098 79.8395 26.377 79.5789C26.9562 79.8486 27.6013 80 28.2812 80H47.2516C48.175 80 49.0344 79.7217 49.7516 79.245C50.2985 79.7144 51.0071 80 51.7828 80H76.875C78.598 80 80 78.598 80 76.875V36.4844C80 29.696 76.7078 23.2788 71.1932 19.3201ZM61.889 15.625V9.09546H66.7688V15.625H61.889ZM66.7688 3.125V5.97046H61.889V3.125H66.7688ZM34.5312 20.3027V10.6378H40.9882V20.2887C40.9882 22.3566 41.1554 24.4269 41.4752 26.4752H34.0466C34.3652 24.4312 34.5312 22.3657 34.5312 20.3027ZM34.5312 3.22937C34.5312 3.172 34.5782 3.125 34.6356 3.125H40.8844C40.9418 3.125 40.9882 3.172 40.9882 3.22937V7.51282H34.5312V3.22937ZM15.8008 3.125V13.2147H11.0742V3.125H15.8008ZM10.1343 21.7865C10.705 21.5387 11.0742 20.976 11.0742 20.3534V16.3397H15.8008V20.3534C15.8008 20.9753 16.17 21.5387 16.7407 21.7865C20.9985 23.6359 23.75 27.8302 23.75 32.4725V38.4375H12.5C11.637 38.4375 10.9375 39.137 10.9375 40C10.9375 40.863 11.637 41.5625 12.5 41.5625H23.75V64.3463H3.125V32.4725C3.125 27.8302 5.87646 23.6359 10.1343 21.7865ZM23.75 76.875H3.125V67.4713H23.75V76.875ZM47.2516 76.875H28.2812C27.5055 76.875 26.875 76.2445 26.875 75.4688V53.8782C26.875 48.338 28.1439 42.7704 30.5487 37.7673L30.5536 37.7576C31.803 35.1581 32.7667 32.4146 33.4338 29.5996H42.0886C42.7582 32.4182 43.7244 35.1654 44.978 37.7686C47.3853 42.7673 48.6578 48.3429 48.6578 53.8916V75.4688C48.6578 76.2445 48.0267 76.875 47.2516 76.875ZM76.875 76.875H51.7828V36.4844C51.7828 30.7001 54.588 25.2319 59.2871 21.8585C60.368 21.0822 61.1578 19.9854 61.568 18.75H67.0892C67.5 19.9854 68.2898 21.0822 69.3707 21.8585C74.0698 25.2319 76.875 30.7001 76.875 36.4844V76.875Z" fill="white"/>
<path d="M6.78394 41.5625C7.1947 41.5625 7.59814 41.3953 7.88867 41.1047C8.1792 40.8142 8.34644 40.4108 8.34644 40C8.34644 39.5892 8.1792 39.1858 7.88867 38.8953C7.59814 38.6047 7.1947 38.4375 6.78394 38.4375C6.37317 38.4375 5.96973 38.6047 5.6792 38.8953C5.38867 39.1858 5.22144 39.5892 5.22144 40C5.22144 40.4108 5.38867 40.8142 5.6792 41.1047C5.96973 41.3953 6.37317 41.5625 6.78394 41.5625Z" fill="white"/>
<path d="M13.4362 58.8355C16.679 58.8355 19.3169 56.197 19.3169 52.9548C19.3169 49.712 16.679 47.074 13.4362 47.074C10.1934 47.074 7.55542 49.712 7.55542 52.9548C7.55542 56.197 10.1934 58.8355 13.4362 58.8355ZM13.4362 50.199C14.9559 50.199 16.1919 51.435 16.1919 52.9548C16.1919 54.4739 14.9559 55.7105 13.4362 55.7105C11.9164 55.7105 10.6804 54.4739 10.6804 52.9548C10.6804 51.435 11.9164 50.199 13.4362 50.199Z" fill="white"/>
<path d="M71.8789 50.9375C71.4681 50.9375 71.0647 51.1047 70.7742 51.3953C70.4836 51.6858 70.3164 52.0874 70.3164 52.5C70.3164 52.9108 70.4836 53.3142 70.7742 53.6047C71.0647 53.8953 71.4681 54.0625 71.8789 54.0625C72.2897 54.0625 72.6931 53.8953 72.9836 53.6047C73.2742 53.3142 73.4414 52.9108 73.4414 52.5C73.4414 52.0892 73.2742 51.6858 72.9836 51.3953C72.6931 51.1047 72.2897 50.9375 71.8789 50.9375Z" fill="white"/>
<path d="M55.2175 41.5625V63.4375C55.2175 64.3005 55.917 65 56.78 65H71.8783C72.7407 65 73.4408 64.3005 73.4408 63.4375V58.2812C73.4408 57.4182 72.7407 56.7188 71.8783 56.7188C71.0153 56.7188 70.3158 57.4182 70.3158 58.2812V61.875H58.3425V43.125H70.3158V45.9521C70.3158 46.8152 71.0153 47.5146 71.8783 47.5146C72.7407 47.5146 73.4408 46.8152 73.4408 45.9521V41.5625C73.4408 40.6995 72.7407 40 71.8783 40H56.78C55.917 40 55.2175 40.6995 55.2175 41.5625Z" fill="white"/>
<path d="M43.9647 52.1875H31.5703C30.7073 52.1875 30.0078 52.887 30.0078 53.75V70C30.0078 70.863 30.7073 71.5625 31.5703 71.5625H43.9647C44.8278 71.5625 45.5272 70.863 45.5272 70V53.75C45.5272 52.887 44.8278 52.1875 43.9647 52.1875ZM42.4022 68.4375H33.1328V55.3125H42.4022V68.4375Z" fill="white"/>
</svg>
