<svg width="90" height="69" fill="none" xmlns="http://www.w3.org/2000/svg"><path d="M34.509 57.95v-.713h.396v.634c0 .238.12.397.357.397.199 0 .357-.08.476-.119v-.912h.397v2.22h-.397v-.872-.119c-.119.04-.317.12-.555.12-.436.039-.674-.199-.674-.635zM38.197 57.237h.437l.793 2.22h-.397l-.198-.554h-.793l-.199.555h-.396l.753-2.221zm.516 1.309l-.198-.595a3.22 3.22 0 0 1-.08-.357s-.04.238-.079.357l-.198.595h.555zM41.609 57.197c.277 0 .595.08.833.317l-.199.318c-.158-.12-.396-.238-.595-.238-.476 0-.753.357-.753.753 0 .437.277.794.753.794a.936.936 0 0 0 .635-.278l.198.278a1.186 1.186 0 0 1-.872.357c-.714 0-1.15-.516-1.15-1.15 0-.675.475-1.151 1.15-1.151zM44.266 57.554h-.714v-.317h1.864v.317h-.753v1.904h-.397v-1.904zM46.646 57.237h.436v.912h.992v-.912h.397v2.22h-.397v-.951h-.992v.952h-.436v-2.221zM50.493 57.237h.437l.793 2.22h-.397l-.198-.554h-.793l-.199.555h-.396l.753-2.221zm.516 1.309l-.198-.595c-.04-.12-.08-.357-.08-.357s-.04.238-.079.357l-.198.595h.555zM53.19 58.665c.04-.08.08-.12.08-.12-.278-.118-.397-.356-.397-.634 0-.317.159-.516.357-.595.08-.04.199-.04.437-.04h.714v2.222h-.397v-.833h-.317l-.476.833h-.437l.437-.833zm.794-.397v-.714h-.278c-.158 0-.238.04-.277.04-.08.04-.12.158-.12.277 0 .238.12.357.358.357h.317v.04zM29.709 61.124h.793c.397 0 .675.198.675.555a.55.55 0 0 1-.278.476c.238.08.357.317.357.516 0 .436-.357.634-.754.634h-.793v-2.181zm.793.912a.271.271 0 0 0 .278-.278c0-.158-.08-.277-.278-.277h-.396v.555h.396zm.04.992c.198 0 .317-.12.317-.318s-.119-.317-.317-.317h-.436v.635h.436zM32.605 61.124H33v1.27c0 .118-.04.356-.04.356s.12-.198.199-.357l.833-1.27h.396v2.222h-.396v-1.27c0-.118.04-.356.04-.356s-.12.198-.199.357l-.833 1.27h-.396v-2.222zM35.937 61.124h.396v.952h.992v-.952h.436v2.26h-.436v-.951h-.992v.952h-.396v-2.261zM40.26 61.084c.675 0 1.15.516 1.15 1.15 0 .675-.475 1.15-1.15 1.15-.674 0-1.15-.515-1.15-1.15 0-.634.476-1.15 1.15-1.15zm0 1.944c.397 0 .754-.357.754-.794a.73.73 0 0 0-.754-.753c-.396 0-.714.317-.714.753a.71.71 0 0 0 .714.794zM42.64 63.028c.277-.436.317-.952.317-1.389v-.476h1.388v1.865h.238v.793h-.357v-.436h-1.428v.436h-.357v-.793h.199zm1.309 0V61.48h-.595v.158c0 .437-.04.992-.278 1.35h.873v.039zM45.932 61.124h1.349v.357h-.952v.595h.753v.357h-.753v.595h.991v.357h-1.388v-2.261zM48.907 61.758v-.595h1.388v2.222H49.9V61.48h-.595v.277c0 1.071-.238 1.627-.873 1.627v-.357c.318-.04.476-.436.476-1.27zM51.763 61.124h.396v.793h.437c.396 0 .714.278.714.714 0 .436-.278.714-.675.714h-.833v-2.221h-.04zm.793 1.904c.238 0 .357-.159.357-.357 0-.238-.119-.397-.357-.397h-.357v.754h.357zM54.58 61.124h.435v.952h.992v-.952h.397v2.26h-.397v-.951h-.992v.952h-.436v-2.261zM58.15 62.592a.49.49 0 0 1 .078-.12c-.277-.119-.396-.357-.396-.634 0-.318.158-.516.357-.595.08-.04.198-.08.436-.08h.714v2.222h-.396v-.833h-.318l-.476.833h-.436l.436-.793zm.793-.397v-.714h-.278c-.159 0-.238.04-.278.04-.08.04-.119.158-.119.277 0 .238.12.357.357.357h.318v.04z" fill="#fff"/><path d="M51.882 67.153a.711.711 0 0 0-.714.714c0 .159.08.317.159.476H37.682c.119-.12.158-.278.158-.476a.711.711 0 0 0-.713-.714.711.711 0 0 0-.714.714c0 .159.04.278.119.396.238.437.714.715 1.309.715h13.327c.635 0 1.071-.278 1.309-.715a.67.67 0 0 0 .119-.396.711.711 0 0 0-.714-.714zM44.544 54.024a.753.753 0 1 0 0-1.506.753.753 0 0 0 0 1.506zM67.034 53.706a2.523 2.523 0 0 0-1.785-.753H46.963v.674H65.29c.476 0 .952.198 1.269.555.357.357.555.833.555 1.31 0 .396-.158.753-.436.991s-.635.397-.992.397a1.085 1.085 0 0 1-1.11-1.071c0-.12.04-.238.079-.357.04-.12.159-.199.238-.278l.238-.119c-.04.08-.04.159-.04.238.04.317.318.595.635.595h.04c.158 0 .317-.08.436-.238.119-.119.159-.278.159-.476 0-.198-.12-.436-.318-.595a1.547 1.547 0 0 0-.634-.278c-.318-.04-.635.04-.913.238-.198.12-.357.318-.476.516s-.158.436-.158.674c0 .476.198.913.515 1.23.318.317.794.516 1.27.516.555 0 1.07-.238 1.467-.595.397-.397.635-.913.635-1.468 0-.595-.238-1.23-.714-1.706zM24.513 54.658a1.278 1.278 0 0 0-.912-.238c-.238.04-.476.12-.635.278-.198.159-.317.357-.317.595 0 .159.04.317.158.476a.945.945 0 0 0 .437.238h.04c.317 0 .594-.238.634-.595 0-.08 0-.159-.04-.238.08.04.159.04.238.12.12.078.199.158.238.277.08.119.08.238.08.357 0 .277-.12.555-.318.753a1.033 1.033 0 0 1-.793.318c-.357 0-.714-.159-.992-.397a1.42 1.42 0 0 1-.436-.992c0-.515.198-.952.555-1.309a1.711 1.711 0 0 1 1.27-.555h18.325v-.674H23.799c-.674 0-1.309.277-1.785.753a2.42 2.42 0 0 0-.714 1.825c0 .555.238 1.11.635 1.468.396.396.912.595 1.467.595.476 0 .952-.199 1.27-.516.317-.317.515-.793.515-1.23 0-.238-.079-.476-.158-.674-.159-.357-.318-.516-.516-.635z" fill="#D0965A"/><path d="M8.449 38.475l.674.317v7.616H7.1v-7.616l.674-.317v-.754h-3.53v.754l.674.317v7.616H2.935v-7.616l.635-.317v-.754H0v.754l.754.317v7.735l-.635.357v.754h11.78v-.754l-.634-.357v-7.735l.753-.317v-.754h-3.57v.754zM19.951 38.475l.516.198-1.507 3.729-1.706-4.006c-.238-.516-.516-.675-1.19-.675h-1.943v.754l.793.278 2.896 6.227-.476 1.032c-.357.713-.635.793-1.508.555l-.198-.04-.278 1.071.199.04c.436.119.832.158 1.19.158.991 0 1.745-.476 2.102-1.348l3.292-7.735.635-.278v-.714H19.99v.754h-.04zM34.588 38.832l.674-.357v-.714h-2.816c-.595 0-.952.12-1.11.754l-1.31 6.069c-.357-2.142-.714-3.808-1.23-6.07-.198-.634-.594-.793-1.269-.793H24.83v.754l.675.357v7.695l-.714.357v.754h3.093v-.754l-.714-.357v-5.632a179.21 179.21 0 0 1 1.31 6.068c.079.357.356.556.793.556h1.586l1.508-6.743v5.711l-.754.397v.754h3.689v-.754l-.754-.397v-7.655h.04zM41.926 37.721h-3.689v.754l.635.357v4.284l-.516.476.516.436v2.46l-.754.396v.754h3.689v-.754l-.754-.397v-2.3h.833c.913 0 3.61 0 3.61-2.34V40.14c0-1.547-1.27-2.42-3.57-2.42zm1.388 4.126c0 .555-.158 1.15-1.388 1.15h-.873V39.03h.913c1.19 0 1.348.556 1.348 1.15v1.667zM55.69 38.832l.634-.357v-.714h-3.45v.714l.555.357-2.102 4.363-.278.714v-5.077l.635-.357v-.714h-3.451v.714l.634.357v7.695l-.753.436v.714h3.689v-.714l-.635-.357 2.023-4.164.357-.833v4.918l-.754.436v.714h3.69v-.714l-.755-.436v-7.695h-.04zM66.637 43.116l.595-.555-.595-.556v-3.173l.635-.357v-.754H63.82v.754l.635.357v3.134h-2.34v-3.134l.674-.357v-.754H59.3v.754l.674.357v3.253l-.556.476.556.515v3.49l-.794.318v.754h3.729v-.754l-.794-.317v-3.372h2.34v3.372l-.753.317v.754h3.689v-.754l-.754-.317v-3.451zM77.585 45.932l-.516-1.983c-.278-.952-.714-1.587-1.309-1.825.436-.436.754-1.309 1.031-2.062.12-.357.238-.675.357-.873.199-.397.318-.516.794-.516h.238v-.952h-.833c-.476 0-.992.04-1.428.278-.754.397-1.031 1.23-1.31 2.023-.316.912-.594 1.706-1.467 1.785v-2.975l.635-.357v-.754h-3.451v.754l.635.357v3.094l-.556.516.556.515v3.57l-.754.397v.753h3.689v-.753l-.754-.397v-3.49h.318c.952 0 1.269.555 1.467 1.348l.516 1.864c.198.675.555 1.468 1.864 1.468.357 0 .873-.04 1.23-.198l.119-.04v-.912l-.238.04c-.476.04-.754-.318-.833-.675zM88.374 46.527l-2.777-8.885h-2.063l-.04.159c-.515 1.705-1.11 3.57-1.665 5.394-.08.238-.159.476-.198.714l-.675.476.437.397c-.199.595-.357 1.19-.516 1.785l-.674.277v.794h2.776v-.794l-.555-.238.476-1.547h2.816l.476 1.587-.436.278v.674h3.332v-.754l-.714-.317zm-5.197-2.657l1.072-3.61 1.07 3.61h-2.142z" fill="#fff"/><path d="M19.158 42.878l.12.278 1.824-4.522-.516-.159.318.12-1.746 4.283zM9.48 46.408h.198v-7.655l-.635-.278.437.198v7.735zM5.276 46.368h.238v-7.615l-.675-.278.437.198v7.695zM30.106 45.892s.238 0 .278-.198c.04-.198 1.467-6.902 1.467-6.902.04-.158.08-.238.159-.317-.278.04-.317.12-.397.317l-1.467 6.942-.04.158zM.674 46.884l.675-.317v-7.854l-.714-.238.515.198v7.933l-.476.278zM75.086 40.141c.238-.754.476-1.428 1.071-1.785.04-.04.119-.04.198-.08-.158.04-.317.08-.436.16-.555.317-.793.991-1.07 1.745-.279.833-.596 1.745-1.508 2.023 1.11-.199 1.467-1.19 1.745-2.063zM84.566 39.308h-.198l1.467 4.998h.199l-1.468-4.998zM64.813 42.72h.238v-3.967l-.675-.278.437.238v4.006zM49.462 46.527v-7.774l-.635-.278.437.238v7.854l-.556.317.754-.357zM51.088 44.822l.833-1.508 2.142-4.482-.753-.357.555.317-2.182 4.562-.595 1.468zM42.68 43.354c.793-.159 1.19-.674 1.19-1.507V40.14c0-.873-.397-1.388-1.19-1.547.634.238.991.754.991 1.547v1.706c0 .753-.357 1.269-.991 1.507zM17.651 46.21c-.159.357-.397.714-.793.872.555-.079.833-.515 1.031-.912l.555-1.19-2.974-6.386-.437-.119.199.08 2.974 6.465-.555 1.19zM75.919 46.09l-.476-1.864c-.159-.634-.516-1.467-1.507-1.626.832.278 1.15 1.032 1.308 1.627l.516 1.864c.159.555.397.952 1.031 1.07-.555-.198-.753-.555-.872-1.07zM70.683 46.884l.793-.357v-7.774l-.674-.278.476.238v3.411l-.317.278.317.238v3.927l-.595.317zM59.855 46.884l.674-.238v-7.893l-.675-.278.477.238v3.61l-.239.238.239.238v3.887l-.477.198zM86.747 46.646l-.714-2.34h-.198l.714 2.38-.357.198.555-.238zM81.393 46.686l.04-.12a128.4 128.4 0 0 0 .872-2.855l.119-.357c.515-1.745 1.07-3.53 1.586-5.157h-.198a282.293 282.293 0 0 0-1.586 5.197c-.08.277-.238.753-.238.753l-.357.238.238.238s-.397 1.27-.595 1.983l-.04.12-.357.158.516-.198zM65.05 46.646V42.72h-.237v3.967l-.476.198.714-.238zM28.995 46.606c-.476-2.3-1.626-7.417-1.666-7.615-.04-.159-.277-.238-.277-.238l.04.158c.674 2.896 1.19 5.355 1.705 7.656 0 .08.04.119.278.119-.04 0-.04-.04-.08-.08zM54.103 46.527v-.119-2.856-2.538l-.198.555V46.606l-.555.318.753-.397zM25.346 46.884l.753-.317v-7.814l-.674-.278.476.238v7.893l-.555.278zM38.673 46.884l.794-.357v-7.735l-.675-.317.437.278v4.6l-.278.239.278.238v2.737l-.556.317zM32.962 46.527V40.26l.08-1.349-.279 1.349v6.307l-.594.317.793-.357z" fill="#646363"/><path d="M32.406 48.193h-.158l.436.436h.159l-.437-.436zM31.851 48.193h-.159l.476.436h.159l-.476-.436zM33.477 48.193h-.158l.436.436h.198l-.476-.436zM32.922 48.193h-.159l.476.436h.159l-.476-.436zM34.033 48.193h-.199l.476.436h.16l-.437-.436zM34.548 48.193h-.158l.436.436h.198l-.476-.436zM31.335 48.193h-.158l.436.436h.159l-.437-.436zM29.075 48.63l-.437-.437h-.159l.437.436h.159zM29.193 48.193h-.198l.476.436h.159l-.437-.436zM30.264 48.193h-.198l.476.436h.159l-.437-.436zM23.72 39.19v-.16l-.516-.476v.16l.516.475zM30.78 48.193h-.158l.476.436h.158l-.476-.436zM36.135 39.268l.08-.04v-.079l-.477-.436v.08l-.04.04.437.435zM35.54 39.705v-.12l.04-.039-.476-.436-.04.04v.079l.476.476zM46.487 42.362v-.158l-.515-.476v.158l.515.476zM28.083 48.193h-.159l.476.436h.159l-.476-.436zM35.103 48.193h-.158l.436.436h.159l-.437-.436zM45.258 38.237c.04 0 .04 0 0 0l.634.635c-.119-.238-.357-.476-.634-.635zM52.754 44.742v-.158l-.119-.08-.04.12.16.118zM36.214 38.316v-.158l-.436-.397h-.04v.08l.476.475zM35.62 48.193h-.16l.476.436h.16l-.477-.436zM35.817 47.36v.159l.476.476v-.159l-.476-.476zM36.293 48.47v-.158l-.476-.436v.158l.476.437zM35.817 46.844v.16l.476.475v-.159l-.476-.476zM29.749 38.713c0-.04-.04-.08-.04-.159l-.555-.476c.04.08.04.12.08.199v.04l.515.475v-.079zM21.26 43.473l.08-.12-.516-.435-.04.079.477.476zM22.054 41.648l.04-.079-.477-.476-.04.119.477.436zM22.371 40.934l.04-.119-.476-.436-.08.119.516.436zM22.212 41.291l.04-.079-.476-.476-.04.119.476.436zM21.141 42.164l-.04.119.477.476.04-.12-.477-.475zM21.3 41.807l-.04.119.477.476.04-.119-.477-.476zM21.42 43.116l.079-.12-.516-.475-.04.119.476.476zM21.459 41.45l-.04.119.476.476.04-.119-.476-.476zM23.006 39.546l.119-.04-.476-.436-.08.04.437.436zM27.567 48.193h-.158l.436.436h.159l-.437-.436zM22.649 40.22l.08-.119-.517-.436-.04.119.477.436zM22.53 40.577l.04-.119-.516-.436-.04.119.516.436zM22.808 39.863l.04-.119-.477-.436-.04.119.477.436zM23.402 39.387l.08-.04-.437-.436-.119.04.476.436zM24.87 48.193h-.08v.08l.358.356h.198l-.476-.436zM25.94 48.193h-.158l.436.436h.199l-.476-.436zM26.496 48.193h-.159l.437.436h.158l-.436-.436zM20.824 44.544l.04-.12-.476-.435-.04.119.476.436zM27.012 48.193h-.159l.476.436h.159l-.476-.436zM18.841 40.696l.04-.119-.278-.277.119.238.119.158zM18.88 40.22l-.118-.277-.516-.516.12.278.515.515zM18.524 39.348l-.12-.238-.515-.516.08.278.555.476zM52.794 45.258v-.159l-.278-.238-.079.08.357.317zM21.142 43.83l.04-.12-.477-.435-.079.079.516.476zM20.983 44.187l.04-.12-.476-.435-.08.119.516.436zM29.709 48.193h-.159l.437.436h.198l-.476-.436zM35.54 42.72v-.16l-.476-.436v.159l.476.436zM35.54 43.235v-.159l-.476-.476v.159l.476.476zM35.064 45.654v.16l.476.435v-.158l-.476-.437zM35.54 43.75v-.158l-.476-.476v.159l.476.476zM35.064 45.139v.158l.476.477v-.16l-.476-.475zM35.064 44.623v.159l.476.476v-.159l-.476-.476zM35.54 40.22v-.158l-.476-.476v.158l.476.476zM35.064 44.147v.12l.476.475v-.158l-.476-.437zM35.54 40.696v-.119l-.476-.476v.159l.476.436zM35.54 41.728v-.159l-.476-.476v.159l.476.476zM35.54 42.243v-.158l-.476-.476v.158l.476.476zM35.54 41.212v-.159l-.476-.476v.159l.476.476zM29.907 39.467c0-.08-.04-.12-.04-.199l-.515-.476c0 .08.04.12.04.199l.515.476zM38.316 48.193h-.158l.436.436h.198l-.476-.436zM38.872 48.193h-.199l.476.436h.159l-.436-.436zM38.079 48.47v.16h.158l-.158-.16zM36.174 46.844l.12.12v-.04l-.12-.08zM39.943 48.193h-.159l.437.436h.158l-.436-.436zM39.387 48.193h-.159l.437.436h.198l-.476-.436zM35.818 39.427l.08-.04-.437-.436-.12.04.477.436zM35.064 43.632v.158l.476.437v-.12l-.476-.475zM30.066 40.101c0-.079-.04-.119-.04-.198l-.515-.476c0 .08.04.12.04.198l.515.476zM30.026 41.053l.04-.119-.238-.238c0 .08.04.12.04.199l.159.158zM30.106 40.657l.04-.12-.477-.436c0 .08.04.12.04.199l.397.357zM46.408 42.838c0-.04 0-.08.04-.119l-.476-.476c0 .04 0 .08-.04.12l.476.475zM46.487 41.886v-.158l-.515-.476v.158l.515.476zM52.278 45.297l.476.477.04-.04v-.12l-.436-.435-.08.118zM46.487 41.37v-.158l-.515-.476v.159l.515.476zM46.487 40.855v-.159l-.515-.436v.119l.515.476zM44.703 44.108c-.04.04-.08.04-.12.079l.477.436c.04 0 .079-.04.118-.08l-.475-.435zM46.329 43.235c0-.04.04-.08.04-.12l-.476-.475c0 .04-.04.08-.04.119l.476.476zM44.742 44.782c.04 0 .08-.04.12-.04l-.477-.436c-.04 0-.08.04-.119.04l.476.436zM46.487 40.34v-.16l-.515-.475v.158l.515.476zM52.001 45.892l-.04.12.357.317.08-.04-.397-.397zM36.214 38.832v-.159l-.476-.476v.16l.476.475zM40.459 48.193h-.16l.477.436h.158l-.475-.436zM52.16 45.535l-.04.12.476.436.04-.08-.477-.476zM42.005 41.728v-.159l-.476-.476v.159l.476.476zM42.005 42.243v-.158l-.476-.476v.158l.476.476zM42.005 41.212v-.159l-.476-.476v.159l.476.476zM36.215 37.802v-.04h-.04l.04.04zM42.005 40.696v-.158l-.476-.437v.159l.476.436zM45.02 43.91l-.08.079.476.436.08-.08-.476-.436zM41.569 42.323h.159l-.199-.199v.12l.04.079zM45.535 43.354c-.04.04-.04.08-.079.08l.476.436c.04-.04.04-.08.08-.08l-.477-.436zM45.298 43.632l-.08.079.476.436.08-.08-.476-.435zM42.322 39.982h.16l-.437-.436h-.159l.436.436zM42.005 40.22v-.158l-.476-.476v.158l.476.476zM45.734 43.037c0 .04-.04.079-.04.119l.476.436c0-.04.04-.08.04-.12l-.476-.435zM46.368 39.744c0-.079-.04-.158-.079-.238l-.516-.476c.04.08.04.16.08.238l.515.476zM12.217 42.56v-.158l-.476-.476v.159l.476.476zM13.01 39.229v-.159l-.515-.476v.159l.515.476zM11.74 44.465v.158l.477.437v-.16l-.476-.435zM11.74 43.949v.159l.477.476v-.16l-.476-.475zM12.217 45.575v-.159l-.476-.475v.158l.476.476zM12.217 41.53v-.16l-.476-.436v.159l.476.436zM12.217 40.022v-.159l-.476-.476v.159l.476.476zM12.296 39.586l.12-.08-.477-.436-.119.08.476.436zM12.653 39.427l.12-.08-.477-.436-.119.08.476.436zM23.72 38.673v-.158l-.516-.437v.16l.516.435zM12.217 40.538v-.159l-.476-.476v.159l.476.476zM11.74 43.433v.159l.477.476v-.159l-.476-.476zM12.217 42.045v-.159l-.476-.476v.159l.476.476zM7.576 45.06v.158l.476.476v-.159l-.476-.475zM8.052 42.164v-.159l-.476-.476v.159l.476.476zM8.052 42.68v-.16l-.476-.475v.159l.476.476zM7.576 45.575v.159h.159l-.159-.159zM7.576 44.068v.159l.476.476v-.16l-.476-.475zM11.74 42.918v.158l.477.476v-.158l-.476-.476zM7.576 44.584v.158l.476.437v-.16l-.476-.435zM11.74 42.442v.158l.477.437v-.16l-.476-.435zM8.052 41.648v-.158l-.476-.437v.159l.476.436zM8.052 40.141v-.159l-.476-.476v.159l.476.476zM8.052 40.657v-.159l-.476-.476v.159l.476.476zM8.052 41.172v-.158l-.476-.476v.158l.476.476zM12.217 41.053v-.158l-.476-.476v.158l.476.476zM1.745 48.193h-.159l.437.436h.158l-.436-.436zM16.263 48.352l.436.436h.159l-.437-.397c-.04-.04-.079-.04-.158-.04zM42.759 46.963v-.04l-.159-.079.159.12zM.119 48.193h-.04v.12l.317.316h.199l-.476-.436zM1.19 48.193H1.03l.476.436h.159l-.476-.436zM.674 48.193H.516l.436.436h.159l-.437-.436zM12.376 48.074v.119h-.04l.436.436h.12v-.079l-.516-.476zM41.648 44.742h-.119v.04l.476.476v-.08h.08l-.437-.436zM90.001 46.885v-.04h-.04l.04.04zM83.416 48.114v.079h-.08l.476.436h.08v-.079l-.476-.436zM74.293 48.153v.04h-.08l.437.436h.158v-.04l-.515-.436zM77.148 48.272h-.158l.436.437h.159l-.437-.437zM6.03 48.193h-.16l.477.436h.158l-.476-.436zM8.052 39.625v-.079h.04l-.437-.436-.079.04v.04l.476.435zM13.01 38.713v-.119l-.515-.476v.159l.515.436zM8.37 39.427v-.159l-.318-.277-.08-.04-.079.04.476.436zM13.01 38.237v-.159l-.357-.317h-.158l.515.476zM5.514 48.193h-.159l.436.436h.159l-.436-.436zM4.442 48.193h-.158l.436.436h.159l-.437-.436zM3.372 48.193h-.199l.476.436h.159l-.436-.436zM2.816 48.193h-.158l.436.436h.159l-.437-.436zM3.887 48.193H3.73l.436.436h.198l-.476-.436zM2.26 48.193h-.158l.476.436h.159l-.476-.436zM4.958 48.193h-.159l.476.436h.159l-.476-.436zM7.576 43.552v.159l.476.476v-.159l-.476-.476zM17.413 48.788l-.436-.436h-.16l.477.436h.119zM17.413 48.272c-.04 0-.08 0-.12.04l.477.436c.04 0 .08 0 .119-.04l-.476-.436zM7.576 43.037v.158l.476.476v-.158l-.476-.476zM15.152 48.153h-.04l-.04.12.278.237.238.08-.436-.437zM17.81 48.114c-.04 0-.08.04-.12.04l.476.436c.04 0 .08-.04.12-.04l-.477-.436zM18.166 47.955c-.04.04-.079.04-.119.04l.476.436c.04 0 .08-.04.12-.04l-.477-.436zM11.423 48.193h-.158l.436.436h.159l-.437-.436zM18.444 47.717c-.04.04-.08.04-.08.08l.477.436c.04-.04.08-.04.08-.08l-.477-.436zM12.376 47.598v.159l.515.436v-.159l-.515-.436zM12.574 46.725l-.198-.079v.08l.515.475v-.158l-.317-.318zM12.376 47.082v.16l.515.475v-.159l-.515-.476zM11.74 45.456v.159l.477.476v-.159l-.476-.476zM11.979 48.193h-.199l.476.436h.159l-.436-.436zM20.07 44.703l-.04.118.477.437.04-.12-.477-.435zM20.23 44.346l-.04.119.475.436.04-.12-.476-.435zM19.912 45.06l-.04.118.476.437.04-.08-.476-.475zM17.929 38.158l-.397-.357c-.04-.04-.08-.04-.119-.08.08.08.12.199.198.278l.556.516a1.38 1.38 0 0 0-.238-.357zM19.753 45.416l-.04.12.476.436.08-.08-.516-.476zM23.72 38.197v-.158l-.318-.278h-.158l.476.436zM18.96 47.162c-.04.04-.04.08-.08.08l.476.435c.04-.04.04-.079.08-.079l-.476-.436zM19.119 46.844c0 .04-.04.08-.04.12l.476.436c0-.04.04-.08.04-.12l-.476-.436zM18.722 47.48l-.08.078.477.437.079-.08-.476-.436zM19.475 46.13l-.079.12.516.475.04-.119-.477-.476zM19.594 45.773l-.04.12.477.436.079-.08-.516-.476zM19.317 46.487l-.08.12.516.475.04-.119-.476-.476zM15.866 48.312c-.08 0-.159-.04-.198-.04l.436.397c.08 0 .159.04.198.04l-.436-.397zM3.887 42.283v-.159l-.476-.436v.159l.476.436zM3.887 41.807v-.159l-.476-.476v.159l.476.476zM3.887 41.291v-.158l-.476-.476v.158l.476.476zM3.887 40.776v-.159l-.476-.436v.158l.476.437zM3.887 43.314v-.158l-.476-.476v.158l.476.476zM3.887 42.799v-.16l-.476-.475v.159l.476.476zM7.576 42.56v.16l.476.436v-.12l-.476-.475zM3.887 40.3v-.159l-.476-.476v.159l.476.476zM3.887 43.83v-.159l-.476-.476v.159l.476.476zM11.74 45.972v.158l.04.04.397.198-.436-.396zM3.887 39.784v-.159l-.476-.476v.16l.476.475zM4.085 39.467l.08-.04v-.04l-.437-.436-.119.08.476.436zM9.797 48.193H9.64l.476.436h.158l-.476-.436zM8.727 48.193h-.16l.437.436h.199l-.476-.436zM9.282 48.193h-.159l.436.436h.159l-.436-.436zM8.21 48.193h-.198l.476.436h.159l-.436-.436zM10.868 48.193h-.159l.476.436h.16l-.477-.436zM7.655 48.193h-.158l.436.436h.198l-.476-.436zM10.352 48.193h-.158l.436.436h.159l-.437-.436zM3.887 44.306v-.159l-.476-.436v.159l.476.436zM7.14 48.193H6.94l.476.436h.16l-.437-.436zM3.887 45.337v-.159l-.476-.475v.158l.476.476zM3.887 44.822v-.16l-.476-.475v.159l.476.476zM6.584 48.193h-.158l.436.436h.159l-.437-.436zM3.808 45.734h.08v-.04l-.477-.476v.159l.397.357zM25.425 48.193h-.198l.476.436h.159l-.437-.436zM84.05 42.64l-.04.119.278.278-.04-.199-.198-.198zM79.092 38.158v-.159l-.278-.278h-.158l.436.437zM83.931 43.037l-.04.119.04.079h.199l-.199-.198zM79.092 39.15v-.16l-.515-.475v.158l.515.476zM79.092 38.634v-.159l-.515-.436v.158l.515.437zM78.1 39.744c0-.04.04-.04 0-.04h.08l-.437-.436h-.118l.475.476zM77.624 48.233h-.158l.436.436h.159l-.437-.436zM79.092 39.665v-.159l-.515-.476v.16l.515.475zM79.052 47.558v.16l.357.316v-.119l-.357-.357zM78.1 48.153c-.04 0-.079.04-.119.04l.476.436c.04 0 .08 0 .12-.04l-.477-.436zM78.894 47.876l-.12.08.477.435.08-.04-.437-.475zM78.497 48.034c-.04 0-.079.04-.119.04l.476.436c.04 0 .08-.04.12-.04l-.477-.436zM76.752 41.37c0 .04-.04.08-.04.12l.476.436c0-.04.04-.08.04-.119l-.476-.436zM76.91 40.974c0 .04-.039.08-.039.119l.476.436c0-.04.04-.079.04-.119l-.476-.436zM76.593 41.688c0 .04-.04.08-.04.119l.477.436c0-.04.04-.08.04-.119l-.477-.436zM77.03 40.617c0 .04-.04.08-.04.119l.476.436c0-.04.04-.079.04-.119l-.477-.436zM76.554 48.233c-.08 0-.159-.04-.198-.04l.436.397c.08.04.158.04.238.079l-.476-.436zM82.98 46.21l.04.04-.04-.04zM77.624 40.815c0-.04.04-.079.04-.119l-.476-.476c0 .04-.04.08-.04.12l.476.475zM79.41 47.043v-.159l-.358-.357v.159l.357.357zM79.25 46.25h-.118l.277.277v-.119h.04l-.198-.159zM83.098 45.813l-.04.12.516.435.04-.119-.516-.436zM77.664 44.385l.516.476-.08-.198-.515-.476.08.198zM77.387 43.473c.04.08.04.159.079.238l.516.476c-.04-.08-.04-.159-.08-.238l-.515-.476zM76.99 42.6c.08.08.119.199.158.318l.516.515c-.04-.119-.119-.198-.159-.317l-.515-.516zM63.266 39.467l.119-.08-.476-.436-.119.08.476.436zM63.107 40.3v-.159l-.516-.476v.159l.516.476zM67.59 45.892l-.477-.476v.16l.476.475v-.159zM83.455 45.654h-.159l.476.397h.159l-.476-.397zM63.107 41.331v-.159l-.516-.476v.159l.516.476zM67.47 42.759l-.04.08.16.158v-.159l-.12-.08zM63.107 40.815v-.158l-.516-.476v.158l.516.476zM63.107 39.784v-.159l-.516-.436v.159l.516.436zM67.113 44.425v.159l.476.436v-.159l-.476-.436zM67.59 45.535v-.158l-.477-.476v.158l.476.477zM67.113 43.394v.158l.476.476v-.158l-.476-.476zM67.272 43.076l-.08.08.397.357v-.16l-.317-.277zM67.113 43.91v.158l.476.476v-.159l-.476-.476zM71.12 48.193h-.16l.477.436h.159l-.476-.436zM73.3 48.193h-.197l.476.436h.158l-.436-.436zM72.19 48.193h-.158l.476.436h.158l-.476-.436zM73.817 48.193h-.159l.436.436h.199l-.476-.436zM72.746 48.193h-.16l.437.436h.159l-.436-.436zM74.293 47.638v.158l.515.476v-.158l-.516-.476zM74.293 47.122v.159l.515.476v-.159l-.516-.476zM70.128 48.272v.159l.198.198h.199l-.397-.357zM67.153 46.13l.278.12-.318-.318v.159l.04.04zM67.867 46.646v.159l.516.476v-.159l-.516-.476zM70.604 48.193h-.159l.437.436h.158l-.436-.436zM74.332 46.646h-.04v.12l.516.475v-.159l-.476-.436zM71.675 48.193h-.159l.436.436h.16l-.437-.436zM84.923 45.654l.198.199-.04-.199h-.158zM89.524 47.796v.12l.476.475v-.158l-.476-.437zM89.405 48.193h-.158l.476.436h.158l-.476-.436zM88.89 48.193h-.16l.437.436h.158l-.436-.436zM88.334 48.193h-.159l.476.436h.159l-.476-.436zM89.524 47.28v.16l.476.436v-.12l-.476-.475zM89.524 46.765v.159L90 47.4v-.159l-.476-.476zM87.263 48.193h-.159l.437.436h.198l-.476-.436zM86.192 48.193h-.158l.436.436h.198l-.476-.436zM87.818 48.193h-.158l.436.436h.159l-.437-.436zM85.677 48.193v.159l.277.277h.16l-.437-.436zM86.748 48.193h-.199l.476.436h.159l-.436-.436zM88.612 45.575l.515.476-.08-.238-.515-.476.08.238zM86.748 39.665l.079.198.516.476-.08-.198-.515-.476zM86.985 40.379l.08.198.515.476-.079-.198-.516-.476zM86.55 38.951l.079.198.515.476-.079-.198-.516-.476zM83.415 46.606v.12l.476.475v-.158l-.476-.437zM86.311 38.237l.08.198.515.476-.08-.198-.515-.476zM87.224 41.053l.04.238.515.476-.04-.198-.515-.516zM84.01 45.654h-.158l.436.397h.159l-.436-.397zM88.294 44.623l.08.238.515.476-.079-.238-.516-.476zM88.096 43.91l.08.237.475.476-.04-.238-.515-.476zM87.422 41.767l.08.238.515.476-.08-.198-.515-.516zM87.66 42.481l.04.238.515.476-.04-.238-.515-.476zM87.858 43.195l.08.238.515.476-.08-.238-.515-.476zM86.271 37.682h-.119v.04l.516.475-.04-.198-.357-.317zM74.253 38.673c0-.04.04-.079.04-.119l-.12-.119v.16l.08.078zM74.451 38.356c.04-.04.04-.08.08-.08l-.318-.317v.12l.238.277zM83.415 47.082v.16l.476.475v-.159l-.476-.476zM73.936 39.387c0-.04.04-.079.04-.119l-.278-.238-.12.04.358.317zM74.65 38.039s.039 0 0 0v-.159l-.16-.159h-.158l.317.318zM73.817 39.784s0-.04 0 0c0-.04.04-.08.04-.119l-.318-.317v.158l.278.278zM77.902 40.062c0-.04.04-.08.04-.12l-.476-.436c0 .04-.04.08-.04.12l.476.436zM84.566 45.654h-.198l.476.397h.158l-.436-.397zM67.59 42.52v-.158l-.437-.396.277.396.16.159zM73.698 40.141c0-.04.04-.08.04-.119l-.199-.198v.158l.159.159zM77.783 40.458c0-.04.04-.079.04-.119l-.476-.436c0 .04-.04.08-.04.119l.476.436zM78.577 39.705h.158l-.436-.437H78.1l.476.437zM74.094 39.03c0-.04.04-.079.04-.119l-.08-.079-.118.04.158.158zM81.908 48.193h-.198l.476.436h.159l-.437-.436zM82.424 48.193h-.159l.436.436h.199l-.476-.436zM81.353 48.193h-.159l.437.436h.158l-.436-.436zM82.98 48.193h-.2l.477.436h.158l-.436-.436zM80.798 48.193h-.159l.476.436h.159l-.476-.436zM83.415 47.598v.159l.476.476v-.159l-.476-.476zM80.124 48.55v.08h.079l-.08-.08zM78.22 45.932l.118-.04-.357-.357.04.199.198.198zM78.338 45.535l-.04-.198-.515-.476.04.199.516.475zM79.41 47.558V47.4l-.358-.357v.158l.357.357zM80.282 48.193h-.158v.04l.436.396h.159l-.437-.436zM73.54 40.498c0-.04.039-.08.039-.119l-.04-.04v.159zM67.59 39.982v-.158l-.477-.476v.158l.476.476zM62.591 45.734v.158l.397.397.119.04v-.12l-.516-.475zM63.702 43.91v-.16h-.158l.158.16zM51.525 40.934v.08l.04-.08h-.04zM62.591 45.218v.159l.516.476v-.159l-.516-.476zM62.591 44.227v.158l.516.476v-.158l-.516-.477zM62.591 44.742v.159l.516.436v-.159l-.516-.436zM56.92 46.963v.16l.475.475v-.159l-.476-.476zM56.087 48.193h-.199l.476.436h.159l-.437-.436zM55.531 48.193h-.158l.436.436h.198l-.476-.436zM56.602 48.193h-.159l.437.436h.198l-.476-.436zM56.92 47.48v.158l.475.436v-.119l-.476-.476zM57.395 48.59v-.159l-.476-.436v.119l.476.476zM56.642 39.824v-.159l-.477-.476v.159l.477.476zM62.631 43.75h-.04v.12l.516.476v-.16l-.476-.435zM55.015 48.193h-.198l.476.436h.159l-.437-.436zM56.642 40.815v-.158l-.477-.437v.159l.477.436zM56.8 39.467l.12-.04-.476-.476-.08.08.437.436zM56.642 41.847v-.159l-.477-.476v.159l.477.476zM56.642 41.331v-.159l-.477-.476v.159l.477.476zM56.642 40.34v-.16l-.477-.475v.158l.477.476zM57.276 37.88v-.119h-.158l.158.12zM63.187 43.75h-.199l.476.437h.159l-.436-.436zM57.276 38.911v-.158l-.476-.476v.158l.476.476zM57.157 39.268l.12-.04-.477-.436-.119.04.476.436zM57.276 38.396v-.159l-.476-.476v.159l.476.476zM49.621 48.193h-.159l.437.436h.158l-.436-.436zM42.68 44.703h-.159l.476.436h.159l-.476-.437zM42.164 44.742h-.159l.437.437h.158l-.436-.437zM41.53 45.139v.158l.475.477v-.16l-.476-.475zM43.156 44.623c-.04 0-.08 0-.159.04l.476.436c.04 0 .08 0 .159-.04l-.476-.436zM41.53 45.813l.475.436v-.158l-.476-.437v.16zM43.592 44.544c-.04 0-.08.04-.119.04l.476.436c.04 0 .08-.04.12-.04l-.477-.436zM42.283 47.36v.159l.476.476v-.159l-.476-.476zM42.084 48.193h-.158l.436.436h.198l-.476-.436zM54.46 48.193H54.3l.437.436h.158l-.436-.436zM42.283 46.844v.16l.476.475v-.159l-.476-.476zM42.76 48.312l-.477-.436v.119l.476.476v-.159zM43.989 44.425c-.04 0-.08.04-.12.04l.477.436c.04 0 .079-.04.119-.04l-.476-.436zM41.53 48.193h-.16l.477.436h.158l-.476-.436zM52.318 48.193h-.158l.436.436h.159l-.437-.436zM52.834 48.193h-.159l.476.436h.159l-.476-.436zM51.763 48.193h-.158l.436.436h.198l-.476-.436zM53.905 48.193h-.159l.476.436h.159l-.476-.436zM51.247 48.193h-.198l.476.436h.159l-.437-.436zM53.39 48.193h-.16l.437.436h.158l-.436-.436zM49.066 48.193h-.159l.476.436h.159l-.476-.436zM50.692 48.193h-.159l.436.436h.16l-.437-.436zM48.55 48.193h-.158l.436.436h.159l-.437-.436zM48.47 48.63l-.356-.358v.159l.158.198h.199zM50.137 48.193h-.159l.476.436h.159l-.476-.436zM56.642 42.323v-.12l-.477-.475v.158l.477.437zM63.583 48.193h-.159l.476.436h.159l-.476-.436zM62.591 41.212v.119h.159l-.159-.119zM67.867 47.162v.158l.516.437v-.159l-.516-.436zM63.623 39.268h.04l.04.04v-.08l-.199-.198-.357-.198.476.436zM68.224 38.078v-.158l-.159-.159h-.158l.317.317zM67.867 47.638v.158l.516.476v-.158l-.516-.476zM73.54 45.892v.16l.039.039.357.198-.397-.397zM68.224 38.594v-.159l-.476-.476v.16l.476.475zM65.765 48.193h-.159l.436.436h.159l-.436-.436zM65.21 48.193h-.16l.437.436h.198l-.476-.436zM66.835 48.193h-.158l.436.436h.159l-.437-.436zM67.351 48.193h-.159l.476.436h.159l-.476-.436zM67.867 48.153v.04h-.119l.436.436h.159l-.476-.476zM66.28 48.193h-.158l.476.436h.158l-.476-.436zM41.014 48.193h-.159l.436.436h.159l-.436-.436zM67.629 39.546l.119-.08-.476-.436-.08.08.437.436zM67.59 40.498v-.159l-.477-.476v.159l.476.476zM67.59 41.014v-.159l-.477-.476v.159l.476.476zM67.59 41.49v-.159l-.477-.436v.119l.476.476zM67.986 39.348l.119-.04-.476-.476-.12.08.477.436zM68.224 39.07v-.159l-.476-.436v.159l.476.436zM73.54 44.385v.159l.475.476v-.159l-.476-.476zM73.54 44.9v.16l.475.475v-.158l-.476-.476zM73.658 43.632l.198.198c-.079-.08-.118-.159-.198-.198zM73.54 43.87v.158l.475.476v-.158l-.476-.476zM73.54 45.416v.12l.475.475v-.158l-.476-.437zM56.166 44.227v.158l.476.476v-.158l-.477-.477zM52.04 40.022v-.159l-.515-.476v.159l.516.476zM52.358 39.308l.04-.08-.358-.356-.119.04.437.396zM64.694 48.193h-.198l.476.436h.158l-.436-.436zM52.04 39.546l.12-.08-.476-.436-.08.08.437.436zM56.642 45.734l-.477-.476v.158l.477.477v-.16zM51.684 40.696l.04-.079-.2-.198v.158l.16.12zM56.166 43.235v.159l.476.476v-.16l-.477-.475zM56.642 42.838v-.158l-.477-.437v.12l.477.475zM56.166 42.72v.158l.476.476v-.159l-.477-.476zM56.642 45.377v-.159l-.477-.476v.159l.477.476zM56.602 46.329l.04.04v-.16l-.477-.436v.12l.437.436zM56.166 43.75v.16l.476.436v-.16l-.477-.435zM51.842 40.379l.08-.119-.397-.357v.159l.317.317zM62.512 48.193h-.159l.477.436h.158l-.476-.436zM56.998 46.686l.397.396v-.158l-.397-.238zM63.067 48.193h-.158l.436.436h.159l-.437-.436zM61.441 48.193h-.158l.476.436h.158l-.476-.436zM64.139 48.193h-.159l.436.436h.199l-.476-.436zM67.59 42.005v-.158l-.477-.476v.158l.476.476zM61.997 48.193h-.16l.437.436h.159l-.436-.436zM59.14 48.55v.08h.08l-.08-.08zM59.3 48.193h-.16v.04l.437.396h.159l-.437-.436zM60.925 48.193h-.198l.476.436h.159l-.437-.436zM60.37 48.193h-.159l.437.436h.198l-.476-.436zM59.855 48.193h-.199l.476.436h.159l-.436-.436z" fill="#7C7C7B"/><path d="M49.74 16.54l-.159-.079-.08.159c-1.387 2.816-1.784 5.473-1.863 6.901h-1.785V15.43h-.16c-.356-.04-.673-.04-.99-.04-.318 0-.635 0-.992.04h-.159v8.091h-1.785c-.08-1.428-.476-4.085-1.864-6.901l-.08-.159-.158.08c-1.825.832-1.666 1.983-1.19 3.053.872 1.865.912 3.332.912 4.76v1.468H49.978v-1.468c0-1.428.08-2.776.952-4.76.436-1.07.634-2.22-1.19-3.054z" fill="#fff"/><path d="M48.312 23.521c.08-1.309.357-3.649 1.626-6.346.04-.119-.08-.238-.159-.278-1.309 2.737-1.666 5.315-1.745 6.624h.278zM44.187 23.521v-7.615s.08-.04.317-.12c.238-.079.516-.118.516-.118-.595 0-1.031.079-1.15.079v7.814h.317v-.04zM40.022 25.425v-1.11c0-1.547-.119-2.975-.912-4.72-.199-.397-.952-1.904.515-2.737-.793.396-1.586 1.11-.833 2.697.913 1.943.913 3.213.913 4.76v1.07l.317.04z" fill="#646363"/><path d="M49.938 27.091h-10.63v.674h10.63v-.674z" fill="#282727"/><path d="M55.61 13.883l5.633-5.633-.476-.476-5.712 5.712c.199.159.357.278.556.397zM53.151 12.257l3.411-5.117-.555-.357-3.49 5.196c.238.08.436.198.634.278zM53.905 3.173l-.635-.277-3.372 8.012c.199.08.437.119.635.198l3.372-7.933zM31.732 15.906l.476-.476-2.777-1.944-.396.555 2.697 1.865zM57.673 15.787l2.499-1.746-.397-.555-2.578 1.785c.158.198.317.357.476.516zM42.005 10.353l-1.348-6.545-.675.119 1.349 6.545c.238-.04.476-.08.674-.12zM49.224 3.966l-.674-.119-1.309 6.466c.238.04.437.08.675.119l1.309-6.466zM34.23 13.605l-5.79-5.83-.476.475 5.751 5.791c.159-.158.357-.277.516-.436zM36.77 12.058l-3.53-5.275-.596.357 3.491 5.236c.238-.12.436-.199.635-.318zM44.94 10.154V0h-.674v10.154H44.94zM39.308 10.987l-3.411-8.091-.595.277 3.411 8.052c.159-.08.397-.159.595-.238zM67.351 32.168H57.237v.635H67.51a.596.596 0 0 0-.16.436c0 .397.318.714.714.714a.711.711 0 0 0 .714-.714c0-.158-.04-.357-.119-.476-.198-.357-.674-.595-1.309-.595z" fill="#D0965A"/><path d="M78.1 27.924c0-.555-.237-1.07-.634-1.467a2.037 2.037 0 0 0-1.468-.595c-.476 0-.952.198-1.269.515-.238.238-.397.516-.436.833h-4.72c.119-.476.119-.952.04-1.467-.16-.952-.675-1.825-1.429-2.5-.158-.118-.277-.237-.436-.317-.674-.476-1.547-.634-2.34-.476a2.939 2.939 0 0 0-1.983 1.349c-.238.317-.357.714-.397 1.11h-3.412c-.475 0-.912-.198-1.269-.555-.357-.357-.555-.833-.515-1.309 0-.396.158-.753.436-.991s.635-.397.992-.397a1.085 1.085 0 0 1 1.11 1.071c0 .12-.04.238-.079.357-.04.12-.119.198-.238.278l-.238.119c.04-.08.04-.159.04-.238-.04-.318-.318-.595-.635-.595h-.04a.548.548 0 0 0-.436.238c-.119.119-.159.277-.159.476 0 .198.12.436.318.595.158.119.396.238.634.277.318.04.635-.04.913-.238.198-.119.357-.317.476-.515.119-.199.158-.437.158-.675a1.74 1.74 0 0 0-.515-1.23c-.318-.356-.794-.515-1.27-.515-.555 0-1.07.238-1.467.595a1.82 1.82 0 0 0-.595 1.23h-1.23a5.66 5.66 0 0 1 .913-2.698c.713-1.15 1.586-2.062 2.578-2.657 1.428-.912 3.252-1.23 4.204-1.349-.476.635-1.348 1.666-2.42 2.261-.674.357-1.11.516-1.11.516l.159.634c.04 0 .515-.158 1.269-.555 1.745-.952 2.975-2.935 3.054-3.014l.318-.516h-.596c-.119 0-3.014.119-5.196 1.507-1.07.675-1.983 1.627-2.776 2.856-1.15 1.864-.992 3.61-.992 3.689h1.904c.08.516.317.992.714 1.388.476.476 1.11.754 1.983.754h3.213c0 .04 0 .119.04.159.119.515.357.991.714 1.309H52.834v.674h12.574s.357 0 .555-.04a2.14 2.14 0 0 0 1.349-.912 1.9 1.9 0 0 0 .277-.793c.04-.278 0-.556-.119-.833-.158-.397-.396-.675-.753-.833-.199-.12-.476-.159-.714-.159h-.08c-.277.04-.515.159-.674.357-.238.317-.198.754.12.992a.702.702 0 0 0 .99-.12c.08-.118.16-.277.16-.396.158.08.237.238.317.436.08.159.08.357.08.516 0 .159-.08.357-.16.476a1.494 1.494 0 0 1-.912.635c-.833.158-1.706-.476-1.904-1.428-.119-.476 0-.992.278-1.428a2.325 2.325 0 0 1 1.547-1.032 2.58 2.58 0 0 1 1.864.357c.119.08.238.199.357.278.674.555 1.11 1.27 1.23 2.063a3.055 3.055 0 0 1-.556 2.3c-.079.12-.158.238-.277.357-.476.555-1.19.992-1.984 1.19-.555.12-1.03.12-1.03.12H55.015c-1.071.039-1.984.951-1.984 2.022 0 .08 0 .198.04.278H36.373c0-.08.04-.199.04-.278 0-1.07-.913-1.983-1.984-2.023H24.116s-.515 0-1.03-.119c-.794-.198-1.508-.595-1.984-1.19-.08-.119-.198-.238-.278-.357-.476-.714-.674-1.507-.515-2.3.119-.794.555-1.508 1.23-2.063.118-.08.237-.198.356-.278.556-.357 1.19-.476 1.864-.357.635.12 1.19.516 1.547 1.032.278.436.397.952.278 1.428-.159.753-.714 1.309-1.349 1.428 0 0-.277.04-.515 0-.397-.08-.714-.278-.912-.635a.762.762 0 0 1-.16-.476c-.039-.159 0-.357.08-.516.08-.198.198-.357.317-.436 0 .159.08.278.16.397.237.277.713.357.99.119a.702.702 0 0 0 .12-.992c-.159-.198-.397-.317-.675-.357-.277-.04-.555.04-.793.159-.317.158-.595.476-.753.833a1.531 1.531 0 0 0-.12.833 1.9 1.9 0 0 0 .278.793c.318.476.754.793 1.31.872.356.04.951.04.951.04H36.69v-.674H25.584c.357-.357.595-.793.674-1.309 0-.04 0-.119.04-.159h3.292c.952 0 1.587-.357 1.983-.753.357-.397.596-.873.715-1.389h1.745c0-.079.158-1.824-.992-3.689-.793-1.23-1.705-2.181-2.776-2.855-2.261-1.508-5.157-1.587-5.276-1.587h-.555l.277.516c.04.079 1.35 2.34 3.055 3.054.753.317 1.467.555 1.507.555l.198-.595s-.714-.238-1.428-.515c-1.031-.437-1.943-1.587-2.42-2.261.953.119 2.817.436 4.245 1.348.992.635 1.825 1.508 2.578 2.658.635 1.031.833 2.062.912 2.697h-1.07c-.04-.476-.278-.912-.595-1.23a2.037 2.037 0 0 0-1.468-.595c-.476 0-.952.199-1.27.516a1.813 1.813 0 0 0-.515 1.23c0 .238.08.476.159.674.119.198.277.397.476.516.277.198.595.277.912.238.238-.04.476-.12.635-.278.198-.159.317-.357.317-.595a.762.762 0 0 0-.159-.476.945.945 0 0 0-.436-.238h-.04c-.317 0-.595.238-.634.595 0 .08 0 .159.04.238-.08-.04-.16-.04-.239-.119-.119-.08-.198-.159-.238-.278-.04-.119-.08-.238-.08-.357 0-.277.12-.555.318-.753.278-.278.556-.317.794-.317.357 0 .713.158.991.396.278.278.436.635.436.992 0 .515-.198.952-.555 1.309a1.711 1.711 0 0 1-1.27.555H26.378c-.04-.397-.198-.754-.396-1.11a3.125 3.125 0 0 0-1.984-1.35c-.793-.158-1.666 0-2.34.477-.158.08-.277.198-.436.317-.793.674-1.309 1.547-1.428 2.499-.08.476-.04.992.04 1.468h-4.88a2.097 2.097 0 0 0-.435-.833c-.318-.357-.794-.516-1.27-.516-.555 0-1.07.238-1.467.595-.397.397-.635.912-.635 1.467 0 .675.238 1.31.714 1.825a2.57 2.57 0 0 0 1.825.754H34.469c.714.04 1.309.634 1.309 1.348 0 .754-.595 1.349-1.349 1.349.04-.08.08-.198.08-.317a.753.753 0 1 0-1.508 0c0 .317.12.555.437.753.317.159.674.199 1.031.199.754 0 1.428-.437 1.785-1.071h16.897c.357.634.992 1.07 1.785 1.07.357 0 .675-.039.992-.198.278-.158.476-.436.476-.753a.753.753 0 1 0-1.508 0c0 .119.04.198.08.317a1.337 1.337 0 0 1-1.349-1.349c0-.714.595-1.348 1.31-1.348h20.427c.872 0 1.586-.318 2.023-.754.436-.436.714-1.11.714-1.785zm-66.28 0c0-.396.159-.753.437-.991.277-.238.634-.397.991-.397a1.085 1.085 0 0 1 1.11 1.07c0 .12-.039.239-.079.358s-.158.198-.238.277l-.237.12c.04-.08.04-.16.04-.239-.04-.317-.318-.594-.635-.594h-.04a.548.548 0 0 0-.436.238c-.12.119-.16.277-.16.476 0 .198.12.436.318.595.159.119.397.238.635.238.317.04.635-.04.912-.238.198-.12.357-.318.476-.516a.766.766 0 0 0 .12-.397h4.918c.079.238.238.436.357.675.079.119.198.277.317.396.278.357.635.635 1.031.873h-7.853c-.556 0-1.111-.238-1.428-.595a1.889 1.889 0 0 1-.556-1.349zm63.623 1.904h-7.814a4.449 4.449 0 0 0 1.031-.872c.12-.16.238-.278.318-.397.158-.199.277-.437.357-.675h4.918c.04.12.08.278.12.397.118.199.277.397.475.516.278.198.595.277.912.238.238-.04.476-.12.635-.278.198-.159.317-.357.317-.595a.605.605 0 0 0-.595-.674h-.04c-.317 0-.594.238-.634.595 0 .08 0 .159.04.238-.08-.04-.159-.04-.238-.12-.12-.079-.199-.158-.238-.277-.08-.119-.08-.238-.08-.357 0-.277.12-.555.318-.753.277-.278.555-.318.793-.318.357 0 .714.159.992.397.277.278.436.635.436.991 0 .516-.198.953-.555 1.31-.357.396-.992.634-1.468.634z" fill="#D0965A"/><path d="M20.586 32.803c-.079.119-.119.317-.119.476 0 .397.318.714.714.714a.71.71 0 0 0 .714-.714c0-.159-.08-.317-.158-.436H32.01v-.635H21.856c-.595-.04-1.071.198-1.27.595zM45.615 13.13a.965.965 0 0 1-.952.951.965.965 0 0 1-.952-.952c0-.515.436-.952.952-.952s.952.437.952.952zM47.202 15.668c-.08.634-.16 1.507-.199 2.3a66.295 66.295 0 0 0-.119 3.53h.08c.238-2.697.793-4.482 1.23-5.592-.318-.08-.635-.159-.992-.238zM42.164 15.628a7.23 7.23 0 0 0-.992.278c.437 1.11.992 2.856 1.23 5.553h.08c0-.833 0-2.182-.12-3.53-.079-.833-.119-1.627-.198-2.3z" fill="#D0965A"/></svg>