<svg width="41" height="37" viewBox="0 0 41 37" fill="none" xmlns="http://www.w3.org/2000/svg">
<path d="M39.703 13.6548C39.4148 13.4345 39.0545 13.2877 38.6942 13.1409C36.3885 5.35915 29.2549 0 21.3287 0C11.3128 0 3.17048 8.29561 3.17048 18.5C3.17048 19.2341 3.24257 19.9683 3.31459 20.7024C1.81314 22.144 0.71834 23.9692 0.144107 25.9881L0 26.4286L0.432321 26.2818C0.720536 26.2083 1.00875 26.0615 1.29703 25.9881C2.30584 25.621 3.38667 25.254 4.3234 24.9603C6.98948 32.1548 13.7628 37 21.3287 37C31.3445 37 39.4868 28.7044 39.4868 18.5C39.4868 17.9861 39.4868 17.3988 39.4148 16.8849C40.2074 16.5913 40.7118 16.2976 40.8559 15.8571L40.9279 15.7837V15.7103C40.9279 15.6369 41 15.5635 41 15.4167C41.0001 14.8294 40.5677 14.1687 39.703 13.6548ZM14.1951 9.32341L14.123 8.66269L14.0509 8.44243L13.8347 7.92853L13.6906 7.78171L13.2583 7.19443L13.1142 7.04761L12.6819 6.46033L12.5378 6.24007C12.5378 6.24007 12.3936 6.0198 12.3936 5.87298C12.7539 4.91862 15.7082 4.47816 19.3831 4.47816C21.761 4.47816 24.355 4.62498 26.8049 4.99207C29.1828 5.35915 31.3444 5.79961 32.7856 6.38689C33.7944 6.82735 34.3708 7.26787 34.3708 7.78171C34.1546 8.29561 33.7944 8.66269 33.5061 9.02971C33.0017 9.61699 32.5694 10.2043 32.2812 11.0852C26.6608 9.98413 20.1757 9.54361 14.2672 9.76387H14.1951C14.2103 9.66396 14.2344 9.56568 14.2672 9.47023L14.1951 9.32341ZM16.2847 15.7837C16.4288 15.4901 16.5729 15.3433 16.7891 15.123C17.2024 14.702 17.729 14.4152 18.3022 14.2991C18.8755 14.1829 19.4696 14.2425 20.0096 14.4704C20.5496 14.6983 21.0111 15.0842 21.3358 15.5793C21.6606 16.0744 21.8339 16.6565 21.8339 17.252C21.8339 17.8475 21.6606 18.4296 21.3358 18.9247C21.0111 19.4198 20.5496 19.8057 20.0096 20.0336C19.4696 20.2615 18.8755 20.3211 18.3022 20.2049C17.729 20.0888 17.2024 19.802 16.7891 19.381C16.1406 18.7203 15.7803 17.6925 15.9965 16.7381L16.0686 16.4445C16.1183 16.2173 16.1908 15.9959 16.2847 15.7837ZM13.7628 14.3154C13.5466 14.7559 13.4025 15.4166 13.3304 15.9305C12.3937 15.7102 11.457 15.5634 10.6644 15.3432C7.71007 14.5357 5.83662 13.7281 5.76453 12.994C7.63799 12.5536 10.8806 12.3333 14.7716 12.4068C14.3392 12.9207 13.979 13.6548 13.7628 14.3154ZM13.6187 20.6289C10.7364 20.6289 8.35852 21.2162 6.34096 22.0972C4.3234 22.9782 2.66607 24.2262 1.00881 25.5476C0.864705 25.621 0.720598 25.621 0.648513 25.6944C1.32361 23.5167 2.66108 21.6141 4.46751 20.2619C6.55715 18.6468 9.51144 17.3988 13.4745 16.5913H13.6907V16.004C13.979 16.004 14.3392 16.004 14.6275 16.0774C14.9157 16.1509 15.2039 16.2243 15.4922 16.4445C15.276 17.6191 15.5643 18.7937 16.4289 19.6747C17.7259 20.9961 19.9597 20.9961 21.2566 19.6747C22.5536 18.3532 22.5537 16.0774 21.2566 14.7561C19.9596 13.4347 17.87 13.4346 16.5009 14.6826C16.1406 14.5358 15.7083 14.389 15.348 14.2422C14.9877 14.1687 14.6275 14.1687 14.2672 14.1687C14.5554 13.508 14.8436 12.9207 15.2039 12.4068C17.87 12.4803 20.8243 12.6271 23.7786 12.8473C24.1389 12.8473 24.4991 12.9207 24.7874 12.9207C24.4992 14.2422 24.211 15.4902 23.7786 16.7382C23.3463 17.9128 22.9139 19.014 22.4096 19.8949C22.1213 20.4088 21.761 20.8492 21.4007 21.3631C21.0404 21.8036 20.6802 22.3175 20.2478 22.758C18.3023 24.5199 15.9244 24.8134 13.5466 24.373C13.4745 24.2996 13.4025 24.1528 13.3304 24.0794L13.1142 23.639V23.4921H12.9701C12.9309 23.4971 12.8912 23.493 12.8538 23.4803C12.8164 23.4676 12.7823 23.4466 12.7539 23.4187H12.5377C12.3936 23.4187 12.2495 23.3452 12.1054 23.3452H9.79966C9.62854 23.3382 9.4576 23.3631 9.29525 23.4187H9.07906C8.93495 23.4187 8.71876 23.4921 8.57465 23.4921H8.35846C8.21436 23.4921 7.99816 23.5656 7.85406 23.5656L7.63786 23.639C7.53697 23.6358 7.43719 23.6612 7.34965 23.7125H7.20554L6.98935 23.7859C6.84524 23.7859 6.70114 23.8593 6.55703 23.8593H6.34084C6.19673 23.8593 6.05262 23.9327 5.98054 23.9327L5.76435 24.0062C5.62024 24.0062 5.54816 24.0796 5.40405 24.0796L5.11602 24.2262C4.98241 24.229 4.85434 24.2812 4.75572 24.373L4.53953 24.4465C3.81899 24.6668 3.17048 24.8869 2.44988 25.1072C3.74691 24.1529 5.04394 23.2719 6.62918 22.5378C8.57472 21.6568 10.8805 21.0695 13.6907 21.0695C13.8348 21.0695 13.9069 20.9961 13.9069 20.8492C13.8348 20.7024 13.7628 20.6289 13.6187 20.6289ZM25.58 15.9305C25.7241 16.0039 25.7962 15.9305 25.8682 15.8571C26.0844 15.49 26.1564 15.123 26.3005 14.6091C26.3726 14.1686 26.4446 13.6547 26.5167 13.0674C26.8049 13.0674 27.0211 13.1409 27.3093 13.1409C26.7329 17.3988 26.0123 21.8035 22.9859 25.254C22.1933 26.2083 21.2566 26.8691 20.2478 27.383C18.9507 27.9702 17.0052 28.2639 15.5641 27.9702C14.9877 27.8234 14.6274 27.5298 14.4112 27.2361C14.2644 26.9938 14.1893 26.7134 14.195 26.4286C14.8402 26.6743 15.5238 26.7987 16.2126 26.7957C16.8611 26.7222 17.4375 26.5754 18.3022 26.2084C18.4463 26.135 18.4463 26.0616 18.4463 25.9148C18.3743 25.7679 18.3022 25.7679 18.1581 25.7679C17.3655 26.0616 16.7891 26.2818 16.2126 26.2818C15.6361 26.2818 14.9876 26.2084 14.1229 25.9148C13.8347 25.7679 13.6185 25.5477 13.5465 25.3275C13.4745 25.1386 13.4745 24.9291 13.5465 24.7402C16.4288 25.3275 18.8066 24.7402 20.6801 23.0517C20.8242 22.9782 20.8963 22.8314 21.0404 22.758C21.8014 21.9692 22.4557 21.0804 22.9859 20.1151V19.8949V19.6746L23.058 19.6012L23.1301 19.4544L23.2022 19.3809C23.2743 19.3075 23.2743 19.2341 23.3463 19.0873C23.6345 18.4266 23.9948 17.619 24.211 16.8115C24.6086 15.6063 24.9453 14.3812 25.2198 13.1409L25.2919 12.9206C25.5801 12.9206 25.7963 12.994 26.0845 12.994C26.0124 13.5813 25.9404 14.0952 25.8683 14.4623C25.7962 14.9028 25.6521 15.2698 25.508 15.6369C25.4359 15.7103 25.4359 15.8571 25.58 15.9305ZM28.5343 29.6587L28.6784 31.5674L20.608 36.4861H20.536L20.7522 36.2658C22.3375 34.3571 23.9947 32.5218 25.4359 30.4662C26.0844 29.5119 26.7329 28.6309 27.3814 27.6031L27.4535 27.5297V27.3094L27.5256 27.236L27.5977 27.1626C28.1022 26.355 28.6066 25.4741 29.1108 24.5197C29.2549 24.2994 29.399 24.0792 29.4711 23.7856L29.8314 24.8868L29.9755 25.474L31.1284 29.2915L28.6786 29.3649H28.4622L28.5343 29.6587ZM14.8436 32.6687L14.6995 31.7143L16.3568 30.4663L15.8523 33.6965L15.5641 35.4584C15.492 35.4584 15.42 35.3849 15.2759 35.3849L14.8436 32.6687ZM14.8436 35.2381C14.2672 35.0178 13.7628 34.7242 13.1863 34.504L14.4833 33.256L14.8436 35.2381ZM16.2847 33.8433L16.645 33.5496L16.8612 33.9901L16.4289 35.752C16.2848 35.6786 16.1407 35.6786 15.9966 35.6052L16.2847 33.8433ZM16.3568 33.256L16.645 31.5675C16.7171 31.6409 16.7891 31.7877 16.8612 31.8611C17.0053 32.0814 17.2215 32.2282 17.4376 32.4484L16.3568 33.256ZM18.2303 34.2104L18.6626 33.4026L21.0404 35.1645C20.7522 35.4582 20.536 35.7518 20.2478 36.0455C20.1037 36.1923 20.0316 36.3392 19.8875 36.4126C19.3831 36.3392 18.9508 36.3392 18.4464 36.2658L18.2303 34.2104ZM18.3744 32.5953C19.0949 32.5219 19.7434 32.375 20.3919 32.2282C22.1934 31.7143 23.7065 30.9068 25.0036 29.7322C25.3816 29.4095 25.7423 29.0664 26.0844 28.7044C25.7241 29.2183 25.4359 29.7322 25.0756 30.1727C24.7153 30.6131 24.355 31.127 23.9947 31.5675C23.2021 32.5953 22.3374 33.623 21.4728 34.6508H21.2566L18.3744 32.5953ZM29.3269 18.2064C29.1107 19.748 29.1107 21.2163 29.3269 23.1984C28.5343 24.6667 27.7416 26.0615 26.8049 27.2361C26.0844 28.1171 25.3638 28.9247 24.4991 29.6588C23.2742 30.6131 21.9051 31.4207 20.3199 31.8611C19.5184 32.0851 18.6982 32.2326 17.87 32.3016L17.2215 31.6409C17.0313 31.439 16.8622 31.2176 16.717 30.9801C16.717 30.8333 16.7891 30.7599 16.7891 30.6131C16.9332 29.9523 17.0053 29.2916 16.9332 28.6309H17.7259C17.9421 28.6309 18.0862 28.6309 18.2303 28.5574H18.4465C18.5906 28.5574 18.8068 28.484 18.9509 28.484L19.1671 28.4106C19.3112 28.3371 19.5274 28.3371 19.6715 28.2637L19.8877 28.1903L20.32 27.97L20.5362 27.8966L20.9685 27.6763L21.1847 27.5295C21.3288 27.4561 21.4729 27.3093 21.617 27.2359L21.8332 27.0891C21.9773 27.0156 22.0494 26.8688 22.1935 26.7954L22.4097 26.5752C22.5538 26.5017 22.6259 26.3549 22.77 26.2815L22.9862 26.0613C23.1303 25.9144 23.2024 25.841 23.2744 25.6942L23.4906 25.4005C23.6347 25.2537 23.7068 25.1069 23.8509 24.9601L24.0671 24.6664C25.5802 22.5375 26.7331 19.5275 27.3817 15.8569C27.5258 15.0494 27.6699 14.2418 27.742 13.3609C28.6787 13.4344 29.6154 13.5812 30.4801 13.728C29.9753 15.2698 29.5431 16.7381 29.3269 18.2064ZM21.4728 36.4861L29.0386 31.8611L29.1827 31.7877V31.6409L29.0386 29.879L31.4885 29.8055H31.7767L31.7046 29.4384L30.696 26.135L35.1635 29.6588C31.993 33.7698 27.0211 36.4127 21.4728 36.4861ZM35.2358 17.252C33.7227 17.3988 31.9212 17.4723 29.9037 17.4723C30.1199 16.2976 30.5522 15.0496 30.9845 13.5814C35.0917 14.1687 38.5504 14.9028 40.3518 15.7837C39.9912 16.4445 38.1178 16.9584 35.2358 17.252ZM31.2007 13.1409L30.9845 13.0675C28.7507 12.627 26.2287 12.4802 23.923 12.3334C16.5732 11.7461 9.22348 11.6727 5.8368 12.4802C6.1971 11.5258 8.07056 10.9386 10.5204 10.5715C11.5293 10.4247 12.6101 10.3512 13.6909 10.2778H13.835C20.3921 9.98419 29.1109 10.5715 36.1004 12.5536C37.4695 12.9941 38.6224 13.4346 39.415 13.9485C40.0635 14.3889 40.4958 14.8294 40.4958 15.2699C38.6942 14.4623 35.2361 13.7283 31.2007 13.1409Z" fill="#D99A61"/>
<path d="M18.4421 17.4359C18.7536 17.4359 18.9095 17.3333 18.9614 17.1282C19.1691 17.1795 19.5326 17.1795 19.6884 17.2821C19.5326 17.5898 18.5979 17.6923 18.2863 17.6923C18.1824 17.6923 18.1305 17.7436 18.1305 17.8462C18.1305 17.9488 18.1824 18 18.2863 18C18.7017 18 20 17.8461 20 17.282V17.2308C20 16.8718 19.7923 16.6154 19.5326 16.4102C19.221 16.2051 18.8056 16.1026 18.3382 16C18.2344 16 18.1824 16.0513 18.1824 16.1539C18.1824 16.2564 18.2344 16.3077 18.3382 16.3077C18.7536 16.359 19.1172 16.4616 19.3768 16.6154C19.4807 16.718 19.5845 16.8205 19.6365 16.9231C19.5326 16.9231 19.4807 16.8718 19.3768 16.8718C19.001 16.7895 18.6188 16.738 18.2344 16.7179C17.8709 16.718 17.9228 17.4359 18.4421 17.4359Z" fill="#D99A61"/>
</svg>
