<svg width="91" height="69" viewBox="0 0 91 69" fill="none" xmlns="http://www.w3.org/2000/svg">
<path d="M34.5078 57.9506V57.2367H34.9045V57.8713C34.9045 58.1093 35.0235 58.268 35.2614 58.268C35.4598 58.268 35.6184 58.1886 35.7374 58.149V57.2367H36.1341V59.4579H35.7374V58.5853C35.7374 58.5456 35.7374 58.4663 35.7374 58.4663C35.6184 58.5059 35.4201 58.5853 35.1821 58.5853C34.7458 58.6249 34.5078 58.387 34.5078 57.9506Z" fill="#1C1C1C"/>
<path d="M38.197 57.2367H38.6333L39.4266 59.4579H39.03L38.8316 58.9026H38.0383L37.84 59.4579H37.4434L38.197 57.2367ZM38.7126 58.5456L38.5143 57.9506C38.4746 57.8316 38.435 57.5936 38.435 57.5936C38.435 57.5936 38.3953 57.8316 38.3557 57.9506L38.1573 58.5456H38.7126Z" fill="#1C1C1C"/>
<path d="M41.6093 57.197C41.8869 57.197 42.2042 57.2764 42.4422 57.5143L42.2439 57.8317C42.0853 57.7127 41.8473 57.5937 41.6489 57.5937C41.173 57.5937 40.8953 57.9507 40.8953 58.3473C40.8953 58.7836 41.173 59.1406 41.6489 59.1406C41.8869 59.1406 42.1249 59.0216 42.2836 58.863L42.4819 59.1406C42.2836 59.3389 42.0059 59.4976 41.6093 59.4976C40.8953 59.4976 40.459 58.982 40.459 58.3473C40.459 57.673 40.935 57.197 41.6093 57.197Z" fill="#1C1C1C"/>
<path d="M44.2667 57.554H43.5527V57.2367H45.417V57.554H44.6634V59.4579H44.2667V57.554Z" fill="#1C1C1C"/>
<path d="M46.6465 57.2367H47.0828V58.149H48.0744V57.2367H48.4711V59.4579H48.0744V58.5059H47.0828V59.4579H46.6465V57.2367Z" fill="#1C1C1C"/>
<path d="M50.4939 57.2367H50.9302L51.7235 59.4579H51.3268L51.1285 58.9026H50.3352L50.1369 59.4579H49.7402L50.4939 57.2367ZM51.0095 58.5456L50.8112 57.9506C50.7715 57.8316 50.7319 57.5936 50.7319 57.5936C50.7319 57.5936 50.6922 57.8316 50.6525 57.9506L50.4542 58.5456H51.0095Z" fill="#1C1C1C"/>
<path d="M53.1902 58.6646C53.2299 58.5853 53.2696 58.5456 53.2696 58.5456C52.9919 58.4266 52.8729 58.1886 52.8729 57.911C52.8729 57.5937 53.0316 57.3953 53.2299 57.316C53.3092 57.2763 53.4282 57.2763 53.6662 57.2763H54.3802V59.4976H53.9835V58.6646H53.6662L53.1902 59.4976H52.7539L53.1902 58.6646ZM53.9835 58.268V57.554H53.7059C53.5472 57.554 53.4679 57.5937 53.4282 57.5937C53.3489 57.6333 53.3092 57.7523 53.3092 57.8713C53.3092 58.1093 53.4282 58.2283 53.6662 58.2283H53.9835V58.268Z" fill="#1C1C1C"/>
<path d="M29.709 61.1238H30.5023C30.8989 61.1238 31.1766 61.3222 31.1766 61.6791C31.1766 61.8775 31.0576 62.0758 30.8989 62.1551C31.1369 62.2345 31.2559 62.4724 31.2559 62.6708C31.2559 63.1071 30.8989 63.3054 30.5023 63.3054H29.709V61.1238ZM30.5023 62.0361C30.6609 62.0361 30.7799 61.9171 30.7799 61.7585C30.7799 61.5998 30.7006 61.4808 30.5023 61.4808H30.1056V62.0361H30.5023ZM30.5419 63.0278C30.7403 63.0278 30.8593 62.9088 30.8593 62.7104C30.8593 62.5121 30.7403 62.3931 30.5419 62.3931H30.1056V63.0278H30.5419Z" fill="#1C1C1C"/>
<path d="M32.6055 61.1238H33.0021V62.3931C33.0021 62.5121 32.9625 62.7501 32.9625 62.7501C32.9625 62.7501 33.0814 62.5518 33.1608 62.3931L33.9937 61.1238H34.3904V63.3451H33.9937V62.0758C33.9937 61.9568 34.0334 61.7188 34.0334 61.7188C34.0334 61.7188 33.9144 61.9171 33.8351 62.0758L33.0021 63.3451H32.6055V61.1238Z" fill="#1C1C1C"/>
<path d="M35.9375 61.1238H36.3342V62.0758H37.3258V61.1238H37.7621V63.3847H37.3258V62.4328H36.3342V63.3847H35.9375V61.1238Z" fill="#1C1C1C"/>
<path d="M40.2597 61.0842C40.934 61.0842 41.4099 61.5998 41.4099 62.2345C41.4099 62.9088 40.934 63.3847 40.2597 63.3847C39.5854 63.3847 39.1094 62.8691 39.1094 62.2345C39.1094 61.5998 39.5854 61.0842 40.2597 61.0842ZM40.2597 63.0278C40.6563 63.0278 41.0133 62.6708 41.0133 62.2345C41.0133 61.7981 40.696 61.4808 40.2597 61.4808C39.863 61.4808 39.5457 61.7981 39.5457 62.2345C39.506 62.6708 39.8233 63.0278 40.2597 63.0278Z" fill="#1C1C1C"/>
<path d="M42.6397 63.0278C42.9174 62.5915 42.9571 62.0758 42.9571 61.6395V61.1635H44.3453V63.0278H44.5833V63.8211H44.2263V63.3848H42.7984V63.8211H42.4414V63.0278H42.6397ZM43.9487 63.0278V61.4808H43.3537V61.6395C43.3537 62.0758 43.314 62.6311 43.076 62.9881H43.9487V63.0278Z" fill="#1C1C1C"/>
<path d="M45.9316 61.1238H47.2802V61.4808H46.3283V62.0758H47.0819V62.4328H46.3283V63.0278H47.3199V63.3847H45.9316V61.1238Z" fill="#1C1C1C"/>
<path d="M48.9076 61.7585V61.1635H50.2959V63.3848H49.8992V61.4808H49.3043V61.7585C49.3043 62.8294 49.0663 63.3848 48.4316 63.3848V63.0278C48.749 62.9881 48.9076 62.5915 48.9076 61.7585Z" fill="#1C1C1C"/>
<path d="M51.7637 61.1238H52.1603V61.9171H52.5966C52.9933 61.9171 53.3106 62.1948 53.3106 62.6311C53.3106 63.0674 53.033 63.3451 52.6363 63.3451H51.8033V61.1238H51.7637ZM52.557 63.0278C52.795 63.0278 52.914 62.8691 52.914 62.6708C52.914 62.4328 52.795 62.2741 52.557 62.2741H52.2V63.0278H52.557Z" fill="#1C1C1C"/>
<path d="M54.5801 61.1238H55.0164V62.0758H56.008V61.1238H56.4047V63.3847H56.008V62.4328H55.0164V63.3847H54.5801V61.1238Z" fill="#1C1C1C"/>
<path d="M58.1492 62.5915C58.1889 62.5121 58.2285 62.4725 58.2285 62.4725C57.9509 62.3535 57.8319 62.1155 57.8319 61.8378C57.8319 61.5205 57.9905 61.3222 58.1889 61.2428C58.2682 61.2032 58.3872 61.1635 58.6252 61.1635H59.3392V63.3848H58.9425V62.5518H58.6252L58.1492 63.3848H57.7129L58.1492 62.5915ZM58.9425 62.1948V61.4808H58.6648C58.5062 61.4808 58.4269 61.5205 58.3872 61.5205C58.3079 61.5602 58.2682 61.6792 58.2682 61.7982C58.2682 62.0361 58.3872 62.1551 58.6252 62.1551H58.9425V62.1948Z" fill="#1C1C1C"/>
<path d="M51.8815 67.1529C51.4848 67.1529 51.1675 67.4702 51.1675 67.8669C51.1675 68.0256 51.2468 68.1842 51.3262 68.3429C51.2865 68.3429 51.2468 68.3429 51.1675 68.3429H44.6228H44.5434H37.8401C37.8004 68.3429 37.7211 68.3429 37.6814 68.3429C37.8004 68.2239 37.8401 68.0652 37.8401 67.8669C37.8401 67.4702 37.5227 67.1529 37.1261 67.1529C36.7294 67.1529 36.4121 67.4702 36.4121 67.8669C36.4121 68.0256 36.4518 68.1446 36.5311 68.2635C36.7691 68.6999 37.2451 68.9775 37.8401 68.9775H44.5038H44.5831H51.1675C51.8021 68.9775 52.2385 68.6999 52.4765 68.2635C52.5558 68.1446 52.5955 68.0256 52.5955 67.8669C52.5955 67.4702 52.2781 67.1529 51.8815 67.1529Z" fill="#D0965A"/>
<path d="M44.5447 54.0238C44.9413 54.0238 45.2983 53.7065 45.2983 53.2702C45.2983 52.8735 44.981 52.5165 44.5447 52.5165C44.148 52.5165 43.791 52.8339 43.791 53.2702C43.791 53.6668 44.1083 54.0238 44.5447 54.0238Z" fill="#D0965A"/>
<path d="M67.0334 53.7065C66.5574 53.2305 65.9228 52.9529 65.2485 52.9529H65.2088H46.9629V53.6272H65.0502H65.2881C65.7641 53.6272 66.2401 53.8255 66.5574 54.1825C66.9144 54.5395 67.1127 55.0154 67.1127 55.4914C67.1127 55.8881 66.9541 56.245 66.6764 56.483C66.3988 56.721 66.0418 56.8797 65.6848 56.8797C65.4865 56.8797 65.1691 56.84 64.8915 56.5624C64.6932 56.364 64.5742 56.0864 64.5742 55.8087C64.5742 55.6897 64.6138 55.5707 64.6535 55.4517C64.6932 55.3328 64.8122 55.2534 64.8915 55.1741C64.9708 55.1344 65.0502 55.0948 65.1295 55.0551C65.0898 55.1344 65.0898 55.2138 65.0898 55.2931C65.1295 55.6104 65.4071 55.8881 65.7245 55.8881H65.7641C65.9228 55.8881 66.0814 55.8087 66.2004 55.6501C66.3194 55.5311 66.3591 55.3724 66.3591 55.1741C66.3591 54.9758 66.2401 54.7378 66.0418 54.5791C65.8831 54.4601 65.6451 54.3411 65.4071 54.3015C65.0898 54.2618 64.7725 54.3411 64.4948 54.5395C64.2965 54.6584 64.1379 54.8568 64.0189 55.0551C63.8999 55.2534 63.8602 55.4914 63.8602 55.7294C63.8602 56.2054 64.0585 56.6417 64.3758 56.959C64.6932 57.2763 65.1691 57.4747 65.6451 57.4747C66.2004 57.4747 66.7161 57.2367 67.1127 56.8797C67.5094 56.483 67.7474 55.9674 67.7474 55.4121C67.7474 54.8171 67.5094 54.1825 67.0334 53.7065Z" fill="#D0965A"/>
<path d="M24.5135 54.6584C24.2358 54.4601 23.9185 54.3808 23.6012 54.4204C23.3632 54.4601 23.1252 54.5394 22.9666 54.6981C22.7682 54.8568 22.6492 55.0551 22.6492 55.2931C22.6492 55.4517 22.6889 55.6104 22.8079 55.7691C22.9269 55.8881 23.0855 55.9674 23.2442 56.007H23.2839C23.6012 56.007 23.8789 55.7691 23.9185 55.4121C23.9185 55.3327 23.9185 55.2534 23.8789 55.1741C23.9582 55.2138 24.0375 55.2137 24.1168 55.2931C24.2358 55.3724 24.3152 55.4517 24.3548 55.5707C24.4342 55.6897 24.4342 55.8087 24.4342 55.9277C24.4342 56.2054 24.3152 56.483 24.1168 56.6814C23.8392 56.959 23.5615 56.9987 23.3235 56.9987C22.9666 56.9987 22.6096 56.84 22.3319 56.602C22.0543 56.3244 21.8956 55.9674 21.8956 55.6104C21.8956 55.0948 22.0939 54.6584 22.4509 54.3015C22.7682 53.9445 23.2442 53.7461 23.7202 53.7461H23.9582H42.0454V53.0718H23.8789H23.7995C23.1252 53.0718 22.4906 53.3495 22.0146 53.8255C21.5386 54.3015 21.261 54.9758 21.3006 55.6501C21.3006 56.2054 21.5386 56.7607 21.9353 57.1177C22.3319 57.5143 22.8476 57.7126 23.4029 57.7126C23.8789 57.7126 24.3548 57.5143 24.6722 57.197C24.9895 56.8797 25.1878 56.4037 25.1878 55.9674C25.1878 55.7294 25.1085 55.4914 25.0291 55.2931C24.8705 54.9361 24.7118 54.7774 24.5135 54.6584Z" fill="#D0965A"/>
<path d="M8.44866 38.4751L9.12296 38.7924V46.4081H7.10004V38.7924L7.77435 38.4751V37.7215H4.24416V38.4751L4.91847 38.7924V46.4081H2.93521V38.7924L3.56985 38.4751V37.7215H0V38.4751L0.753636 38.7924V46.5271L0.118995 46.8841V47.6377H11.8995V46.8841L11.2649 46.5271V38.7924L12.0185 38.4751V37.7215H8.44866V38.4751Z" fill="#1C1C1C"/>
<path d="M19.9519 38.4751L20.4675 38.6734L18.9602 42.4019L17.2546 38.3958C17.0166 37.8801 16.739 37.7215 16.0647 37.7215H14.1211V38.4751L14.9144 38.7528L17.8099 44.9802L17.334 46.0115C16.977 46.7254 16.6993 46.8048 15.8267 46.5668L15.6284 46.5271L15.3507 47.5981L15.549 47.6377C15.9854 47.7567 16.382 47.7964 16.739 47.7964C17.7306 47.7964 18.4842 47.3204 18.8412 46.4478L22.1334 38.7131L22.7681 38.4354V37.7215H19.9915V38.4751H19.9519Z" fill="#1C1C1C"/>
<path d="M34.5883 38.8321L35.2626 38.4751V37.7611H32.4464C31.8514 37.7611 31.4944 37.8801 31.3357 38.5148L30.0268 44.5835C29.6698 42.4416 29.3128 40.7757 28.7972 38.5148C28.5989 37.8801 28.2022 37.7215 27.5279 37.7215H24.8307V38.4751L25.505 38.8321V46.5271L24.791 46.8841V47.6377H27.8849V46.8841L27.1709 46.5271V40.8947C27.6866 43.0762 28.1229 45.1785 28.4799 46.9634C28.5592 47.3204 28.8369 47.5187 29.2732 47.5187H30.8598L32.367 40.7757V46.4874L31.6134 46.8841V47.6377H35.3023V46.8841L34.5486 46.4874V38.8321H34.5883Z" fill="#1C1C1C"/>
<path d="M41.925 37.7215H38.2362V38.4751L38.8708 38.8321V43.1159L38.3552 43.5919L38.8708 44.0282V46.4874L38.1172 46.8841V47.6377H41.806V46.8841L41.0524 46.4874V44.1869H41.8854C42.7977 44.1869 45.4949 44.1869 45.4949 41.8466V40.141C45.4949 38.5941 44.2256 37.7215 41.925 37.7215ZM43.3133 41.8466C43.3133 42.4019 43.1546 42.9969 41.925 42.9969H41.0524V39.0304H41.9647C43.1547 39.0304 43.3133 39.5857 43.3133 40.1807V41.8466Z" fill="#1C1C1C"/>
<path d="M55.6893 38.8321L56.3239 38.4751V37.7611H52.8731V38.4751L53.4284 38.8321L51.3261 43.1953L51.0485 43.9092V38.8321L51.6831 38.4751V37.7611H48.2323V38.4751L48.8669 38.8321V46.5271L48.1133 46.9634V47.6774H51.8021V46.9634L51.1675 46.6064L53.1904 42.4416L53.5474 41.6087C53.5474 42.2433 53.5474 42.9176 53.5474 43.5919C53.5474 44.5835 53.5474 45.6148 53.5474 46.5271L52.7938 46.9634V47.6774H56.4826V46.9634L55.729 46.5271V38.8321H55.6893Z" fill="#1C1C1C"/>
<path d="M66.6367 43.1159L67.2317 42.5606L66.6367 42.0053V38.8321L67.2714 38.4751V37.7215H63.8205V38.4751L64.4551 38.8321V41.9656H62.1149V38.8321L62.7892 38.4751V37.7215H59.2987V38.4751L59.973 38.8321V42.0846L59.4177 42.5606L59.973 43.0762V46.5668L59.1797 46.8841V47.6377H62.9082V46.8841L62.1149 46.5668V43.1952H64.4551V46.5668L63.7015 46.8841V47.6377H67.3904V46.8841L66.6367 46.5668V43.1159Z" fill="#1C1C1C"/>
<path d="M77.5847 45.9321L77.0691 43.9489C76.7914 42.9969 76.3551 42.3623 75.7601 42.1243C76.1965 41.688 76.5138 40.8153 76.7914 40.0617C76.9104 39.7047 77.0294 39.3874 77.1484 39.1891C77.3467 38.7924 77.4657 38.6734 77.9417 38.6734H78.1797V37.7215H77.3467C76.8708 37.7215 76.3551 37.7611 75.9188 37.9991C75.1652 38.3958 74.8875 39.2287 74.6099 40.022C74.2925 40.9343 74.0149 41.7276 73.1422 41.807V38.8321L73.7769 38.4751V37.7215H70.326V38.4751L70.9607 38.8321V41.926L70.4054 42.4416L70.9607 42.9573V46.5271L70.207 46.9238V47.6774H73.8959V46.9238L73.1422 46.5271V43.0366H73.4596C74.4115 43.0366 74.7288 43.5919 74.9272 44.3852L75.4428 46.2495C75.6411 46.9238 75.9981 47.7171 77.3071 47.7171C77.6641 47.7171 78.1797 47.6774 78.5367 47.5187L78.6557 47.4791V46.5668L78.4177 46.6064C77.9417 46.6461 77.6641 46.2891 77.5847 45.9321Z" fill="#1C1C1C"/>
<path d="M88.3741 46.5271L85.5976 37.6422H83.535L83.4953 37.8008C82.9797 39.5064 82.3847 41.3707 81.8294 43.1953C81.7501 43.4332 81.6707 43.6712 81.6311 43.9092L80.9568 44.3852L81.3931 44.7819C81.1948 45.3768 81.0361 45.9718 80.8774 46.5668L80.2031 46.8444V47.6377H82.9797V46.8444L82.4244 46.6065L82.9003 45.0595H85.7166L86.1926 46.6461L85.7562 46.9238V47.5981H89.0881V46.8444L88.3741 46.5271ZM83.178 43.8696L84.249 40.26L85.3199 43.8696H83.178Z" fill="#1C1C1C"/>
<path d="M19.1582 42.8779L19.2772 43.1556L21.1018 38.6338L20.5861 38.4751L20.9035 38.5941L19.1582 42.8779Z" fill="#646363"/>
<path d="M9.47928 46.4081H9.67761V38.7528L9.04297 38.4751L9.47928 38.6734V46.4081Z" fill="#646363"/>
<path d="M5.27616 46.3684H5.51415V38.7528L4.83984 38.4751L5.27616 38.6734V46.3684Z" fill="#646363"/>
<path d="M30.1055 45.8925C30.1055 45.8925 30.3435 45.8925 30.3831 45.6941C30.4228 45.4958 31.8507 38.7924 31.8507 38.7924C31.8904 38.6338 31.9301 38.5544 32.0094 38.4751C31.7317 38.5148 31.6921 38.5941 31.6127 38.7924L30.1451 45.7338L30.1055 45.8925Z" fill="#646363"/>
<path d="M0.674431 46.8841L1.34874 46.5668V38.7131L0.634766 38.4751L1.15041 38.6734V46.6064L0.674431 46.8841Z" fill="#646363"/>
<path d="M75.0851 40.141C75.3231 39.3874 75.5611 38.7131 76.1561 38.3561C76.1957 38.3164 76.2751 38.3164 76.3544 38.2768C76.1957 38.3164 76.0371 38.3561 75.9181 38.4354C75.3628 38.7527 75.1248 39.4271 74.8471 40.1807C74.5695 41.0137 74.2521 41.9259 73.3398 42.2036C74.4505 42.0053 74.8075 41.0137 75.0851 40.141Z" fill="#646363"/>
<path d="M84.5655 39.308H84.3672L85.8348 44.3058H86.0331L84.5655 39.308Z" fill="#646363"/>
<path d="M64.8133 42.7193H65.0513V38.7528L64.377 38.4751L64.8133 38.7131V42.7193Z" fill="#646363"/>
<path d="M49.4626 46.5271V38.7528L48.828 38.4751L49.2643 38.7131V46.5668L48.709 46.8841L49.4626 46.5271Z" fill="#646363"/>
<path d="M51.0879 44.8215L51.9209 43.3142L54.0628 38.8321L53.3091 38.4751L53.8644 38.7924L51.6829 43.3539L51.0879 44.8215Z" fill="#646363"/>
<path d="M42.6797 43.3539C43.473 43.1952 43.8696 42.6796 43.8696 41.8466V40.141C43.8696 39.2684 43.473 38.7527 42.6797 38.5941C43.3143 38.8321 43.6713 39.3477 43.6713 40.141V41.8466C43.6713 42.6003 43.3143 43.1159 42.6797 43.3539Z" fill="#646363"/>
<path d="M17.6511 46.2098C17.4924 46.5668 17.2544 46.9238 16.8578 47.0824C17.4131 47.0031 17.6908 46.5668 17.8891 46.1701L18.4444 44.9802L15.4695 38.5941L15.0332 38.4751L15.2315 38.5544L18.2064 45.0198L17.6511 46.2098Z" fill="#646363"/>
<path d="M75.9188 46.0908L75.4428 44.2265C75.2842 43.5919 74.9272 42.7589 73.9355 42.6003C74.7685 42.8779 75.0858 43.6316 75.2445 44.2265L75.7601 46.0908C75.9188 46.6461 76.1568 47.0428 76.7914 47.1618C76.2361 46.9634 76.0378 46.6064 75.9188 46.0908Z" fill="#646363"/>
<path d="M70.6836 46.8841L71.4769 46.5271V38.7528L70.8026 38.4751L71.2786 38.7131V42.1243L70.9612 42.4019L71.2786 42.6399V46.5668L70.6836 46.8841Z" fill="#646363"/>
<path d="M59.8555 46.8841L60.5298 46.6461V38.7528L59.8555 38.4751L60.3315 38.7131V42.3226L60.0935 42.5606L60.3315 42.7986V46.6858L59.8555 46.8841Z" fill="#646363"/>
<path d="M86.7482 46.6461L86.0343 44.3059H85.8359L86.5499 46.6858L86.1929 46.8841L86.7482 46.6461Z" fill="#646363"/>
<path d="M81.3926 46.6858L81.4323 46.5668C81.7496 45.5751 81.9876 44.7818 82.3049 43.7109L82.4239 43.3539C82.9395 41.6086 83.4949 39.8237 84.0105 38.1974H83.8122C83.2965 39.8237 82.7412 41.6483 82.2256 43.3936C82.1462 43.6712 81.9876 44.1472 81.9876 44.1472L81.6306 44.3852L81.8686 44.6232C81.8686 44.6232 81.4719 45.8925 81.2736 46.6064L81.2339 46.7254L80.877 46.8841L81.3926 46.6858Z" fill="#646363"/>
<path d="M65.0499 46.6461V42.7193H64.8119V46.6858L64.3359 46.8841L65.0499 46.6461Z" fill="#646363"/>
<path d="M28.9944 46.6064C28.5184 44.3059 27.3681 39.1891 27.3284 38.9907C27.2888 38.8321 27.0508 38.7527 27.0508 38.7527L27.0904 38.9114C27.7648 41.807 28.2804 44.2662 28.796 46.5668C28.796 46.6461 28.8357 46.6858 29.0737 46.6858C29.034 46.6858 29.034 46.6461 28.9944 46.6064Z" fill="#646363"/>
<path d="M54.1032 46.5271V46.4081C54.1032 45.4165 54.1032 44.5835 54.1032 43.5522C54.1032 42.5209 54.1032 41.0137 54.1032 41.0137L53.9049 41.569C53.9049 41.569 53.9049 42.8779 53.9049 43.5522C53.9049 44.5835 53.9049 45.4562 53.9049 46.4081V46.6064L53.3496 46.9238L54.1032 46.5271Z" fill="#646363"/>
<path d="M25.3457 46.8841L26.0993 46.5668V38.7528L25.425 38.4751L25.901 38.7131V46.6064L25.3457 46.8841Z" fill="#646363"/>
<path d="M38.6738 46.8841L39.4671 46.5271V38.7924L38.7928 38.4751L39.2291 38.7528V43.3539L38.9515 43.5919L39.2291 43.8299V46.5668L38.6738 46.8841Z" fill="#646363"/>
<path d="M32.9613 46.5271V40.26L33.0406 38.9114L32.7629 40.26V46.5668L32.168 46.8841L32.9613 46.5271Z" fill="#646363"/>
<path d="M32.4067 48.1931H32.248L32.6844 48.6294H32.843L32.4067 48.1931Z" fill="#7C7C7B"/>
<path d="M31.8501 48.1931H31.6914L32.1674 48.6294H32.326L31.8501 48.1931Z" fill="#7C7C7B"/>
<path d="M33.477 48.1931H33.3184L33.7547 48.6294H33.953L33.477 48.1931Z" fill="#7C7C7B"/>
<path d="M32.9223 48.1931H32.7637L33.2397 48.6294H33.3983L32.9223 48.1931Z" fill="#7C7C7B"/>
<path d="M34.0323 48.1931H33.834L34.31 48.6294H34.4686L34.0323 48.1931Z" fill="#7C7C7B"/>
<path d="M34.5473 48.1931H34.3887L34.825 48.6294H35.0233L34.5473 48.1931Z" fill="#7C7C7B"/>
<path d="M31.3364 48.1931H31.1777L31.614 48.6294H31.7727L31.3364 48.1931Z" fill="#7C7C7B"/>
<path d="M29.0754 48.6294L28.6391 48.1931H28.4805L28.9168 48.6294H29.0754Z" fill="#7C7C7B"/>
<path d="M29.1944 48.1931H28.9961L29.4721 48.6294H29.6307L29.1944 48.1931Z" fill="#7C7C7B"/>
<path d="M30.2647 48.1931H30.0664L30.5424 48.6294H30.701L30.2647 48.1931Z" fill="#7C7C7B"/>
<path d="M23.7188 39.1891V39.0304L23.2031 38.5544V38.7131L23.7188 39.1891Z" fill="#7C7C7B"/>
<path d="M30.7798 48.1931H30.6211L31.0971 48.6294H31.2557L30.7798 48.1931Z" fill="#7C7C7B"/>
<path d="M36.1355 39.2684L36.2149 39.2287V39.1494L35.7389 38.7131V38.7924L35.6992 38.8321L36.1355 39.2684Z" fill="#7C7C7B"/>
<path d="M35.5404 39.7047V39.5857L35.5801 39.5461L35.1041 39.1097L35.0645 39.1494V39.2287L35.5404 39.7047Z" fill="#7C7C7B"/>
<path d="M46.4883 42.3623C46.4883 42.3226 46.4883 42.2433 46.4883 42.2036L45.9727 41.7276V41.7673C45.9727 41.807 45.9727 41.8466 45.9727 41.8863L46.4883 42.3623Z" fill="#7C7C7B"/>
<path d="M28.0825 48.1931H27.9238L28.3998 48.6294H28.5585L28.0825 48.1931Z" fill="#7C7C7B"/>
<path d="M35.104 48.1931H34.9453L35.3816 48.6294H35.5403L35.104 48.1931Z" fill="#7C7C7B"/>
<path d="M45.2578 38.2371C45.2975 38.2371 45.2975 38.2371 45.2578 38.2371L45.8925 38.8718C45.7735 38.6338 45.5355 38.3958 45.2578 38.2371Z" fill="#7C7C7B"/>
<path d="M52.7544 44.7422C52.7544 44.7025 52.7544 44.6232 52.7544 44.5835L52.6354 44.5042L52.5957 44.6232L52.7544 44.7422Z" fill="#7C7C7B"/>
<path d="M36.2143 38.3165V38.1578L35.7779 37.7611H35.7383V37.8405L36.2143 38.3165Z" fill="#7C7C7B"/>
<path d="M35.6196 48.1931H35.4609L35.9369 48.6294H36.0956L35.6196 48.1931Z" fill="#7C7C7B"/>
<path d="M35.8184 47.3601V47.5187L36.2943 47.9947V47.8361L35.8184 47.3601Z" fill="#7C7C7B"/>
<path d="M36.2943 48.4707V48.3121L35.8184 47.8757V48.0344L36.2943 48.4707Z" fill="#7C7C7B"/>
<path d="M35.8184 46.8444V47.0031L36.2943 47.4791V47.3204L35.8184 46.8444Z" fill="#7C7C7B"/>
<path d="M29.7493 38.7131C29.7493 38.6734 29.7096 38.6338 29.7096 38.5544L29.1543 38.0785C29.194 38.1578 29.194 38.1975 29.2336 38.2768C29.2336 38.2768 29.2336 38.2768 29.2336 38.3165L29.7493 38.7924C29.7493 38.7924 29.7493 38.7528 29.7493 38.7131Z" fill="#7C7C7B"/>
<path d="M21.2611 43.4729L21.3405 43.3539L20.8248 42.9176L20.7852 42.9969L21.2611 43.4729Z" fill="#7C7C7B"/>
<path d="M22.0541 41.6483L22.0938 41.569L21.6178 41.093L21.5781 41.212L22.0541 41.6483Z" fill="#7C7C7B"/>
<path d="M22.3711 40.9343L22.4108 40.8153L21.9348 40.379L21.8555 40.498L22.3711 40.9343Z" fill="#7C7C7B"/>
<path d="M22.2123 41.2913L22.252 41.212L21.776 40.736L21.7363 40.855L22.2123 41.2913Z" fill="#7C7C7B"/>
<path d="M21.1412 42.1639L21.1016 42.2829L21.5775 42.7589L21.6172 42.6399L21.1412 42.1639Z" fill="#7C7C7B"/>
<path d="M21.2994 41.807L21.2598 41.926L21.7357 42.402L21.7754 42.283L21.2994 41.807Z" fill="#7C7C7B"/>
<path d="M21.4193 43.1159L21.4987 42.9969L20.983 42.5209L20.9434 42.6399L21.4193 43.1159Z" fill="#7C7C7B"/>
<path d="M21.4596 41.45L21.4199 41.569L21.8959 42.045L21.9356 41.926L21.4596 41.45Z" fill="#7C7C7B"/>
<path d="M23.0066 39.546L23.1256 39.5064L22.6496 39.0701L22.5703 39.1097L23.0066 39.546Z" fill="#7C7C7B"/>
<path d="M27.5669 48.1931H27.4082L27.8445 48.6294H28.0032L27.5669 48.1931Z" fill="#7C7C7B"/>
<path d="M22.6479 40.2204L22.7272 40.1014L22.2115 39.665L22.1719 39.784L22.6479 40.2204Z" fill="#7C7C7B"/>
<path d="M22.5293 40.5773L22.569 40.4583L22.0533 40.022L22.0137 40.141L22.5293 40.5773Z" fill="#7C7C7B"/>
<path d="M22.808 39.8634L22.8477 39.7444L22.3717 39.308L22.332 39.427L22.808 39.8634Z" fill="#7C7C7B"/>
<path d="M23.4018 39.3874L23.4811 39.3477L23.0448 38.9114L22.9258 38.9511L23.4018 39.3874Z" fill="#7C7C7B"/>
<path d="M24.8703 48.1931H24.791V48.2724L25.148 48.6294H25.3463L24.8703 48.1931Z" fill="#7C7C7B"/>
<path d="M25.9419 48.1931H25.7832L26.2195 48.6294H26.4178L25.9419 48.1931Z" fill="#7C7C7B"/>
<path d="M26.4966 48.1931H26.3379L26.7742 48.6294H26.9329L26.4966 48.1931Z" fill="#7C7C7B"/>
<path d="M20.8236 44.5439L20.8633 44.4249L20.3873 43.9886L20.3477 44.1075L20.8236 44.5439Z" fill="#7C7C7B"/>
<path d="M27.0122 48.1931H26.8535L27.3295 48.6294H27.4882L27.0122 48.1931Z" fill="#7C7C7B"/>
<path d="M18.8415 40.6963L18.8812 40.5773L18.6035 40.2997L18.7225 40.5377L18.8415 40.6963Z" fill="#7C7C7B"/>
<path d="M18.8807 40.2204L18.7617 39.9427L18.2461 39.4271L18.3651 39.7047L18.8807 40.2204Z" fill="#7C7C7B"/>
<path d="M18.5233 39.3477L18.4043 39.1097L17.8887 38.5941L17.968 38.8717L18.5233 39.3477Z" fill="#7C7C7B"/>
<path d="M52.7945 45.2578V45.0992L52.5168 44.8612L52.4375 44.9405L52.7945 45.2578Z" fill="#7C7C7B"/>
<path d="M21.1406 43.8299L21.1803 43.7109L20.7043 43.2746L20.625 43.3539L21.1406 43.8299Z" fill="#7C7C7B"/>
<path d="M20.9824 44.1869L21.0221 44.0679L20.5461 43.6316L20.4668 43.7506L20.9824 44.1869Z" fill="#7C7C7B"/>
<path d="M29.7094 48.1931H29.5508L29.9871 48.6294H30.1854L29.7094 48.1931Z" fill="#7C7C7B"/>
<path d="M35.5404 42.7193V42.5606L35.0645 42.1243V42.283L35.5404 42.7193Z" fill="#7C7C7B"/>
<path d="M35.5404 43.2349V43.0763L35.0645 42.6003V42.7589L35.5404 43.2349Z" fill="#7C7C7B"/>
<path d="M35.0645 45.6545V45.8131L35.5404 46.2495V46.0908L35.0645 45.6545Z" fill="#7C7C7B"/>
<path d="M35.5404 43.7505V43.5919L35.0645 43.1159V43.2746L35.5404 43.7505Z" fill="#7C7C7B"/>
<path d="M35.0645 45.1388V45.2975L35.5404 45.7735V45.6148L35.0645 45.1388Z" fill="#7C7C7B"/>
<path d="M35.0645 44.6232V44.7818L35.5404 45.2578V45.0991L35.0645 44.6232Z" fill="#7C7C7B"/>
<path d="M35.5404 40.2204V40.0617L35.0645 39.5857V39.7444L35.5404 40.2204Z" fill="#7C7C7B"/>
<path d="M35.0645 44.1472V44.2662L35.5404 44.7422V44.5835L35.0645 44.1472Z" fill="#7C7C7B"/>
<path d="M35.5404 40.6963V40.5773L35.0645 40.1013V40.26L35.5404 40.6963Z" fill="#7C7C7B"/>
<path d="M35.5404 41.7276V41.569L35.0645 41.093V41.2516L35.5404 41.7276Z" fill="#7C7C7B"/>
<path d="M35.5404 42.2433V42.0846L35.0645 41.6086V41.7673L35.5404 42.2433Z" fill="#7C7C7B"/>
<path d="M35.5404 41.212V41.0533L35.0645 40.5773V40.736L35.5404 41.212Z" fill="#7C7C7B"/>
<path d="M29.9069 39.4667C29.9069 39.3874 29.8672 39.3477 29.8672 39.2684L29.3516 38.7924C29.3516 38.8717 29.3912 38.9114 29.3912 38.9907L29.9069 39.4667Z" fill="#7C7C7B"/>
<path d="M38.3169 48.1931H38.1582L38.5945 48.6294H38.7928L38.3169 48.1931Z" fill="#7C7C7B"/>
<path d="M38.8722 48.1931H38.6738L39.1498 48.6294H39.3085L38.8722 48.1931Z" fill="#7C7C7B"/>
<path d="M38.0781 48.4707V48.6294H38.2368L38.0781 48.4707Z" fill="#7C7C7B"/>
<path d="M36.1738 46.8444L36.2928 46.9634V46.9238L36.1738 46.8444Z" fill="#7C7C7B"/>
<path d="M39.9419 48.1931H39.7832L40.2195 48.6294H40.3782L39.9419 48.1931Z" fill="#7C7C7B"/>
<path d="M39.3872 48.1931H39.2285L39.6648 48.6294H39.8632L39.3872 48.1931Z" fill="#7C7C7B"/>
<path d="M35.8178 39.4271L35.8971 39.3874L35.4608 38.9511L35.3418 38.9907L35.8178 39.4271Z" fill="#7C7C7B"/>
<path d="M35.0645 43.6316V43.7902L35.5404 44.2265V44.1075L35.0645 43.6316Z" fill="#7C7C7B"/>
<path d="M30.067 40.1014C30.067 40.022 30.0274 39.9824 30.0274 39.903L29.5117 39.4271C29.5117 39.5064 29.5514 39.5461 29.5514 39.6254L30.067 40.1014Z" fill="#7C7C7B"/>
<path d="M30.0265 41.0533L30.0661 40.9343L29.8281 40.6964C29.8281 40.7757 29.8678 40.8153 29.8678 40.8947L30.0265 41.0533Z" fill="#7C7C7B"/>
<path d="M30.1062 40.6567L30.1459 40.5377L29.6699 40.1013C29.6699 40.1807 29.7096 40.2203 29.7096 40.2997L30.1062 40.6567Z" fill="#7C7C7B"/>
<path d="M46.4076 42.8383C46.4076 42.7986 46.4076 42.7589 46.4473 42.7193L45.9713 42.2433C45.9713 42.283 45.9713 42.3226 45.9316 42.3623L46.4076 42.8383Z" fill="#7C7C7B"/>
<path d="M46.4883 41.8863V41.7276L45.9727 41.2516V41.4103L46.4883 41.8863Z" fill="#7C7C7B"/>
<path d="M52.2793 45.2975L52.7553 45.7735L52.7949 45.7338V45.6148L52.3586 45.1785L52.2793 45.2975Z" fill="#7C7C7B"/>
<path d="M46.4883 41.3707V41.212L45.9727 40.736V40.8947L46.4883 41.3707Z" fill="#7C7C7B"/>
<path d="M46.4883 40.855V40.6964L45.9727 40.26V40.379L46.4883 40.855Z" fill="#7C7C7B"/>
<path d="M44.703 44.1075C44.6633 44.1472 44.6236 44.1472 44.584 44.1869L45.06 44.6232C45.0996 44.6232 45.1393 44.5835 45.179 44.5439L44.703 44.1075Z" fill="#7C7C7B"/>
<path d="M46.3295 43.2349C46.3295 43.1952 46.3692 43.1556 46.3692 43.1159L45.8932 42.6399C45.8932 42.6796 45.8535 42.7193 45.8535 42.7589L46.3295 43.2349Z" fill="#7C7C7B"/>
<path d="M44.7416 44.7819C44.7813 44.7819 44.8209 44.7422 44.8606 44.7422L44.3846 44.3059C44.345 44.3059 44.3053 44.3455 44.2656 44.3455L44.7416 44.7819Z" fill="#7C7C7B"/>
<path d="M46.4883 40.3394C46.4883 40.2997 46.4883 40.2204 46.4883 40.1807L45.9727 39.7047C45.9727 39.7444 45.9727 39.8237 45.9727 39.8634L46.4883 40.3394Z" fill="#7C7C7B"/>
<path d="M52.0006 45.8925L51.9609 46.0115L52.3179 46.3288L52.3973 46.2891L52.0006 45.8925Z" fill="#7C7C7B"/>
<path d="M36.2143 38.8321V38.6734L35.7383 38.1974V38.3561L36.2143 38.8321Z" fill="#7C7C7B"/>
<path d="M40.4575 48.1931H40.2988L40.7748 48.6294H40.9335L40.4575 48.1931Z" fill="#7C7C7B"/>
<path d="M52.1588 45.5355L52.1191 45.6545L52.5951 46.0908L52.6348 46.0114L52.1588 45.5355Z" fill="#7C7C7B"/>
<path d="M42.0053 41.7276V41.569L41.5293 41.093V41.2516L42.0053 41.7276Z" fill="#7C7C7B"/>
<path d="M42.0053 42.2433V42.0846L41.5293 41.6086V41.7673L42.0053 42.2433Z" fill="#7C7C7B"/>
<path d="M42.0053 41.212V41.0533L41.5293 40.5773V40.736L42.0053 41.212Z" fill="#7C7C7B"/>
<path d="M36.2144 37.8017V37.7611H36.1738L36.2144 37.8017Z" fill="#7C7C7B"/>
<path d="M42.0053 40.6963V40.5377L41.5293 40.1013V40.26L42.0053 40.6963Z" fill="#7C7C7B"/>
<path d="M45.0207 43.9092C44.9811 43.9489 44.9811 43.9489 44.9414 43.9885L45.4174 44.4249C45.4571 44.3852 45.457 44.3852 45.4967 44.3455L45.0207 43.9092Z" fill="#7C7C7B"/>
<path d="M41.569 42.3226H41.7276L41.5293 42.1243V42.2433L41.569 42.3226Z" fill="#7C7C7B"/>
<path d="M45.5364 43.3539C45.4967 43.3935 45.4967 43.4332 45.457 43.4332L45.933 43.8695C45.9727 43.8299 45.9727 43.7902 46.0123 43.7902L45.5364 43.3539Z" fill="#7C7C7B"/>
<path d="M45.2981 43.6316C45.2584 43.6712 45.2584 43.6712 45.2188 43.7109L45.6947 44.1472C45.7344 44.1075 45.7344 44.1075 45.7741 44.0679L45.2981 43.6316Z" fill="#7C7C7B"/>
<path d="M42.323 39.9824C42.4024 39.9824 42.442 39.9824 42.4817 39.9824L42.0454 39.5461C42.0057 39.5461 41.9264 39.5461 41.8867 39.5461L42.323 39.9824Z" fill="#7C7C7B"/>
<path d="M42.0053 40.2204V40.0617L41.5293 39.5857V39.7444L42.0053 40.2204Z" fill="#7C7C7B"/>
<path d="M45.733 43.0366C45.733 43.0763 45.6934 43.1159 45.6934 43.1556L46.1693 43.5919C46.1693 43.5522 46.209 43.5126 46.209 43.4729L45.733 43.0366Z" fill="#7C7C7B"/>
<path d="M46.3684 39.7444C46.3684 39.6651 46.3287 39.5857 46.2891 39.5064L45.7734 39.0304C45.8131 39.1098 45.8131 39.1891 45.8528 39.2684L46.3684 39.7444Z" fill="#7C7C7B"/>
<path d="M12.2162 42.5606V42.4019L11.7402 41.926V42.0846L12.2162 42.5606Z" fill="#7C7C7B"/>
<path d="M13.0098 39.2287V39.0701L12.4941 38.5941V38.7527L13.0098 39.2287Z" fill="#7C7C7B"/>
<path d="M11.7402 44.4645V44.6232L12.2162 45.0595V44.9008L11.7402 44.4645Z" fill="#7C7C7B"/>
<path d="M11.7402 43.9489V44.1075L12.2162 44.5835V44.4249L11.7402 43.9489Z" fill="#7C7C7B"/>
<path d="M12.2162 45.5751V45.4165L11.7402 44.9405V45.0991L12.2162 45.5751Z" fill="#7C7C7B"/>
<path d="M12.2162 41.5293V41.3706L11.7402 40.9343V41.093L12.2162 41.5293Z" fill="#7C7C7B"/>
<path d="M12.2162 40.022V39.8634L11.7402 39.3874V39.546L12.2162 40.022Z" fill="#7C7C7B"/>
<path d="M12.2963 39.5857L12.4153 39.5064L11.9393 39.0701L11.8203 39.1494L12.2963 39.5857Z" fill="#7C7C7B"/>
<path d="M12.6537 39.4271L12.7727 39.3477L12.2967 38.9114L12.1777 38.9907L12.6537 39.4271Z" fill="#7C7C7B"/>
<path d="M23.7188 38.6734V38.5148L23.2031 38.0785V38.2371L23.7188 38.6734Z" fill="#7C7C7B"/>
<path d="M12.2162 40.5377V40.379L11.7402 39.903V40.0617L12.2162 40.5377Z" fill="#7C7C7B"/>
<path d="M11.7402 43.4332V43.5919L12.2162 44.0679V43.9092L11.7402 43.4332Z" fill="#7C7C7B"/>
<path d="M12.2162 42.045V41.8863L11.7402 41.4103V41.569L12.2162 42.045Z" fill="#7C7C7B"/>
<path d="M7.57617 45.0595V45.2181L8.05215 45.6941V45.5355L7.57617 45.0595Z" fill="#7C7C7B"/>
<path d="M8.05215 42.1639V42.0053L7.57617 41.5293V41.688L8.05215 42.1639Z" fill="#7C7C7B"/>
<path d="M8.05215 42.6796V42.5209L7.57617 42.045V42.2036L8.05215 42.6796Z" fill="#7C7C7B"/>
<path d="M7.57617 45.5752V45.7338H7.73483L7.57617 45.5752Z" fill="#7C7C7B"/>
<path d="M7.57617 44.0679V44.2265L8.05215 44.7025V44.5439L7.57617 44.0679Z" fill="#7C7C7B"/>
<path d="M11.7402 42.9176V43.0763L12.2162 43.5522V43.3936L11.7402 42.9176Z" fill="#7C7C7B"/>
<path d="M7.57617 44.5835V44.7422L8.05215 45.1785V45.0198L7.57617 44.5835Z" fill="#7C7C7B"/>
<path d="M11.7402 42.4416V42.6003L12.2162 43.0366V42.8779L11.7402 42.4416Z" fill="#7C7C7B"/>
<path d="M8.05215 41.6483V41.4897L7.57617 41.0533V41.212L8.05215 41.6483Z" fill="#7C7C7B"/>
<path d="M8.05215 40.141V39.9824L7.57617 39.5064V39.665L8.05215 40.141Z" fill="#7C7C7B"/>
<path d="M8.05215 40.6567V40.498L7.57617 40.022V40.1807L8.05215 40.6567Z" fill="#7C7C7B"/>
<path d="M8.05215 41.1723V41.0137L7.57617 40.5377V40.6964L8.05215 41.1723Z" fill="#7C7C7B"/>
<path d="M12.2162 41.0533V40.8947L11.7402 40.4187V40.5774L12.2162 41.0533Z" fill="#7C7C7B"/>
<path d="M1.7446 48.1931H1.58594L2.02225 48.6294H2.18091L1.7446 48.1931Z" fill="#7C7C7B"/>
<path d="M16.2617 48.3517L16.698 48.788C16.7377 48.788 16.7774 48.788 16.8567 48.788L16.4204 48.3914C16.3807 48.3517 16.341 48.3517 16.2617 48.3517Z" fill="#7C7C7B"/>
<path d="M42.7583 46.9634V46.9238L42.5996 46.8444L42.7583 46.9634Z" fill="#7C7C7B"/>
<path d="M0.119743 48.1931H0.0800781V48.3121L0.397399 48.6294H0.595724L0.119743 48.1931Z" fill="#7C7C7B"/>
<path d="M1.18991 48.1931H1.03125L1.50723 48.6294H1.66589L1.18991 48.1931Z" fill="#7C7C7B"/>
<path d="M0.674285 48.1931H0.515625L0.951941 48.6294H1.1106L0.674285 48.1931Z" fill="#7C7C7B"/>
<path d="M12.3756 48.074V48.193H12.3359L12.7723 48.6293H12.8912V48.55L12.3756 48.074Z" fill="#7C7C7B"/>
<path d="M41.6483 44.7422H41.5293V44.7819L42.0053 45.2578V45.1785H42.0846L41.6483 44.7422Z" fill="#7C7C7B"/>
<path d="M90.0015 46.885V46.8444H89.9609L90.0015 46.885Z" fill="#7C7C7B"/>
<path d="M83.4153 48.1137V48.193H83.3359L83.8119 48.6294H83.8912V48.55L83.4153 48.1137Z" fill="#7C7C7B"/>
<path d="M74.2922 48.1534V48.193H74.2129L74.6492 48.6294H74.8079V48.5897L74.2922 48.1534Z" fill="#7C7C7B"/>
<path d="M77.1489 48.2724H77.1092C77.0696 48.2724 77.0299 48.2724 76.9902 48.2724L77.4265 48.7087C77.4662 48.7087 77.5455 48.7087 77.5852 48.7087L77.1489 48.2724Z" fill="#7C7C7B"/>
<path d="M6.02975 48.1931H5.87109L6.34707 48.6294H6.50573L6.02975 48.1931Z" fill="#7C7C7B"/>
<path d="M8.05215 39.6254V39.5461H8.09182L7.6555 39.1097L7.57617 39.1494V39.1891L8.05215 39.6254Z" fill="#7C7C7B"/>
<path d="M13.0098 38.7131V38.5941L12.4941 38.1181V38.2768L13.0098 38.7131Z" fill="#7C7C7B"/>
<path d="M8.36856 39.4271V39.2684L8.05124 38.9907L7.97191 38.9511L7.89258 38.9907L8.36856 39.4271Z" fill="#7C7C7B"/>
<path d="M13.0098 38.2371V38.0785L12.6528 37.7611H12.4941L13.0098 38.2371Z" fill="#7C7C7B"/>
<path d="M5.51413 48.1931H5.35547L5.79178 48.6294H5.95044L5.51413 48.1931Z" fill="#7C7C7B"/>
<path d="M4.44186 48.1931H4.2832L4.71952 48.6294H4.87818L4.44186 48.1931Z" fill="#7C7C7B"/>
<path d="M3.37215 48.1931H3.17383L3.64981 48.6294H3.80847L3.37215 48.1931Z" fill="#7C7C7B"/>
<path d="M2.81686 48.1931H2.6582L3.09452 48.6294H3.25318L2.81686 48.1931Z" fill="#7C7C7B"/>
<path d="M3.88718 48.1931H3.72852L4.16483 48.6294H4.36316L3.88718 48.1931Z" fill="#7C7C7B"/>
<path d="M2.26022 48.1931H2.10156L2.57754 48.6294H2.7362L2.26022 48.1931Z" fill="#7C7C7B"/>
<path d="M4.95749 48.1931H4.79883L5.27481 48.6294H5.43347L4.95749 48.1931Z" fill="#7C7C7B"/>
<path d="M7.57617 43.5522V43.7109L8.05215 44.1869V44.0282L7.57617 43.5522Z" fill="#7C7C7B"/>
<path d="M17.4133 48.788L16.977 48.3517C16.9374 48.3517 16.858 48.3517 16.8184 48.3517L17.2943 48.788C17.334 48.788 17.3737 48.788 17.4133 48.788Z" fill="#7C7C7B"/>
<path d="M17.4139 48.2724C17.3743 48.2724 17.3346 48.2724 17.2949 48.312L17.7709 48.7484C17.8106 48.7484 17.8502 48.7484 17.8899 48.7087L17.4139 48.2724Z" fill="#7C7C7B"/>
<path d="M7.57617 43.0366V43.1953L8.05215 43.6712V43.5126L7.57617 43.0366Z" fill="#7C7C7B"/>
<path d="M15.1516 48.1534H15.1119L15.0723 48.2724L15.3499 48.5104L15.5879 48.5897L15.1516 48.1534Z" fill="#7C7C7B"/>
<path d="M17.8104 48.1137C17.7707 48.1137 17.7311 48.1534 17.6914 48.1534L18.1674 48.5897C18.2071 48.5897 18.2467 48.55 18.2864 48.55L17.8104 48.1137Z" fill="#7C7C7B"/>
<path d="M18.1659 47.955C18.1262 47.9947 18.0865 47.9947 18.0469 47.9947L18.5229 48.431C18.5625 48.431 18.6022 48.3914 18.6419 48.3914L18.1659 47.955Z" fill="#7C7C7B"/>
<path d="M11.4243 48.1931H11.2656L11.7019 48.6294H11.8606L11.4243 48.1931Z" fill="#7C7C7B"/>
<path d="M18.4446 47.717C18.4049 47.7567 18.3652 47.7567 18.3652 47.7964L18.8412 48.2327C18.8809 48.193 18.9205 48.193 18.9205 48.1534L18.4446 47.717Z" fill="#7C7C7B"/>
<path d="M12.375 47.5981V47.7567L12.8906 48.193V48.0344L12.375 47.5981Z" fill="#7C7C7B"/>
<path d="M12.5733 46.7254L12.375 46.6461V46.7254L12.8906 47.2014V47.0427L12.5733 46.7254Z" fill="#7C7C7B"/>
<path d="M12.375 47.0824V47.2411L12.8906 47.7171V47.5584L12.375 47.0824Z" fill="#7C7C7B"/>
<path d="M11.7402 45.4561V45.6148L12.2162 46.0908V45.9321L11.7402 45.4561Z" fill="#7C7C7B"/>
<path d="M11.9796 48.1931H11.7812L12.2572 48.6294H12.4159L11.9796 48.1931Z" fill="#7C7C7B"/>
<path d="M20.0709 44.7025L20.0312 44.8215L20.5072 45.2578L20.5469 45.1388L20.0709 44.7025Z" fill="#7C7C7B"/>
<path d="M20.2291 44.3455L20.1895 44.4645L20.6654 44.9008L20.7051 44.7818L20.2291 44.3455Z" fill="#7C7C7B"/>
<path d="M19.9127 45.0595L19.873 45.1785L20.349 45.6148L20.3887 45.5355L19.9127 45.0595Z" fill="#7C7C7B"/>
<path d="M17.9278 38.1578L17.5311 37.8008C17.4914 37.7611 17.4518 37.7611 17.4121 37.7215C17.4914 37.8008 17.5311 37.9198 17.6104 37.9991L18.1657 38.5148C18.0864 38.3561 18.0071 38.2371 17.9278 38.1578Z" fill="#7C7C7B"/>
<path d="M19.7526 45.4165L19.7129 45.5355L20.1889 45.9718L20.2682 45.8925L19.7526 45.4165Z" fill="#7C7C7B"/>
<path d="M23.7201 38.1975V38.0388L23.4028 37.7611H23.2441L23.7201 38.1975Z" fill="#7C7C7B"/>
<path d="M18.9602 47.1617C18.9205 47.2014 18.9205 47.2411 18.8809 47.2411L19.3568 47.6774C19.3965 47.6377 19.3965 47.5981 19.4362 47.5981L18.9602 47.1617Z" fill="#7C7C7B"/>
<path d="M19.1178 46.8444C19.1178 46.8841 19.0781 46.9238 19.0781 46.9634L19.5541 47.3997C19.5541 47.3601 19.5938 47.3204 19.5938 47.2807L19.1178 46.8444Z" fill="#7C7C7B"/>
<path d="M18.7219 47.4791C18.6822 47.5187 18.6822 47.5187 18.6426 47.5584L19.1186 47.9947C19.1582 47.955 19.1582 47.955 19.1979 47.9154L18.7219 47.4791Z" fill="#7C7C7B"/>
<path d="M19.4758 46.1305L19.3965 46.2495L19.9121 46.7254L19.9518 46.6064L19.4758 46.1305Z" fill="#7C7C7B"/>
<path d="M19.5944 45.7735L19.5547 45.8925L20.0307 46.3288L20.11 46.2494L19.5944 45.7735Z" fill="#7C7C7B"/>
<path d="M19.3176 46.4875L19.2383 46.6065L19.7539 47.0824L19.7936 46.9634L19.3176 46.4875Z" fill="#7C7C7B"/>
<path d="M15.8663 48.312C15.787 48.312 15.7076 48.2724 15.668 48.2724L16.1043 48.669C16.1836 48.669 16.2629 48.7087 16.3026 48.7087L15.8663 48.312Z" fill="#7C7C7B"/>
<path d="M3.88809 42.2829V42.1243L3.41211 41.688V41.8466L3.88809 42.2829Z" fill="#7C7C7B"/>
<path d="M3.88809 41.8069V41.6483L3.41211 41.1723V41.331L3.88809 41.8069Z" fill="#7C7C7B"/>
<path d="M3.88809 41.2913V41.1327L3.41211 40.6567V40.8153L3.88809 41.2913Z" fill="#7C7C7B"/>
<path d="M3.88809 40.7757V40.617L3.41211 40.1807V40.3394L3.88809 40.7757Z" fill="#7C7C7B"/>
<path d="M3.88809 43.3142V43.1556L3.41211 42.6796V42.8383L3.88809 43.3142Z" fill="#7C7C7B"/>
<path d="M3.88809 42.7986V42.6399L3.41211 42.1639V42.3226L3.88809 42.7986Z" fill="#7C7C7B"/>
<path d="M7.57617 42.5606V42.7193L8.05215 43.1556V43.0366L7.57617 42.5606Z" fill="#7C7C7B"/>
<path d="M3.88809 40.2997V40.141L3.41211 39.665V39.8237L3.88809 40.2997Z" fill="#7C7C7B"/>
<path d="M3.88809 43.8299V43.6712L3.41211 43.1953V43.3539L3.88809 43.8299Z" fill="#7C7C7B"/>
<path d="M11.7402 45.9718V46.1305L11.7799 46.1701L12.1766 46.3685L11.7402 45.9718Z" fill="#7C7C7B"/>
<path d="M3.88809 39.7841V39.6254L3.41211 39.1494V39.3081L3.88809 39.7841Z" fill="#7C7C7B"/>
<path d="M4.08536 39.4667L4.16469 39.4271V39.3874L3.72837 38.9511L3.60938 39.0304L4.08536 39.4667Z" fill="#7C7C7B"/>
<path d="M9.79733 48.1931H9.63867L10.1147 48.6294H10.2733L9.79733 48.1931Z" fill="#7C7C7B"/>
<path d="M8.72702 48.1931H8.56836L9.00468 48.6294H9.203L8.72702 48.1931Z" fill="#7C7C7B"/>
<path d="M9.28171 48.1931H9.12305L9.55936 48.6294H9.71802L9.28171 48.1931Z" fill="#7C7C7B"/>
<path d="M8.21004 48.1931H8.01172L8.4877 48.6294H8.64636L8.21004 48.1931Z" fill="#7C7C7B"/>
<path d="M10.8676 48.1931H10.709L11.185 48.6294H11.3436L10.8676 48.1931Z" fill="#7C7C7B"/>
<path d="M7.65475 48.1931H7.49609L7.93241 48.6294H8.13073L7.65475 48.1931Z" fill="#7C7C7B"/>
<path d="M10.352 48.1931H10.1934L10.6297 48.6294H10.7883L10.352 48.1931Z" fill="#7C7C7B"/>
<path d="M3.88809 44.3059V44.1472L3.41211 43.7109V43.8695L3.88809 44.3059Z" fill="#7C7C7B"/>
<path d="M7.13973 48.1931H6.94141L7.41739 48.6294H7.57605L7.13973 48.1931Z" fill="#7C7C7B"/>
<path d="M3.88809 45.3372V45.1785L3.41211 44.7025V44.8612L3.88809 45.3372Z" fill="#7C7C7B"/>
<path d="M3.88809 44.8215V44.6629L3.41211 44.1869V44.3456L3.88809 44.8215Z" fill="#7C7C7B"/>
<path d="M6.58444 48.1931H6.42578L6.8621 48.6294H7.02076L6.58444 48.1931Z" fill="#7C7C7B"/>
<path d="M3.80876 45.7338H3.88809V45.6941L3.41211 45.2182V45.3768L3.80876 45.7338Z" fill="#7C7C7B"/>
<path d="M25.4249 48.1931H25.2266L25.7025 48.6294H25.8612L25.4249 48.1931Z" fill="#7C7C7B"/>
<path d="M84.0494 42.6399L84.0098 42.7589L84.2874 43.0366L84.2478 42.8382L84.0494 42.6399Z" fill="#7C7C7B"/>
<path d="M79.0926 38.1578V37.9991L78.8149 37.7215H78.6562L79.0926 38.1578Z" fill="#7C7C7B"/>
<path d="M83.9303 43.0366L83.8906 43.1556L83.9303 43.2349H84.1286L83.9303 43.0366Z" fill="#7C7C7B"/>
<path d="M79.0918 39.1494V38.9908L78.5762 38.5148V38.6734L79.0918 39.1494Z" fill="#7C7C7B"/>
<path d="M79.0918 38.6338V38.4751L78.5762 38.0388V38.1974L79.0918 38.6338Z" fill="#7C7C7B"/>
<path d="M78.101 39.7444C78.101 39.7047 78.1406 39.7047 78.101 39.7047C78.101 39.7047 78.1406 39.7047 78.1803 39.7047L77.744 39.2684C77.6647 39.2684 77.625 39.2684 77.625 39.2684L78.101 39.7444Z" fill="#7C7C7B"/>
<path d="M77.6255 48.2327C77.5858 48.2327 77.5461 48.2327 77.4668 48.2327L77.9031 48.669C77.9428 48.669 78.0221 48.669 78.0618 48.669L77.6255 48.2327Z" fill="#7C7C7B"/>
<path d="M79.0918 39.6651V39.5064L78.5762 39.0304V39.1891L79.0918 39.6651Z" fill="#7C7C7B"/>
<path d="M79.0527 47.5584V47.7171L79.4097 48.0344V47.9154L79.0527 47.5584Z" fill="#7C7C7B"/>
<path d="M78.1014 48.1534C78.0617 48.1534 78.0221 48.193 77.9824 48.193L78.4584 48.6294C78.4981 48.6294 78.5377 48.6294 78.5774 48.5897L78.1014 48.1534Z" fill="#7C7C7B"/>
<path d="M78.8944 47.8757L78.7754 47.9551L79.2514 48.3914L79.3307 48.3517L78.8944 47.8757Z" fill="#7C7C7B"/>
<path d="M78.4979 48.0344C78.4582 48.0344 78.4186 48.074 78.3789 48.074L78.8549 48.5103C78.8946 48.5103 78.9342 48.4707 78.9739 48.4707L78.4979 48.0344Z" fill="#7C7C7B"/>
<path d="M76.7526 41.3706C76.7526 41.4103 76.7129 41.45 76.7129 41.4896L77.1889 41.9259C77.1889 41.8863 77.2285 41.8466 77.2285 41.807L76.7526 41.3706Z" fill="#7C7C7B"/>
<path d="M76.9108 40.974C76.9108 41.0137 76.8711 41.0533 76.8711 41.093L77.3471 41.5293C77.3471 41.4896 77.3867 41.45 77.3867 41.4103L76.9108 40.974Z" fill="#7C7C7B"/>
<path d="M76.5924 41.688C76.5924 41.7276 76.5527 41.7673 76.5527 41.807L77.0287 42.2433C77.0287 42.2036 77.0684 42.1639 77.0684 42.1243L76.5924 41.688Z" fill="#7C7C7B"/>
<path d="M77.0299 40.617C77.0299 40.6567 76.9902 40.6964 76.9902 40.736L77.4662 41.1723C77.4662 41.1327 77.5059 41.093 77.5059 41.0533L77.0299 40.617Z" fill="#7C7C7B"/>
<path d="M76.5538 48.2327C76.4745 48.2327 76.3951 48.1931 76.3555 48.1931L76.7918 48.5897C76.8711 48.6294 76.9504 48.6294 77.0298 48.669L76.5538 48.2327Z" fill="#7C7C7B"/>
<path d="M82.9785 46.2098L83.0191 46.2503L82.9785 46.2098Z" fill="#7C7C7B"/>
<path d="M77.6244 40.8153C77.6244 40.7757 77.6641 40.736 77.6641 40.6963L77.1881 40.2204C77.1881 40.26 77.1484 40.2997 77.1484 40.3394L77.6244 40.8153Z" fill="#7C7C7B"/>
<path d="M79.4097 47.0427V46.8841L79.0527 46.5271V46.6858L79.4097 47.0427Z" fill="#7C7C7B"/>
<path d="M79.2499 46.2495H79.1309L79.4085 46.5271V46.4081H79.4482L79.2499 46.2495Z" fill="#7C7C7B"/>
<path d="M83.0983 45.8131L83.0586 45.9321L83.5742 46.3685L83.6139 46.2495L83.0983 45.8131Z" fill="#7C7C7B"/>
<path d="M77.6633 44.3852L78.179 44.8612L78.0996 44.6629L77.584 44.1869L77.6633 44.3852Z" fill="#7C7C7B"/>
<path d="M77.3867 43.4729C77.4264 43.5522 77.4264 43.6316 77.466 43.7109L77.9817 44.1869C77.942 44.1075 77.942 44.0282 77.9024 43.9489L77.3867 43.4729Z" fill="#7C7C7B"/>
<path d="M76.9902 42.6003C77.0696 42.6796 77.1092 42.7986 77.1489 42.9176L77.6645 43.4332C77.6249 43.3143 77.5455 43.2349 77.5059 43.1159L76.9902 42.6003Z" fill="#7C7C7B"/>
<path d="M63.265 39.4667L63.384 39.3874L62.9081 38.9511L62.7891 39.0304L63.265 39.4667Z" fill="#7C7C7B"/>
<path d="M63.1074 40.2997V40.141L62.5918 39.665V39.8237L63.1074 40.2997Z" fill="#7C7C7B"/>
<path d="M67.5893 45.8925L67.1133 45.4165V45.5751L67.5893 46.0511V45.8925Z" fill="#7C7C7B"/>
<path d="M83.4555 45.6545H83.2969L83.7729 46.0511H83.9315L83.4555 45.6545Z" fill="#7C7C7B"/>
<path d="M63.1074 41.331V41.1723L62.5918 40.6964V40.855L63.1074 41.331Z" fill="#7C7C7B"/>
<path d="M67.4694 42.7589L67.4297 42.8382L67.5883 42.9969V42.8382L67.4694 42.7589Z" fill="#7C7C7B"/>
<path d="M63.1074 40.8153V40.6567L62.5918 40.1807V40.3394L63.1074 40.8153Z" fill="#7C7C7B"/>
<path d="M63.1074 39.784V39.6254L62.5918 39.1891V39.3477L63.1074 39.784Z" fill="#7C7C7B"/>
<path d="M67.1133 44.4249V44.5835L67.5893 45.0198V44.8612L67.1133 44.4249Z" fill="#7C7C7B"/>
<path d="M67.5893 45.5355V45.3768L67.1133 44.9008V45.0595L67.5893 45.5355Z" fill="#7C7C7B"/>
<path d="M67.1133 43.3936V43.5522L67.5893 44.0282V43.8696L67.1133 43.3936Z" fill="#7C7C7B"/>
<path d="M67.2727 43.0762L67.1934 43.1556L67.59 43.5125V43.3539L67.2727 43.0762Z" fill="#7C7C7B"/>
<path d="M67.1133 43.9092V44.0679L67.5893 44.5439V44.3852L67.1133 43.9092Z" fill="#7C7C7B"/>
<path d="M71.1196 48.1931H70.9609L71.4369 48.6294H71.5956L71.1196 48.1931Z" fill="#7C7C7B"/>
<path d="M73.3018 48.1931H73.1035L73.5795 48.6294H73.7382L73.3018 48.1931Z" fill="#7C7C7B"/>
<path d="M72.1899 48.1931H72.0312L72.5072 48.6294H72.6659L72.1899 48.1931Z" fill="#7C7C7B"/>
<path d="M73.8169 48.1931H73.6582L74.0945 48.6294H74.2928L73.8169 48.1931Z" fill="#7C7C7B"/>
<path d="M72.7465 48.1931H72.5879L73.0242 48.6294H73.1829L72.7465 48.1931Z" fill="#7C7C7B"/>
<path d="M74.293 47.6377V47.7964L74.8086 48.2724V48.1137L74.293 47.6377Z" fill="#7C7C7B"/>
<path d="M74.293 47.1221V47.2807L74.8086 47.7567V47.598L74.293 47.1221Z" fill="#7C7C7B"/>
<path d="M70.127 48.2724V48.431L70.3253 48.6294H70.5236L70.127 48.2724Z" fill="#7C7C7B"/>
<path d="M67.1529 46.1305L67.4306 46.2494L67.1133 45.9321V46.0908L67.1529 46.1305Z" fill="#7C7C7B"/>
<path d="M67.8672 46.6461V46.8047L68.3828 47.2807V47.1221L67.8672 46.6461Z" fill="#7C7C7B"/>
<path d="M70.604 48.1931H70.4453L70.8816 48.6294H71.0403L70.604 48.1931Z" fill="#7C7C7B"/>
<path d="M74.3326 46.6461H74.293V46.7651L74.8086 47.2411V47.0824L74.3326 46.6461Z" fill="#7C7C7B"/>
<path d="M71.6743 48.1931H71.5156L71.9519 48.6294H72.1106L71.6743 48.1931Z" fill="#7C7C7B"/>
<path d="M84.9238 45.6545L85.1222 45.8528L85.0825 45.6545H84.9238Z" fill="#7C7C7B"/>
<path d="M89.5234 47.7964V47.9154L89.9994 48.3914V48.2327L89.5234 47.7964Z" fill="#7C7C7B"/>
<path d="M89.4048 48.1931H89.2461L89.7221 48.6294H89.8807L89.4048 48.1931Z" fill="#7C7C7B"/>
<path d="M88.8891 48.1931H88.7305L89.1668 48.6294H89.3254L88.8891 48.1931Z" fill="#7C7C7B"/>
<path d="M88.3344 48.1931H88.1758L88.6518 48.6294H88.8104L88.3344 48.1931Z" fill="#7C7C7B"/>
<path d="M89.5234 47.2808V47.4394L89.9994 47.8757V47.7567L89.5234 47.2808Z" fill="#7C7C7B"/>
<path d="M89.5234 46.7651V46.9238L89.9994 47.3997V47.2411L89.5234 46.7651Z" fill="#7C7C7B"/>
<path d="M87.2641 48.1931H87.1055L87.5418 48.6294H87.7401L87.2641 48.1931Z" fill="#7C7C7B"/>
<path d="M86.1919 48.1931H86.0332L86.4695 48.6294H86.6678L86.1919 48.1931Z" fill="#7C7C7B"/>
<path d="M87.8188 48.1931H87.6602L88.0965 48.6294H88.2551L87.8188 48.1931Z" fill="#7C7C7B"/>
<path d="M85.6758 48.1931V48.3517L85.9534 48.6294H86.1121L85.6758 48.1931Z" fill="#7C7C7B"/>
<path d="M86.7472 48.1931H86.5488L87.0248 48.6294H87.1835L86.7472 48.1931Z" fill="#7C7C7B"/>
<path d="M88.6125 45.5751L89.1282 46.0511L89.0488 45.8131L88.5332 45.3372L88.6125 45.5751Z" fill="#7C7C7B"/>
<path d="M86.748 39.665L86.8274 39.8634L87.343 40.3393L87.2637 40.141L86.748 39.665Z" fill="#7C7C7B"/>
<path d="M86.9863 40.379L87.0657 40.5774L87.5813 41.0533L87.502 40.855L86.9863 40.379Z" fill="#7C7C7B"/>
<path d="M86.5488 38.9511L86.6282 39.1494L87.1438 39.6254L87.0645 39.4271L86.5488 38.9511Z" fill="#7C7C7B"/>
<path d="M83.416 46.6064V46.7254L83.892 47.2014V47.0428L83.416 46.6064Z" fill="#7C7C7B"/>
<path d="M86.3105 38.2371L86.3899 38.4354L86.9055 38.9114L86.8262 38.7131L86.3105 38.2371Z" fill="#7C7C7B"/>
<path d="M87.2227 41.0533L87.2623 41.2913L87.778 41.7673L87.7383 41.569L87.2227 41.0533Z" fill="#7C7C7B"/>
<path d="M84.0102 45.6545H83.8516L84.2879 46.0511H84.4465L84.0102 45.6545Z" fill="#7C7C7B"/>
<path d="M88.2949 44.6232L88.3743 44.8612L88.8899 45.3371L88.8106 45.0991L88.2949 44.6232Z" fill="#7C7C7B"/>
<path d="M88.0957 43.9092L88.175 44.1472L88.651 44.6232L88.6113 44.3852L88.0957 43.9092Z" fill="#7C7C7B"/>
<path d="M87.4219 41.7673L87.5012 42.0053L88.0169 42.4813L87.9375 42.2829L87.4219 41.7673Z" fill="#7C7C7B"/>
<path d="M87.6602 42.4813L87.6998 42.7193L88.2155 43.1952L88.1758 42.9572L87.6602 42.4813Z" fill="#7C7C7B"/>
<path d="M87.8574 43.1953L87.9368 43.4332L88.4524 43.9092L88.3731 43.6712L87.8574 43.1953Z" fill="#7C7C7B"/>
<path d="M86.2713 37.6818H86.1523V37.7215L86.668 38.1974L86.6283 37.9991L86.2713 37.6818Z" fill="#7C7C7B"/>
<path d="M74.2532 38.6734C74.2532 38.6338 74.2928 38.5941 74.2928 38.5544L74.1738 38.4355V38.5941L74.2532 38.6734Z" fill="#7C7C7B"/>
<path d="M74.4509 38.3561C74.4905 38.3165 74.4905 38.2768 74.5302 38.2768L74.2129 37.9595V38.0785L74.4509 38.3561Z" fill="#7C7C7B"/>
<path d="M83.416 47.0824V47.2411L83.892 47.7171V47.5584L83.416 47.0824Z" fill="#7C7C7B"/>
<path d="M73.9351 39.3874C73.9351 39.3477 73.9748 39.3081 73.9748 39.2684L73.6971 39.0304L73.5781 39.0701L73.9351 39.3874Z" fill="#7C7C7B"/>
<path d="M74.6494 38.0388C74.6494 38.0388 74.689 38.0388 74.6494 38.0388V37.8801L74.4907 37.7215H74.332L74.6494 38.0388Z" fill="#7C7C7B"/>
<path d="M73.8167 39.7841C73.8167 39.7841 73.8167 39.7444 73.8167 39.7841C73.8167 39.7444 73.8564 39.7047 73.8564 39.6651L73.5391 39.3477V39.5064L73.8167 39.7841Z" fill="#7C7C7B"/>
<path d="M77.9018 40.0617C77.9018 40.022 77.9414 39.9824 77.9414 39.9427L77.4654 39.5064C77.4654 39.546 77.4258 39.5857 77.4258 39.6254L77.9018 40.0617Z" fill="#7C7C7B"/>
<path d="M84.5655 45.6545H84.3672L84.8432 46.0511H85.0018L84.5655 45.6545Z" fill="#7C7C7B"/>
<path d="M67.5887 42.5209V42.3623L67.1523 41.9656L67.43 42.3623L67.5887 42.5209Z" fill="#7C7C7B"/>
<path d="M73.6977 40.141C73.6977 40.1014 73.7374 40.0617 73.7374 40.0221L73.5391 39.8237V39.9824L73.6977 40.141Z" fill="#7C7C7B"/>
<path d="M77.7826 40.4584C77.7826 40.4187 77.8223 40.379 77.8223 40.3394L77.3463 39.903C77.3463 39.9427 77.3066 39.9824 77.3066 40.022L77.7826 40.4584Z" fill="#7C7C7B"/>
<path d="M78.5756 39.7047H78.7343L78.2979 39.2684H78.0996L78.5756 39.7047Z" fill="#7C7C7B"/>
<path d="M74.0942 39.0304C74.0942 38.9908 74.1339 38.9511 74.1339 38.9114L74.0545 38.8321L73.9355 38.8718L74.0942 39.0304Z" fill="#7C7C7B"/>
<path d="M81.9093 48.1931H81.7109L82.1869 48.6294H82.3456L81.9093 48.1931Z" fill="#7C7C7B"/>
<path d="M82.4243 48.1931H82.2656L82.7019 48.6294H82.9003L82.4243 48.1931Z" fill="#7C7C7B"/>
<path d="M81.354 48.1931H81.1953L81.6316 48.6294H81.7903L81.354 48.1931Z" fill="#7C7C7B"/>
<path d="M82.9796 48.1931H82.7812L83.2572 48.6294H83.4159L82.9796 48.1931Z" fill="#7C7C7B"/>
<path d="M80.7973 48.1931H80.6387L81.1147 48.6294H81.2733L80.7973 48.1931Z" fill="#7C7C7B"/>
<path d="M83.416 47.5981V47.7567L83.892 48.2327V48.074L83.416 47.5981Z" fill="#7C7C7B"/>
<path d="M80.123 48.55V48.6294H80.2024L80.123 48.55Z" fill="#7C7C7B"/>
<path d="M78.2204 45.9321L78.3394 45.8924L77.9824 45.5355L78.0221 45.7338L78.2204 45.9321Z" fill="#7C7C7B"/>
<path d="M78.3385 45.5355L78.2988 45.3372L77.7832 44.8612L77.8229 45.0595L78.3385 45.5355Z" fill="#7C7C7B"/>
<path d="M79.4097 47.5584V47.3997L79.0527 47.0427V47.2014L79.4097 47.5584Z" fill="#7C7C7B"/>
<path d="M80.2817 48.1931H80.123V48.2327L80.5594 48.6294H80.718L80.2817 48.1931Z" fill="#7C7C7B"/>
<path d="M73.5391 40.498C73.5391 40.4584 73.5787 40.4187 73.5787 40.379L73.5391 40.3394V40.498Z" fill="#7C7C7B"/>
<path d="M67.5893 39.9824V39.8237L67.1133 39.3477V39.5064L67.5893 39.9824Z" fill="#7C7C7B"/>
<path d="M62.5918 45.7338V45.8925L62.9884 46.2891L63.1074 46.3288V46.2098L62.5918 45.7338Z" fill="#7C7C7B"/>
<path d="M63.7016 43.9092V43.7505H63.543L63.7016 43.9092Z" fill="#7C7C7B"/>
<path d="M51.5254 40.9343V41.0137L51.5651 40.9343H51.5254Z" fill="#7C7C7B"/>
<path d="M62.5918 45.2182V45.3768L63.1074 45.8528V45.6941L62.5918 45.2182Z" fill="#7C7C7B"/>
<path d="M62.5918 44.2265V44.3852L63.1074 44.8612V44.7025L62.5918 44.2265Z" fill="#7C7C7B"/>
<path d="M62.5918 44.7422V44.9008L63.1074 45.3372V45.1785L62.5918 44.7422Z" fill="#7C7C7B"/>
<path d="M56.9199 46.9634V47.1221L57.3959 47.5981V47.4394L56.9199 46.9634Z" fill="#7C7C7B"/>
<path d="M56.087 48.1931H55.8887L56.3647 48.6294H56.5233L56.087 48.1931Z" fill="#7C7C7B"/>
<path d="M55.5317 48.1931H55.373L55.8094 48.6294H56.0077L55.5317 48.1931Z" fill="#7C7C7B"/>
<path d="M56.602 48.1931H56.4434L56.8797 48.6294H57.078L56.602 48.1931Z" fill="#7C7C7B"/>
<path d="M56.9199 47.4791V47.6377L57.3959 48.074V47.955L56.9199 47.4791Z" fill="#7C7C7B"/>
<path d="M57.3959 48.5897V48.431L56.9199 47.9947V48.1137L57.3959 48.5897Z" fill="#7C7C7B"/>
<path d="M56.642 39.8237V39.665L56.166 39.1891V39.3477L56.642 39.8237Z" fill="#7C7C7B"/>
<path d="M62.6315 43.7505H62.5918V43.8695L63.1074 44.3455V44.1869L62.6315 43.7505Z" fill="#7C7C7B"/>
<path d="M55.0147 48.1931H54.8164L55.2924 48.6294H55.451L55.0147 48.1931Z" fill="#7C7C7B"/>
<path d="M56.642 40.8153V40.6567L56.166 40.2204V40.379L56.642 40.8153Z" fill="#7C7C7B"/>
<path d="M56.7996 39.4667L56.9186 39.4271L56.4426 38.9511L56.3633 39.0304L56.7996 39.4667Z" fill="#7C7C7B"/>
<path d="M56.642 41.8466V41.688L56.166 41.212V41.3707L56.642 41.8466Z" fill="#7C7C7B"/>
<path d="M56.642 41.331V41.1723L56.166 40.6964V40.855L56.642 41.331Z" fill="#7C7C7B"/>
<path d="M56.642 40.3394V40.1807L56.166 39.7047V39.8634L56.642 40.3394Z" fill="#7C7C7B"/>
<path d="M57.2758 37.8801V37.7611H57.1172L57.2758 37.8801Z" fill="#7C7C7B"/>
<path d="M63.1866 43.7505H62.9883L63.4643 44.1869H63.6229L63.1866 43.7505Z" fill="#7C7C7B"/>
<path d="M57.2768 38.9114V38.7527L56.8008 38.2768V38.4354L57.2768 38.9114Z" fill="#7C7C7B"/>
<path d="M57.1576 39.2684L57.2766 39.2287L56.8006 38.7924L56.6816 38.8321L57.1576 39.2684Z" fill="#7C7C7B"/>
<path d="M57.2768 38.3958V38.2371L56.8008 37.7611V37.9198L57.2768 38.3958Z" fill="#7C7C7B"/>
<path d="M49.6216 48.1931H49.4629L49.8992 48.6294H50.0579L49.6216 48.1931Z" fill="#7C7C7B"/>
<path d="M42.6801 44.7025C42.6405 44.7025 42.6008 44.7025 42.5215 44.7025L42.9975 45.1388C43.0371 45.1388 43.1165 45.1388 43.1561 45.1388L42.6801 44.7025Z" fill="#7C7C7B"/>
<path d="M42.1645 44.7422C42.1249 44.7422 42.0455 44.7422 42.0059 44.7422L42.4422 45.1785C42.4818 45.1785 42.5612 45.1785 42.6008 45.1785L42.1645 44.7422Z" fill="#7C7C7B"/>
<path d="M41.5293 45.1388V45.2975L42.0053 45.7735V45.6148L41.5293 45.1388Z" fill="#7C7C7B"/>
<path d="M43.1548 44.6232C43.1151 44.6232 43.0754 44.6232 42.9961 44.6628L43.4721 45.0991C43.5117 45.0991 43.5514 45.0991 43.6307 45.0595L43.1548 44.6232Z" fill="#7C7C7B"/>
<path d="M41.5293 45.8131L42.0053 46.2495V46.0908L41.5293 45.6545V45.8131Z" fill="#7C7C7B"/>
<path d="M43.5917 44.5439C43.552 44.5439 43.5123 44.5835 43.4727 44.5835L43.9486 45.0198C43.9883 45.0198 44.028 44.9802 44.0676 44.9802L43.5917 44.5439Z" fill="#7C7C7B"/>
<path d="M42.2832 47.3601V47.5187L42.7592 47.9947V47.8361L42.2832 47.3601Z" fill="#7C7C7B"/>
<path d="M42.0844 48.1931H41.9258L42.3621 48.6294H42.5604L42.0844 48.1931Z" fill="#7C7C7B"/>
<path d="M54.4594 48.1931H54.3008L54.7371 48.6294H54.8958L54.4594 48.1931Z" fill="#7C7C7B"/>
<path d="M42.2832 46.8444V47.0031L42.7592 47.4791V47.3204L42.2832 46.8444Z" fill="#7C7C7B"/>
<path d="M42.7592 48.3121L42.2832 47.8757V47.9947L42.7592 48.4707V48.3121Z" fill="#7C7C7B"/>
<path d="M43.9881 44.4249C43.9485 44.4249 43.9088 44.4645 43.8691 44.4645L44.3451 44.9008C44.3848 44.9008 44.4245 44.8612 44.4641 44.8612L43.9881 44.4249Z" fill="#7C7C7B"/>
<path d="M41.5298 48.1931H41.3711L41.8471 48.6294H42.0057L41.5298 48.1931Z" fill="#7C7C7B"/>
<path d="M52.3188 48.1931H52.1602L52.5965 48.6294H52.7551L52.3188 48.1931Z" fill="#7C7C7B"/>
<path d="M52.8344 48.1931H52.6758L53.1518 48.6294H53.3104L52.8344 48.1931Z" fill="#7C7C7B"/>
<path d="M51.7622 48.1931H51.6035L52.0398 48.6294H52.2382L51.7622 48.1931Z" fill="#7C7C7B"/>
<path d="M53.9048 48.1931H53.7461L54.2221 48.6294H54.3807L53.9048 48.1931Z" fill="#7C7C7B"/>
<path d="M51.2472 48.1931H51.0488L51.5248 48.6294H51.6835L51.2472 48.1931Z" fill="#7C7C7B"/>
<path d="M53.3891 48.1931H53.2305L53.6668 48.6294H53.8254L53.3891 48.1931Z" fill="#7C7C7B"/>
<path d="M49.0649 48.1931H48.9062L49.3822 48.6294H49.5409L49.0649 48.1931Z" fill="#7C7C7B"/>
<path d="M50.6919 48.1931H50.5332L50.9695 48.6294H51.1282L50.6919 48.1931Z" fill="#7C7C7B"/>
<path d="M48.5493 48.1931H48.3906L48.8269 48.6294H48.9856L48.5493 48.1931Z" fill="#7C7C7B"/>
<path d="M48.4703 48.6294L48.1133 48.2724V48.431L48.2719 48.6294H48.4703Z" fill="#7C7C7B"/>
<path d="M50.1372 48.1931H49.9785L50.4545 48.6294H50.6132L50.1372 48.1931Z" fill="#7C7C7B"/>
<path d="M56.642 42.3226V42.2036L56.166 41.7276V41.8863L56.642 42.3226Z" fill="#7C7C7B"/>
<path d="M63.5825 48.1931H63.4238L63.8998 48.6294H64.0585L63.5825 48.1931Z" fill="#7C7C7B"/>
<path d="M62.5918 41.212V41.331H62.7505L62.5918 41.212Z" fill="#7C7C7B"/>
<path d="M67.8672 47.1617V47.3204L68.3828 47.7567V47.5981L67.8672 47.1617Z" fill="#7C7C7B"/>
<path d="M63.6225 39.2684H63.6621L63.7018 39.3081V39.2287L63.5035 39.0304L63.1465 38.8321L63.6225 39.2684Z" fill="#7C7C7B"/>
<path d="M68.2236 38.0785V37.9198L68.0649 37.7611H67.9062L68.2236 38.0785Z" fill="#7C7C7B"/>
<path d="M67.8672 47.6377V47.7964L68.3828 48.2724V48.1137L67.8672 47.6377Z" fill="#7C7C7B"/>
<path d="M73.5391 45.8925V46.0511L73.5787 46.0908L73.9357 46.2891L73.5391 45.8925Z" fill="#7C7C7B"/>
<path d="M68.224 38.5941V38.4355L67.748 37.9595V38.1181L68.224 38.5941Z" fill="#7C7C7B"/>
<path d="M65.7641 48.1931H65.6055L66.0418 48.6294H66.2004L65.7641 48.1931Z" fill="#7C7C7B"/>
<path d="M65.2094 48.1931H65.0508L65.4871 48.6294H65.6854L65.2094 48.1931Z" fill="#7C7C7B"/>
<path d="M66.8364 48.1931H66.6777L67.114 48.6294H67.2727L66.8364 48.1931Z" fill="#7C7C7B"/>
<path d="M67.352 48.1931H67.1934L67.6693 48.6294H67.828L67.352 48.1931Z" fill="#7C7C7B"/>
<path d="M67.867 48.1534V48.193H67.748L68.1844 48.6294H68.343L67.867 48.1534Z" fill="#7C7C7B"/>
<path d="M66.2798 48.1931H66.1211L66.5971 48.6294H66.7557L66.2798 48.1931Z" fill="#7C7C7B"/>
<path d="M41.0141 48.1931H40.8555L41.2918 48.6294H41.4504L41.0141 48.1931Z" fill="#7C7C7B"/>
<path d="M67.6297 39.5461L67.7487 39.4667L67.2727 39.0304L67.1934 39.1098L67.6297 39.5461Z" fill="#7C7C7B"/>
<path d="M67.5893 40.498V40.3394L67.1133 39.8634V40.022L67.5893 40.498Z" fill="#7C7C7B"/>
<path d="M67.5893 41.0137V40.855L67.1133 40.379V40.5377L67.5893 41.0137Z" fill="#7C7C7B"/>
<path d="M67.5893 41.4896V41.331L67.1133 40.8947V41.0136L67.5893 41.4896Z" fill="#7C7C7B"/>
<path d="M67.9857 39.3477L68.1047 39.3081L67.6288 38.8321L67.5098 38.9114L67.9857 39.3477Z" fill="#7C7C7B"/>
<path d="M68.224 39.0701V38.9114L67.748 38.4751V38.6338L68.224 39.0701Z" fill="#7C7C7B"/>
<path d="M73.5391 44.3852V44.5439L74.015 45.0198V44.8612L73.5391 44.3852Z" fill="#7C7C7B"/>
<path d="M73.5391 44.9008V45.0595L74.015 45.5355V45.3768L73.5391 44.9008Z" fill="#7C7C7B"/>
<path d="M73.6582 43.6316L73.8565 43.8299C73.7772 43.7506 73.7375 43.6712 73.6582 43.6316Z" fill="#7C7C7B"/>
<path d="M73.5391 43.8695V44.0282L74.015 44.5042V44.3455L73.5391 43.8695Z" fill="#7C7C7B"/>
<path d="M73.5391 45.4165V45.5355L74.015 46.0114V45.8528L73.5391 45.4165Z" fill="#7C7C7B"/>
<path d="M56.166 44.2265V44.3852L56.642 44.8612V44.7025L56.166 44.2265Z" fill="#7C7C7B"/>
<path d="M52.041 40.022V39.9824V39.8634L51.5254 39.3874V39.546L52.041 40.022Z" fill="#7C7C7B"/>
<path d="M52.3582 39.3081L52.3979 39.2288L52.0409 38.8718L51.9219 38.9114L52.3582 39.3081Z" fill="#7C7C7B"/>
<path d="M64.6944 48.1931H64.4961L64.9721 48.6294H65.1307L64.6944 48.1931Z" fill="#7C7C7B"/>
<path d="M52.0398 39.5461L52.1588 39.4667L51.6828 39.0304L51.6035 39.1098L52.0398 39.5461Z" fill="#7C7C7B"/>
<path d="M56.642 45.7338L56.166 45.2578V45.4165L56.642 45.8925V45.7338Z" fill="#7C7C7B"/>
<path d="M51.6841 40.6964L51.7237 40.617L51.5254 40.4187V40.5774L51.6841 40.6964Z" fill="#7C7C7B"/>
<path d="M56.166 43.2349V43.3936L56.642 43.8695V43.7109L56.166 43.2349Z" fill="#7C7C7B"/>
<path d="M56.642 42.8383V42.6796L56.166 42.2433V42.3623L56.642 42.8383Z" fill="#7C7C7B"/>
<path d="M56.166 42.7193V42.8779L56.642 43.3539V43.1953L56.166 42.7193Z" fill="#7C7C7B"/>
<path d="M56.642 45.3768V45.2182L56.166 44.7422V44.9008L56.642 45.3768Z" fill="#7C7C7B"/>
<path d="M56.6023 46.3288L56.642 46.3684V46.2098L56.166 45.7735V45.8925L56.6023 46.3288Z" fill="#7C7C7B"/>
<path d="M56.166 43.7505V43.9092L56.642 44.3455V44.1869L56.166 43.7505Z" fill="#7C7C7B"/>
<path d="M51.8427 40.379L51.922 40.26L51.5254 39.903V40.0617L51.8427 40.379Z" fill="#7C7C7B"/>
<path d="M62.5122 48.1931H62.3535L62.8295 48.6294H62.9882L62.5122 48.1931Z" fill="#7C7C7B"/>
<path d="M56.998 46.6858L57.3947 47.0824V46.9238L56.998 46.6858Z" fill="#7C7C7B"/>
<path d="M63.0669 48.1931H62.9082L63.3445 48.6294H63.5032L63.0669 48.1931Z" fill="#7C7C7B"/>
<path d="M61.4419 48.1931H61.2832L61.7592 48.6294H61.9178L61.4419 48.1931Z" fill="#7C7C7B"/>
<path d="M64.1391 48.1931H63.9805L64.4168 48.6294H64.6151L64.1391 48.1931Z" fill="#7C7C7B"/>
<path d="M67.5893 42.0053V41.8466L67.1133 41.3706V41.5293L67.5893 42.0053Z" fill="#7C7C7B"/>
<path d="M61.9966 48.1931H61.8379L62.2742 48.6294H62.4329L61.9966 48.1931Z" fill="#7C7C7B"/>
<path d="M59.1406 48.55V48.6294H59.22L59.1406 48.55Z" fill="#7C7C7B"/>
<path d="M59.2993 48.1931H59.1406V48.2327L59.5769 48.6294H59.7356L59.2993 48.1931Z" fill="#7C7C7B"/>
<path d="M60.9249 48.1931H60.7266L61.2025 48.6294H61.3612L60.9249 48.1931Z" fill="#7C7C7B"/>
<path d="M60.3696 48.1931H60.2109L60.6472 48.6294H60.8456L60.3696 48.1931Z" fill="#7C7C7B"/>
<path d="M59.8546 48.1931H59.6562L60.1322 48.6294H60.2909L59.8546 48.1931Z" fill="#7C7C7B"/>
<path d="M49.7408 16.5403L49.5821 16.461L49.5028 16.6197C48.1145 19.4359 47.7178 22.0934 47.6385 23.5214H45.8536V15.4297H45.6949C45.3379 15.39 45.0206 15.39 44.7033 15.39C44.386 15.39 44.0686 15.39 43.7117 15.4297H43.553V23.5214H41.7681C41.6887 22.0934 41.2921 19.4359 39.9038 16.6197L39.8245 16.461L39.6658 16.5403C37.8412 17.3733 37.9999 18.5236 38.4759 19.5945C39.3485 21.4588 39.3882 22.9264 39.3882 24.3543V25.822H44.7033H44.743H49.9787V24.3543C49.9787 22.9264 50.0581 21.5778 50.9307 19.5945C51.367 18.5236 51.5653 17.3733 49.7408 16.5403Z" fill="#1C1C1C"/>
<path d="M48.3128 23.5214C48.3921 22.2124 48.6698 19.8722 49.9391 17.175C49.9787 17.056 49.8597 16.937 49.7804 16.8973C48.4715 19.6342 48.1145 22.2124 48.0352 23.5214H48.3128Z" fill="#646363"/>
<path d="M44.1865 23.5214V15.9057C44.1865 15.9057 44.2658 15.866 44.5038 15.7867C44.7418 15.7074 45.0194 15.6677 45.0194 15.6677C44.4245 15.6677 43.9881 15.747 43.8691 15.747V23.561H44.1865V23.5214Z" fill="#646363"/>
<path d="M40.0211 25.4253V24.3147C40.0211 22.7677 39.9021 21.3398 39.1088 19.5945C38.9105 19.1979 38.1569 17.6906 39.6245 16.8576C38.8312 17.2543 38.0379 17.9683 38.7915 19.5549C39.7038 21.4984 39.7038 22.7677 39.7038 24.3147V25.3856L40.0211 25.4253Z" fill="#646363"/>
<path d="M49.9388 27.0912H39.3086V27.7655H49.9388V27.0912Z" fill="#282727"/>
<path d="M55.61 13.8828L61.2424 8.25033L60.7665 7.77435L55.0547 13.4861C55.253 13.6448 55.4117 13.7638 55.61 13.8828Z" fill="#D0965A"/>
<path d="M53.1503 12.2565L56.5615 7.1397L56.0062 6.78271L52.5156 11.9788C52.7536 12.0582 52.9519 12.1772 53.1503 12.2565Z" fill="#D0965A"/>
<path d="M53.9046 3.17319L53.27 2.89554L49.8984 10.9079C50.0968 10.9872 50.3348 11.0269 50.5331 11.1062L53.9046 3.17319Z" fill="#D0965A"/>
<path d="M31.7324 15.9057C31.891 15.747 32.0497 15.5884 32.2084 15.4297L29.4318 13.4861L29.0352 14.0414L31.7324 15.9057Z" fill="#D0965A"/>
<path d="M57.6732 15.7867L60.1721 14.0414L59.7755 13.4861L57.1973 15.271C57.3559 15.4694 57.5146 15.628 57.6732 15.7867Z" fill="#D0965A"/>
<path d="M42.0053 10.3526L40.6567 3.80783L39.9824 3.92683L41.331 10.4716C41.569 10.4319 41.807 10.3922 42.0053 10.3526Z" fill="#D0965A"/>
<path d="M49.2235 3.9665L48.5492 3.8475L47.2402 10.3129C47.4782 10.3526 47.6766 10.3922 47.9145 10.4319L49.2235 3.9665Z" fill="#D0965A"/>
<path d="M34.23 13.6051L28.4389 7.77435L27.9629 8.25033L33.7143 14.0414C33.873 13.8828 34.0713 13.7638 34.23 13.6051Z" fill="#D0965A"/>
<path d="M36.7697 12.0582L33.2395 6.78271L32.6445 7.1397L36.1351 12.3755C36.373 12.2565 36.5714 12.1772 36.7697 12.0582Z" fill="#D0965A"/>
<path d="M44.9399 10.1543V0H44.2656V10.1543C44.4243 10.1543 44.5829 10.1543 44.7416 10.1543C44.8209 10.1543 44.9003 10.1543 44.9399 10.1543Z" fill="#D0965A"/>
<path d="M39.3089 10.9872L35.8977 2.89554L35.3027 3.17319L38.7139 11.2252C38.8726 11.1459 39.1106 11.0665 39.3089 10.9872Z" fill="#D0965A"/>
<path d="M67.3509 32.1683H57.2363V32.803H67.3509C67.3906 32.803 67.4699 32.803 67.5096 32.803C67.3906 32.922 67.3509 33.0806 67.3509 33.2393C67.3509 33.6359 67.6682 33.9533 68.0649 33.9533C68.4615 33.9533 68.7789 33.6359 68.7789 33.2393C68.7789 33.0806 68.7392 32.8823 68.6599 32.7633C68.4615 32.4063 67.9856 32.1683 67.3509 32.1683Z" fill="#D0965A"/>
<path d="M78.1011 27.9242C78.1011 27.3689 77.8631 26.8532 77.4665 26.4566C77.0698 26.0599 76.5542 25.8616 75.9988 25.8616C75.5229 25.8616 75.0469 26.0599 74.7296 26.3773C74.4916 26.6153 74.3329 26.8929 74.2932 27.2102H69.5731C69.6921 26.7343 69.6921 26.2583 69.6128 25.7426C69.4541 24.7907 68.9385 23.918 68.1848 23.2437C68.0262 23.1247 67.9072 23.0057 67.7485 22.9264C67.0742 22.4504 66.2016 22.2918 65.4083 22.4504C64.5753 22.6091 63.8613 23.0851 63.425 23.799C63.187 24.1164 63.068 24.513 63.0284 24.9097H59.6965H59.6172C59.1412 24.9097 58.7049 24.7113 58.3479 24.3543C57.9909 23.9974 57.7926 23.5214 57.8323 23.0454C57.8323 22.6487 57.9909 22.2918 58.2686 22.0538C58.5462 21.8158 58.9032 21.6571 59.2602 21.6571C59.4585 21.6571 59.7758 21.6968 60.0535 21.9744C60.2518 22.1728 60.3708 22.4504 60.3708 22.7281C60.3708 22.8471 60.3312 22.9661 60.2915 23.0851C60.2518 23.2041 60.1725 23.2834 60.0535 23.3627C59.9742 23.4024 59.8948 23.4421 59.8155 23.4817C59.8552 23.4024 59.8552 23.3231 59.8552 23.2437C59.8155 22.9264 59.5378 22.6487 59.2205 22.6487H59.1809C59.0222 22.6487 58.8635 22.7281 58.7445 22.8867C58.6256 23.0057 58.5859 23.1644 58.5859 23.3627C58.5859 23.561 58.7049 23.799 58.9032 23.9577C59.0619 24.0767 59.2999 24.1957 59.5378 24.2354C59.8552 24.275 60.1725 24.1957 60.4501 23.9974C60.6485 23.8784 60.8071 23.68 60.9261 23.4817C61.0451 23.2834 61.0848 23.0454 61.0848 22.8074C61.0848 22.3314 60.8865 21.8951 60.5691 21.5778C60.2518 21.2208 59.7758 21.0621 59.2999 21.0621C58.7445 21.0621 58.2289 21.3001 57.8323 21.6571C57.4753 21.9744 57.2769 22.4108 57.2373 22.8867H56.0077C56.0473 22.2521 56.2457 21.2208 56.92 20.1895C57.6339 19.0392 58.5066 18.1269 59.4982 17.532C60.9261 16.6197 62.7507 16.3023 63.7027 16.1833C63.2267 16.818 62.3541 17.8493 61.2831 18.4443C60.6088 18.8012 60.1725 18.9599 60.1725 18.9599L60.3312 19.5945C60.3708 19.5945 60.8468 19.4359 61.6004 19.0392C63.3457 18.0873 64.5753 16.104 64.6546 16.0247L64.972 15.509H64.377C64.258 15.509 61.3624 15.628 59.1809 17.0163C58.1099 17.6906 57.1976 18.6426 56.4043 19.8722C55.254 21.7365 55.4127 23.4817 55.4127 23.561H55.6903H57.3166C57.3959 24.0767 57.6339 24.5527 58.0306 24.9493C58.5066 25.4253 59.1412 25.703 60.0138 25.703H63.2267C63.2267 25.7426 63.2267 25.822 63.2664 25.8616C63.3854 26.3773 63.6233 26.8532 63.9803 27.1706H52.8345V27.8449H65.4083C65.4083 27.8449 65.7653 27.8449 65.9636 27.8052C66.5189 27.6862 66.9949 27.3689 67.3122 26.8929C67.4709 26.6549 67.5502 26.3773 67.5898 26.0996C67.6295 25.822 67.5899 25.5443 67.4709 25.2666C67.3122 24.87 67.0742 24.5923 66.7172 24.4337C66.5189 24.3147 66.2412 24.275 66.0032 24.275C65.9636 24.275 65.9636 24.275 65.9239 24.275C65.6463 24.3147 65.4083 24.4337 65.2496 24.632C65.0116 24.9493 65.0513 25.3856 65.3686 25.6236C65.6463 25.8616 66.1222 25.822 66.3602 25.5046C66.4396 25.3856 66.5189 25.227 66.5189 25.108C66.6776 25.1873 66.7569 25.346 66.8362 25.5443C66.9155 25.703 66.9155 25.9013 66.9155 26.0599C66.9155 26.2186 66.8362 26.4169 66.7569 26.5359C66.5586 26.8532 66.2016 27.0912 65.8446 27.1706C65.0116 27.3292 64.139 26.6946 63.9407 25.7426C63.8217 25.2666 63.9407 24.751 64.2183 24.3147C64.5753 23.7594 65.1306 23.4024 65.7653 23.2834C66.3999 23.1644 67.0742 23.2834 67.6295 23.6404C67.7485 23.7197 67.8675 23.8387 67.9865 23.918C68.6608 24.4733 69.0971 25.1873 69.2161 25.9806C69.3351 26.7739 69.1765 27.5672 68.6608 28.2812C68.5815 28.4002 68.5021 28.5192 68.3831 28.6382C67.9072 29.1935 67.1932 29.6298 66.3999 29.8281C65.8446 29.9471 65.3686 29.9471 65.3686 29.9471H55.016C53.9451 29.9868 53.0328 30.8991 53.0328 31.97C53.0328 32.0494 53.0328 32.1684 53.0724 32.2477H36.3735C36.3735 32.1684 36.4131 32.0494 36.4131 31.97C36.4131 30.8991 35.5008 29.9868 34.4299 29.9471H34.2315H29.1148H24.117C24.117 29.9471 23.6013 29.9471 23.0857 29.8281C22.2924 29.6298 21.5784 29.2331 21.1024 28.6382C21.0231 28.5192 20.9041 28.4002 20.8248 28.2812C20.3488 27.5672 20.1505 26.7739 20.3091 25.9806C20.4281 25.1873 20.8644 24.4733 21.5387 23.918C21.6577 23.8387 21.7767 23.7197 21.8957 23.6404C22.451 23.2834 23.0857 23.1644 23.76 23.2834C24.3946 23.4024 24.9499 23.799 25.3069 24.3147C25.5846 24.751 25.7036 25.2666 25.5846 25.7426C25.4259 26.4963 24.8706 27.0516 24.236 27.1706C24.236 27.1706 23.9583 27.2102 23.7203 27.1706C23.3237 27.0912 23.0063 26.8929 22.808 26.5359C22.689 26.3773 22.6493 26.2186 22.6493 26.0599C22.6097 25.9013 22.6493 25.703 22.7287 25.5443C22.808 25.346 22.927 25.1873 23.046 25.108C23.046 25.2666 23.1253 25.3856 23.2047 25.5046C23.4427 25.7823 23.9186 25.8616 24.1963 25.6236C24.5136 25.3856 24.5533 24.9097 24.3153 24.632C24.1566 24.4337 23.9186 24.3147 23.641 24.275C23.3633 24.2354 23.0857 24.3147 22.8477 24.4337C22.5304 24.5923 22.2527 24.9097 22.094 25.2666C21.975 25.5443 21.9354 25.822 21.975 26.0996C22.0147 26.3773 22.094 26.6549 22.2527 26.8929C22.57 27.3689 23.0063 27.6862 23.5616 27.7655C23.9186 27.8052 24.5136 27.8052 24.5136 27.8052H36.6908V27.1309H25.5846C25.9415 26.7739 26.1795 26.3376 26.2589 25.822C26.2589 25.7823 26.2589 25.703 26.2985 25.6633H29.5907C30.5427 25.6633 31.1773 25.3063 31.574 24.9097C31.931 24.513 32.169 24.037 32.288 23.5214H33.8746H34.0332C34.0332 23.4421 34.1919 21.6968 33.0416 19.8325C32.2483 18.6029 31.336 17.651 30.265 16.9766C28.0041 15.4694 25.1086 15.39 24.9896 15.39H24.4343L24.7119 15.9057C24.7516 15.985 26.0605 18.2459 27.7661 18.9599C28.5198 19.2772 29.2337 19.5152 29.2734 19.5152L29.4717 18.9202C29.4717 18.9202 28.7578 18.6822 28.0438 18.4046C27.0125 17.9683 26.1002 16.818 25.6242 16.1437C26.5762 16.2627 28.4404 16.58 29.8684 17.4923C30.86 18.1269 31.693 18.9996 32.4466 20.1499C33.0813 21.1811 33.2796 22.2124 33.3589 22.8471H32.288C32.2483 22.3711 32.0103 21.9348 31.693 21.6175C31.2963 21.2208 30.7807 21.0225 30.2254 21.0225C29.7494 21.0225 29.2734 21.2208 28.9561 21.5381C28.6388 21.8554 28.4404 22.3314 28.4404 22.7677C28.4404 23.0057 28.5198 23.2437 28.5991 23.4421C28.7181 23.6404 28.8768 23.8387 29.0751 23.9577C29.3527 24.156 29.6701 24.2354 29.9874 24.1957C30.2254 24.156 30.4634 24.0767 30.622 23.918C30.8204 23.7594 30.9393 23.561 30.9393 23.3231C30.9393 23.1644 30.8997 23.0057 30.7807 22.8471C30.6617 22.7281 30.503 22.6487 30.3444 22.6091H30.3047C29.9874 22.6091 29.7097 22.8471 29.6701 23.2041C29.6701 23.2834 29.6701 23.3627 29.7097 23.4421C29.6304 23.4024 29.5511 23.4024 29.4717 23.3231C29.3527 23.2437 29.2734 23.1644 29.2337 23.0454C29.1941 22.9264 29.1544 22.8074 29.1544 22.6884C29.1544 22.4108 29.2734 22.1331 29.4717 21.9348C29.7494 21.6571 30.0271 21.6175 30.265 21.6175C30.622 21.6175 30.979 21.7761 31.2567 22.0141C31.5343 22.2918 31.693 22.6487 31.693 23.0057C31.693 23.5214 31.4947 23.9577 31.1377 24.3147C30.8204 24.6717 30.3444 24.87 29.8684 24.87H29.7891H26.3779C26.3382 24.4733 26.1795 24.1164 25.9812 23.7594C25.5052 23.0454 24.7913 22.5694 23.998 22.4108C23.2047 22.2521 22.332 22.4108 21.6577 22.8867C21.4991 22.9661 21.3801 23.0851 21.2214 23.2041C20.4281 23.8784 19.9125 24.751 19.7935 25.703C19.7141 26.1789 19.7538 26.6946 19.8331 27.1706H14.9543C14.875 26.8532 14.7163 26.5756 14.518 26.3376C14.2007 25.9806 13.7247 25.822 13.2487 25.822C12.6934 25.822 12.1778 26.0599 11.7811 26.4169C11.3845 26.8136 11.1465 27.3292 11.1465 27.8845C11.1465 28.5588 11.3845 29.1935 11.8605 29.7091C12.2968 30.1454 12.9314 30.4628 13.685 30.4628H23.7996H29.1148H34.4695C35.1835 30.5024 35.7785 31.0974 35.7785 31.8114C35.7785 32.565 35.1835 33.16 34.4299 33.16C34.4695 33.0807 34.5092 32.9617 34.5092 32.8427C34.5092 32.4064 34.1522 32.089 33.7556 32.089C33.3192 32.089 33.0019 32.446 33.0019 32.8427C33.0019 33.16 33.1209 33.398 33.4382 33.5963C33.7556 33.755 34.1126 33.7946 34.4695 33.7946C35.2232 33.7946 35.8975 33.3583 36.2545 32.7237H53.1518C53.5088 33.3583 54.1434 33.7946 54.9367 33.7946C55.2937 33.7946 55.611 33.755 55.9283 33.5963C56.206 33.4376 56.4043 33.16 56.4043 32.8427C56.4043 32.4064 56.0473 32.089 55.6507 32.089C55.2144 32.089 54.897 32.446 54.897 32.8427C54.897 32.9617 54.9367 33.041 54.9764 33.16C54.2227 33.16 53.6278 32.565 53.6278 31.8114C53.6278 31.0974 54.2227 30.4628 54.9367 30.4628H65.4479H75.3642C76.2368 30.4628 76.9508 30.1454 77.3871 29.7091C77.8234 29.2728 78.1011 28.5985 78.1011 27.9242ZM11.8208 27.9242C11.8208 27.5276 11.9795 27.1706 12.2571 26.9326C12.5348 26.6946 12.8917 26.5359 13.2487 26.5359C13.4471 26.5359 13.7644 26.5756 14.042 26.8532C14.2404 27.0516 14.3594 27.3292 14.3594 27.6069C14.3594 27.7259 14.3197 27.8449 14.28 27.9639C14.2404 28.0829 14.1214 28.1622 14.042 28.2415C13.9627 28.2812 13.8834 28.3209 13.804 28.3605C13.8437 28.2812 13.8437 28.2019 13.8437 28.1225C13.804 27.8052 13.5264 27.5276 13.2091 27.5276H13.1694C13.0107 27.5276 12.8521 27.6069 12.7331 27.7655C12.6141 27.8845 12.5744 28.0432 12.5744 28.2415C12.5744 28.4398 12.6934 28.6778 12.8917 28.8365C13.0504 28.9555 13.2884 29.0745 13.5264 29.0745C13.8437 29.1142 14.161 29.0348 14.4387 28.8365C14.637 28.7175 14.7957 28.5192 14.9147 28.3209C14.994 28.2019 15.0337 28.0432 15.0337 27.9242H19.9521C20.0315 28.1622 20.1901 28.3605 20.3091 28.5985C20.3884 28.7175 20.5074 28.8762 20.6264 28.9952C20.9041 29.3521 21.2611 29.6298 21.6577 29.8678H13.804C13.2487 29.8678 12.6934 29.6298 12.3761 29.2728C12.0191 28.9158 11.8208 28.4398 11.8208 27.9242ZM75.4435 29.8281H67.6295C68.0262 29.5901 68.3832 29.2728 68.6608 28.9555C68.7798 28.7968 68.8988 28.6778 68.9781 28.5588C69.1368 28.3605 69.2558 28.1225 69.3351 27.8845H74.2536C74.2932 28.0035 74.3329 28.1622 74.3726 28.2812C74.4916 28.4795 74.6502 28.6778 74.8486 28.7968C75.1262 28.9952 75.4435 29.0745 75.7608 29.0348C75.9988 28.9952 76.2368 28.9158 76.3955 28.7572C76.5938 28.5985 76.7128 28.4002 76.7128 28.1622C76.7525 27.8052 76.4748 27.4879 76.1178 27.4879H76.0782C75.7609 27.4879 75.4832 27.7259 75.4435 28.0829C75.4435 28.1622 75.4435 28.2415 75.4832 28.3209C75.4039 28.2812 75.3245 28.2812 75.2452 28.2019C75.1262 28.1225 75.0469 28.0432 75.0072 27.9242C74.9279 27.8052 74.9279 27.6862 74.9279 27.5672C74.9279 27.2896 75.0469 27.0119 75.2452 26.8136C75.5229 26.5359 75.8005 26.4963 76.0385 26.4963C76.3955 26.4963 76.7525 26.6549 77.0301 26.8929C77.3078 27.1706 77.4665 27.5276 77.4665 27.8845C77.4665 28.4002 77.2681 28.8365 76.9111 29.1935C76.5542 29.5901 75.9195 29.8281 75.4435 29.8281Z" fill="#D0965A"/>
<path d="M20.5858 32.803C20.5065 32.922 20.4668 33.1203 20.4668 33.279C20.4668 33.6756 20.7841 33.9929 21.1808 33.9929C21.5774 33.9929 21.8947 33.6756 21.8947 33.279C21.8947 33.1203 21.8154 32.9616 21.7361 32.8426C21.7757 32.8426 21.8154 32.8426 21.8947 32.8426H32.0093V32.208H21.8551C21.2601 32.1683 20.7841 32.4063 20.5858 32.803Z" fill="#D0965A"/>
<path d="M45.6149 13.1291C45.6149 13.6448 45.1785 14.0811 44.6629 14.0811C44.1473 14.0811 43.7109 13.6448 43.7109 13.1291C43.7109 12.6135 44.1473 12.1772 44.6629 12.1772C45.1785 12.1772 45.6149 12.6135 45.6149 13.1291Z" fill="#D0965A"/>
<path d="M47.2021 15.6677C47.1228 16.3023 47.0434 17.175 47.0038 17.9683C46.9244 19.3169 46.8848 20.6655 46.8848 21.4985H46.9641C47.2021 18.8012 47.7574 17.0163 48.1937 15.9057C47.8764 15.8264 47.5591 15.747 47.2021 15.6677Z" fill="#D0965A"/>
<path d="M42.1635 15.6281C41.8065 15.7074 41.4892 15.7867 41.1719 15.9057C41.6082 17.0163 42.1635 18.7616 42.4015 21.4588H42.4808C42.4808 20.6258 42.4808 19.2772 42.3618 17.9286C42.2825 17.0957 42.2428 16.3024 42.1635 15.6281Z" fill="#D0965A"/>
</svg>
