<svg width="1185" height="136" viewBox="0 0 1185 136" fill="none" xmlns="http://www.w3.org/2000/svg">
<path d="M112.379 11.0794L121.348 15.3002V116.6H94.4408V15.3002L103.41 11.0794V1.05496H56.4534V11.0794L65.4227 15.3002V116.6H39.0426V15.3002L47.4842 11.0794V1.05496H0V11.0794L10.0244 15.3002V118.183L1.58281 122.931V132.955H158.281V122.931L149.839 118.183V15.3002L159.863 11.0794V1.05496H112.379V11.0794Z" fill="white"/>
<path d="M265.388 11.0794L272.246 13.7174L252.198 63.312L229.511 10.0242C226.345 3.1654 222.652 1.05496 213.683 1.05496H187.83V11.0794L198.382 14.7726L236.897 97.6062L230.566 111.324C225.817 120.821 222.124 121.876 210.517 118.71L207.879 118.183L204.186 132.428L206.824 132.955C212.627 134.538 217.903 135.066 222.652 135.066C235.842 135.066 245.866 128.735 250.615 117.127L294.406 14.245L302.847 10.5518V1.05496H265.915V11.0794H265.388Z" fill="white"/>
<path d="M460.074 15.8278L469.043 11.0794V1.58256H431.583C423.669 1.58256 418.921 3.16537 416.81 11.607L399.399 92.3301C394.651 63.8396 389.902 41.6803 383.044 11.607C380.406 3.16537 375.13 1.05496 366.16 1.05496H330.283V11.0794L339.253 15.8278V118.183L329.756 122.931V132.955H370.909V122.931L361.412 118.183V43.2631C368.271 72.2812 374.074 100.244 378.823 123.986C379.878 128.735 383.571 131.373 389.375 131.373H410.479L430.528 41.6803V117.655L420.503 122.931V132.955H469.57V122.931L459.546 117.655V15.8278H460.074Z" fill="white"/>
<path d="M557.663 1.05496H508.596V11.0794L517.038 15.8278V72.8088L510.179 79.1401L517.038 84.9437V117.655L507.014 122.931V132.955H556.081V122.931L546.056 117.655V87.0541H557.136C569.271 87.0541 605.148 87.0541 605.148 55.9256V33.2387C605.148 12.6622 588.264 1.05496 557.663 1.05496ZM576.13 55.9256C576.13 63.312 574.019 71.2261 557.663 71.2261H546.056V18.4658H558.191C574.019 18.4658 576.13 25.8523 576.13 33.7663V55.9256Z" fill="white"/>
<path d="M740.749 15.828L749.19 11.0796V1.58276H703.289V11.0796L710.675 15.828L682.712 73.8643L679.019 83.3611V15.828L687.461 11.0796V1.58276H641.559V11.0796L650.001 15.828V118.183L639.977 123.986V133.483H689.044V123.986L680.602 119.238L707.51 63.8398L712.258 52.7602C712.258 61.2018 712.258 70.1711 712.258 79.1403C712.258 92.3303 712.258 106.048 712.258 118.183L702.234 123.986V133.483H751.301V123.986L741.276 118.183V15.828H740.749Z" fill="white"/>
<path d="M886.363 72.8088L894.277 65.4224L886.363 58.036V15.8278L894.805 11.0794V1.05496H848.903V11.0794L857.345 15.8278V57.5084H826.216V15.8278L835.186 11.0794V1.05496H788.757V11.0794L797.726 15.8278V59.0912L790.339 65.4224L797.726 72.2812V118.71L787.174 122.931V132.955H836.768V122.931L826.216 118.71V73.8641H857.345V118.71L847.321 122.931V132.955H896.387V122.931L886.363 118.71V72.8088Z" fill="white"/>
<path d="M1031.99 110.269L1025.13 83.8885C1021.44 71.2261 1015.63 62.7844 1007.72 59.6188C1013.52 53.8152 1017.74 42.2079 1021.44 32.1835C1023.02 27.4351 1024.6 23.2143 1026.19 20.5763C1028.82 15.3002 1030.41 13.7174 1036.74 13.7174H1039.9V1.05496H1028.82C1022.49 1.05496 1015.63 1.58259 1009.83 4.7482C999.806 10.0242 996.113 21.1039 992.419 31.6559C988.199 43.7907 984.505 54.3428 972.898 55.398V15.8278L981.34 11.0794V1.05496H935.438V11.0794L943.88 15.8278V56.9808L936.493 63.8396L943.88 70.6985V118.183L933.855 123.459V133.483H982.922V123.459L972.898 118.183V71.7537H977.119C989.781 71.7537 994.002 79.1401 996.64 89.6921L1003.5 114.489C1006.14 123.459 1010.89 134.011 1028.3 134.011C1033.04 134.011 1039.9 133.483 1044.65 131.373L1046.23 130.845V118.71L1043.07 119.238C1036.74 119.765 1033.04 115.017 1031.99 110.269Z" fill="white"/>
<path d="M1175.5 118.183L1138.57 0H1111.14L1110.61 2.11042C1103.75 24.7973 1095.83 49.5946 1088.45 73.8643C1087.39 77.0299 1086.34 80.1955 1085.81 83.3611L1076.84 89.6924L1082.64 94.9684C1080.01 102.882 1077.9 110.796 1075.79 118.71L1066.82 122.404V132.956H1103.75V122.404L1096.36 119.238L1102.69 98.6616H1140.15L1146.48 119.766L1140.68 123.459V132.428H1185V122.404L1175.5 118.183ZM1106.39 82.8335L1120.63 34.8217L1134.88 82.8335H1106.39Z" fill="white"/>
</svg>
